<?xml version="1.0" encoding="UTF-8" standalone="no"?>
<!-- Created with Inkscape (http://www.inkscape.org/) -->

<svg
   width="660"
   height="360"
   version="1.1"
   viewBox="0 0 660.00002 360.00001"
   id="svg3"
   sodipodi:docname="Call_customOtimizado_menor.svg"
   inkscape:version="1.3.2 (091e20e, 2023-11-25, custom)"
   xmlns:inkscape="http://www.inkscape.org/namespaces/inkscape"
   xmlns:sodipodi="http://sodipodi.sourceforge.net/DTD/sodipodi-0.dtd"
   xmlns="http://www.w3.org/2000/svg"
   xmlns:svg="http://www.w3.org/2000/svg">
  <sodipodi:namedview
     id="namedview106"
     pagecolor="#505050"
     bordercolor="#eeeeee"
     borderopacity="1"
     inkscape:showpageshadow="0"
     inkscape:pageopacity="0"
     inkscape:pagecheckerboard="0"
     inkscape:deskcolor="#505050"
     inkscape:zoom="1.2314939"
     inkscape:cx="334.55302"
     inkscape:cy="187.98307"
     inkscape:window-width="1920"
     inkscape:window-height="1017"
     inkscape:window-x="-8"
     inkscape:window-y="-8"
     inkscape:window-maximized="1"
     inkscape:current-layer="svg106">
    <inkscape:page
       x="0"
       y="0"
       width="660"
       height="360"
       id="page106"
       margin="0 0 0"
       bleed="0" />
  </sodipodi:namedview>
  <defs
     id="defs53">
    <clipPath
       id="clipPath3">
      <path
         transform="translate(-430.53,-90.428)"
         d="M 0,500 H 500 V 0 H 0 Z"
         id="path1" />
    </clipPath>
    <clipPath
       id="clipPath19">
      <path
         transform="translate(-262.61,-269.05)"
         d="M 0,500 H 500 V 0 H 0 Z"
         id="path2" />
    </clipPath>
    <clipPath
       id="clipPath21">
      <path
         transform="translate(-285.23,-269.94)"
         d="M 0,500 H 500 V 0 H 0 Z"
         id="path3" />
    </clipPath>
    <clipPath
       id="clipPath23">
      <path
         transform="translate(-269.11,-286.47)"
         d="M 0,500 H 500 V 0 H 0 Z"
         id="path4" />
    </clipPath>
    <clipPath
       id="clipPath25">
      <path
         transform="translate(-299.28,-286.47)"
         d="M 0,500 H 500 V 0 H 0 Z"
         id="path5" />
    </clipPath>
    <clipPath
       id="clipPath27">
      <path
         transform="translate(-289.19,-280.78)"
         d="M 0,500 H 500 V 0 H 0 Z"
         id="path6" />
    </clipPath>
    <clipPath
       id="clipPath29">
      <path
         transform="translate(-269.11,-280.78)"
         d="M 0,500 H 500 V 0 H 0 Z"
         id="path7" />
    </clipPath>
    <clipPath
       id="clipPath31">
      <path
         transform="translate(-293.8,-275.09)"
         d="M 0,500 H 500 V 0 H 0 Z"
         id="path8" />
    </clipPath>
    <clipPath
       id="clipPath33">
      <path
         transform="translate(-269.11,-275.09)"
         d="M 0,500 H 500 V 0 H 0 Z"
         id="path9" />
    </clipPath>
    <clipPath
       id="clipPath35">
      <path
         transform="translate(-269.11,-269.4)"
         d="M 0,500 H 500 V 0 H 0 Z"
         id="path10" />
    </clipPath>
    <clipPath
       id="clipPath37">
      <path
         transform="translate(-281.53,-269.4)"
         d="M 0,500 H 500 V 0 H 0 Z"
         id="path11" />
    </clipPath>
    <clipPath
       id="clipPath71">
      <path
         transform="translate(-311.67,-141.03)"
         d="M 0,500 H 500 V 0 H 0 Z"
         id="path12" />
    </clipPath>
    <clipPath
       id="clipPath97">
      <path
         transform="translate(-375.26,-105.97)"
         d="M 0,500 H 500 V 0 H 0 Z"
         id="path13" />
    </clipPath>
    <clipPath
       id="clipPath113">
      <path
         transform="translate(-120.41,-154.24)"
         d="M 0,500 H 500 V 0 H 0 Z"
         id="path14" />
    </clipPath>
    <clipPath
       id="clipPath119">
      <path
         transform="translate(-137.71,-209.84)"
         d="M 0,500 H 500 V 0 H 0 Z"
         id="path15" />
    </clipPath>
    <clipPath
       id="clipPath129">
      <path
         transform="translate(-236.42,-151.01)"
         d="M 0,500 H 500 V 0 H 0 Z"
         id="path16" />
    </clipPath>
    <clipPath
       id="clipPath131">
      <path
         transform="translate(-202.94,-202.68)"
         d="M 0,500 H 500 V 0 H 0 Z"
         id="path17" />
    </clipPath>
    <clipPath
       id="clipPath133">
      <path
         transform="translate(-160.21,-265.2)"
         d="M 0,500 H 500 V 0 H 0 Z"
         id="path18" />
    </clipPath>
    <clipPath
       id="clipPath135">
      <path
         transform="translate(-183.11,-198.59)"
         d="M 0,500 H 500 V 0 H 0 Z"
         id="path19" />
    </clipPath>
    <clipPath
       id="clipPath137">
      <path
         transform="translate(-195.22,-226.95)"
         d="M 0,500 H 500 V 0 H 0 Z"
         id="path20" />
    </clipPath>
    <clipPath
       id="clipPath139">
      <path
         transform="translate(-215.88,-118.15)"
         d="M 0,500 H 500 V 0 H 0 Z"
         id="path21" />
    </clipPath>
    <clipPath
       id="clipPath141">
      <path
         transform="translate(-226.25,-89.798)"
         d="M 0,500 H 500 V 0 H 0 Z"
         id="path22" />
    </clipPath>
    <clipPath
       id="clipPath143">
      <path
         transform="translate(-203.41,-219.05)"
         d="M 0,500 H 500 V 0 H 0 Z"
         id="path23" />
    </clipPath>
    <clipPath
       id="clipPath145">
      <path
         transform="translate(-208.53,-101.49)"
         d="M 0,500 H 500 V 0 H 0 Z"
         id="path24" />
    </clipPath>
    <clipPath
       id="clipPath147">
      <path
         transform="translate(-430.62,-178.84)"
         d="M 0,500 H 500 V 0 H 0 Z"
         id="path25" />
    </clipPath>
    <clipPath
       id="clipPath149">
      <path
         transform="translate(-316.45,-180.05)"
         d="M 0,500 H 500 V 0 H 0 Z"
         id="path26" />
    </clipPath>
    <clipPath
       id="clipPath151">
      <path
         transform="translate(-343.41,-140.6)"
         d="M 0,500 H 500 V 0 H 0 Z"
         id="path27" />
    </clipPath>
    <clipPath
       id="clipPath153">
      <path
         transform="translate(-210.82,-260.27)"
         d="M 0,500 H 500 V 0 H 0 Z"
         id="path28" />
    </clipPath>
    <clipPath
       id="clipPath155">
      <path
         transform="translate(-233.39,-285.7)"
         d="M 0,500 H 500 V 0 H 0 Z"
         id="path29" />
    </clipPath>
    <clipPath
       id="clipPath157">
      <path
         transform="translate(-227.11,-277.2)"
         d="M 0,500 H 500 V 0 H 0 Z"
         id="path30" />
    </clipPath>
    <clipPath
       id="clipPath159">
      <path
         transform="translate(-227.11,-277.2)"
         d="M 0,500 H 500 V 0 H 0 Z"
         id="path31" />
    </clipPath>
    <clipPath
       id="clipPath161">
      <path
         transform="translate(-230.59,-293.58)"
         d="M 0,500 H 500 V 0 H 0 Z"
         id="path32" />
    </clipPath>
    <clipPath
       id="clipPath163">
      <path
         transform="translate(-233.39,-285.7)"
         d="M 0,500 H 500 V 0 H 0 Z"
         id="path33" />
    </clipPath>
    <clipPath
       id="clipPath165">
      <path
         transform="translate(-182.24,-269.39)"
         d="M 0,500 H 500 V 0 H 0 Z"
         id="path34" />
    </clipPath>
    <clipPath
       id="clipPath167">
      <path
         transform="translate(-212.78,-269.57)"
         d="M 0,500 H 500 V 0 H 0 Z"
         id="path35" />
    </clipPath>
    <clipPath
       id="clipPath169">
      <path
         transform="translate(-208.17,-255.03)"
         d="M 0,500 H 500 V 0 H 0 Z"
         id="path36" />
    </clipPath>
    <clipPath
       id="clipPath171">
      <path
         transform="translate(-193.1,-259.47)"
         d="M 0,500 H 500 V 0 H 0 Z"
         id="path37" />
    </clipPath>
    <clipPath
       id="clipPath173">
      <path
         transform="translate(-217.15,-260.82)"
         d="M 0,500 H 500 V 0 H 0 Z"
         id="path38" />
    </clipPath>
    <clipPath
       id="clipPath175">
      <path
         transform="translate(-205.89,-242.58)"
         d="M 0,500 H 500 V 0 H 0 Z"
         id="path39" />
    </clipPath>
    <clipPath
       id="clipPath177">
      <path
         transform="translate(-205.89,-242.58)"
         d="M 0,500 H 500 V 0 H 0 Z"
         id="path40" />
    </clipPath>
    <clipPath
       id="clipPath179">
      <path
         transform="translate(-199.4,-236.71)"
         d="M 0,500 H 500 V 0 H 0 Z"
         id="path41" />
    </clipPath>
    <clipPath
       id="clipPath181">
      <path
         transform="translate(-163.65,-273.98)"
         d="M 0,500 H 500 V 0 H 0 Z"
         id="path42" />
    </clipPath>
    <clipPath
       id="clipPath183">
      <path
         transform="translate(-159.6,-277.95)"
         d="M 0,500 H 500 V 0 H 0 Z"
         id="path43" />
    </clipPath>
    <clipPath
       id="clipPath185">
      <path
         transform="translate(-156.23,-272.06)"
         d="M 0,500 H 500 V 0 H 0 Z"
         id="path44" />
    </clipPath>
    <clipPath
       id="clipPath187">
      <path
         transform="translate(-201.38,-235.09)"
         d="M 0,500 H 500 V 0 H 0 Z"
         id="path45" />
    </clipPath>
    <clipPath
       id="clipPath189">
      <path
         transform="translate(-169.03,-244.49)"
         d="M 0,500 H 500 V 0 H 0 Z"
         id="path46" />
    </clipPath>
    <clipPath
       id="clipPath191">
      <path
         transform="translate(-208.44,-124.64)"
         d="M 0,500 H 500 V 0 H 0 Z"
         id="path47" />
    </clipPath>
    <clipPath
       id="clipPath193">
      <path
         transform="translate(-157.67,-132.49)"
         d="M 0,500 H 500 V 0 H 0 Z"
         id="path48" />
    </clipPath>
    <clipPath
       id="clipPath195">
      <path
         transform="translate(-206.79,-124.48)"
         d="M 0,500 H 500 V 0 H 0 Z"
         id="path49" />
    </clipPath>
    <clipPath
       id="clipPath197">
      <path
         transform="translate(-233.81,-104.18)"
         d="M 0,500 H 500 V 0 H 0 Z"
         id="path50" />
    </clipPath>
    <clipPath
       id="clipPath199">
      <path
         transform="translate(-152.69,-198.63)"
         d="M 0,500 H 500 V 0 H 0 Z"
         id="path51" />
    </clipPath>
    <clipPath
       id="clipPath201">
      <path
         transform="translate(-154.44,-195.73)"
         d="M 0,500 H 500 V 0 H 0 Z"
         id="path52" />
    </clipPath>
    <clipPath
       id="clipPath203">
      <path
         d="M 0,500 H 500 V 0 H 0 Z"
         id="path53" />
    </clipPath>
  </defs>
  <path
     transform="matrix(1.3333,0,0,-1.3333,351.77405,97.62633)"
     d="m 0,0 v 17 c 0,4.64 3.76,8.4 8.4,8.4 h 53.56 c 4.64,0 8.4,-3.76 8.4,-8.4 V 0 c 0,-4.64 -3.76,-8.4 -8.4,-8.4 H 8.41 C 3.77,-8.41 0,-4.64 0,0"
     clip-path="url(#clipPath19)"
     style="fill:#ffffff"
     id="path55" />
  <path
     transform="matrix(1.3333,0,0,-1.3333,381.93405,96.43633)"
     d="M 0,0 -25.92,-25.25 16.09,-4.02"
     clip-path="url(#clipPath21)"
     style="fill:#ffffff"
     id="path56" />
  <path
     transform="matrix(1.3333,0,0,-1.3333,360.43405,74.39633)"
     d="m 0,0 v 0.09 c 0,0.69 0.56,1.25 1.25,1.25 h 26.48 c 0.69,0 1.25,-0.56 1.25,-1.25 V 0 c 0,-0.69 -0.56,-1.25 -1.25,-1.25 H 1.25 C 0.56,-1.25 0,-0.69 0,0"
     clip-path="url(#clipPath23)"
     style="fill:#f37979"
     id="path57" />
  <path
     transform="matrix(1.3333,0,0,-1.3333,400.66405,74.39633)"
     d="m 0,0 v 0.09 c 0,0.69 0.56,1.25 1.25,1.25 h 23.11 c 0.69,0 1.25,-0.56 1.25,-1.25 V 0 c 0,-0.69 -0.56,-1.25 -1.25,-1.25 H 1.25 C 0.56,-1.25 0,-0.69 0,0"
     clip-path="url(#clipPath25)"
     style="fill:#f37979"
     id="path58" />
  <path
     transform="matrix(1.3333,0,0,-1.3333,387.21405,81.98633)"
     d="m 0,0 v 0.09 c 0,0.69 0.56,1.25 1.25,1.25 h 33.2 c 0.69,0 1.25,-0.56 1.25,-1.25 V 0 c 0,-0.69 -0.56,-1.25 -1.25,-1.25 H 1.25 C 0.56,-1.25 0,-0.69 0,0"
     clip-path="url(#clipPath27)"
     style="fill:#f37979"
     id="path59" />
  <path
     transform="matrix(1.3333,0,0,-1.3333,360.43405,81.98633)"
     d="m 0,0 v 0.09 c 0,0.69 0.56,1.25 1.25,1.25 h 14.83 c 0.69,0 1.25,-0.56 1.25,-1.25 V 0 c 0,-0.69 -0.56,-1.25 -1.25,-1.25 H 1.25 C 0.56,-1.25 0,-0.69 0,0"
     clip-path="url(#clipPath29)"
     style="fill:#f37979"
     id="path60" />
  <path
     transform="matrix(1.3333,0,0,-1.3333,393.35405,89.56633)"
     d="m 0,0 v 0.09 c 0,0.69 0.56,1.25 1.25,1.25 h 28.59 c 0.69,0 1.25,-0.56 1.25,-1.25 V 0 c 0,-0.69 -0.56,-1.25 -1.25,-1.25 H 1.25 C 0.56,-1.25 0,-0.69 0,0"
     clip-path="url(#clipPath31)"
     style="fill:#f37979"
     id="path61" />
  <path
     transform="matrix(1.3333,0,0,-1.3333,360.43405,89.56633)"
     d="M 0,0 V 0.09 C 0,0.78 0.56,1.34 1.25,1.34 H 21 c 0.69,0 1.25,-0.56 1.25,-1.25 V 0 c 0,-0.69 -0.56,-1.25 -1.25,-1.25 H 1.25 C 0.56,-1.25 0,-0.69 0,0"
     clip-path="url(#clipPath33)"
     style="fill:#f37979"
     id="path62" />
  <path
     transform="matrix(1.3333,0,0,-1.3333,360.43405,97.15633)"
     d="m 0,0 v 0.09 c 0,0.69 0.56,1.25 1.25,1.25 h 7.33 c 0.69,0 1.25,-0.56 1.25,-1.25 V 0 c 0,-0.69 -0.56,-1.25 -1.25,-1.25 H 1.25 C 0.56,-1.25 0,-0.69 0,0"
     clip-path="url(#clipPath35)"
     style="fill:#f37979"
     id="path63" />
  <path
     transform="matrix(1.3333,0,0,-1.3333,376.99405,97.15633)"
     d="m 0,0 v 0.09 c 0,0.69 0.56,1.25 1.25,1.25 h 40.86 c 0.69,0 1.25,-0.56 1.25,-1.25 V 0 c 0,-0.69 -0.56,-1.25 -1.25,-1.25 H 1.25 C 0.56,-1.25 0,-0.69 0,0"
     clip-path="url(#clipPath37)"
     style="fill:#f37979"
     id="path64" />
  <path
     transform="matrix(1.3333,0,0,-1.3333,417.18405,268.31633)"
     d="M 0,0 C -19.44,-12.16 -40.41,-21.14 -62.03,-26.54"
     clip-path="url(#clipPath71)"
     style="fill:none;stroke:#6f8bbf icc-color(sRGB-IEC61966-2, 0.1, 0.43499756, 0.54499817, 0.74899292);stroke-linecap:round;stroke-miterlimit:10"
     id="path65" />
  <path
     transform="matrix(1.3333,0,0,-1.3333,162.17405,250.69633)"
     d="M 0,0 C -3.866,23.377 4.127,48.153 21.01,65.083 22.952,40.898 15.553,16.261 0,0"
     clip-path="url(#clipPath113)"
     style="fill:#a2c7eb icc-color(sRGB-IEC61966-2, 0.1, 0.63499451, 0.77999878, 0.92199707)"
     id="path67" />
  <path
     transform="matrix(1.3333,0,0,-1.3333,185.23405,176.57633)"
     d="M 0,0 C -1.98,-19.798 -8.098,-39.148 -17.872,-56.577"
     clip-path="url(#clipPath119)"
     style="fill:none;stroke:#6f8bbf icc-color(sRGB-IEC61966-2, 0.1, 0.43499756, 0.54499817, 0.74899292);stroke-linecap:round;stroke-miterlimit:10"
     id="path68" />
  <path
     transform="matrix(1.3333,0,0,-1.3333,316.85405,255.00633)"
     d="m 0,0 c 0,0 2.19,-20.07 4.64,-21.68 4.38,-2.89 55.08,-9.57 55.08,-9.57 l -1.66,-13.19 c 0,0 -69.44,-6.24 -72.39,-2.77 -5.12,6.02 -14.12,35.06 -14.12,35.06 z"
     clip-path="url(#clipPath129)"
     style="fill:#e06a58 icc-color(sRGB-IEC61966-2, 0.1, 0.87799072, 0.41598511, 0.34498596)"
     id="path69" />
  <path
     transform="matrix(1.3333,0,0,-1.3333,272.21405,186.11633)"
     d="m 0,0 5.61,13.47 c 0,0 15.22,-7.15 20.24,-15.98 5.37,-9.44 11.94,-59.63 11.94,-59.63 0,0 -26.87,-6.19 -31.81,-3.56 C 1.04,-63.07 0,0 0,0"
     clip-path="url(#clipPath131)"
     style="fill:#f37979"
     id="path70" />
  <path
     transform="matrix(1.3333,0,0,-1.3333,215.23405,102.75633)"
     d="m 0,0 c -3.93,1.44 -8.09,2.7 -12.3,2.38 -4.21,-0.32 -8.51,-2.55 -9.94,-6.25 -1.02,-2.62 -0.55,-5.71 -2.16,-8.07 -1.54,-2.26 -4.6,-3.2 -7.46,-3.39 -2.87,-0.2 -5.76,0.18 -8.61,-0.19 -8.8,-1.17 -15.08,-10.73 -12.19,-18.56 1.15,-3.12 3.51,-6.1 2.97,-9.35 -0.57,-3.48 -4.22,-5.77 -5.72,-9 -1.99,-4.3 0.39,-9.51 4.32,-12.44 3.93,-2.92 9.04,-4.03 14,-4.77 6.83,-1.02 13.88,-1.5 20.63,-0.06 6.75,1.44 13.2,5 16.69,10.56 1.55,2.46 2.49,5.24 4.29,7.55 3.72,4.77 10.31,6.62 15.5,10 5.67,3.71 9.83,10.93 6.49,16.58 -3.22,5.43 -11.6,6.64 -14.96,11.99 -1.39,2.21 -1.72,4.84 -2.62,7.25 C 8.01,-3.35 5.81,-2.13 0,0"
     clip-path="url(#clipPath133)"
     style="fill:#000000"
     id="path71" />
  <path
     transform="matrix(1.3333,0,0,-1.3333,245.77405,191.56633)"
     d="m 0,0 c 0.99,-1.14 2.16,-2.39 3.78,-2.5 1.71,-0.12 3.14,1.09 4.24,2.26 5.68,6.01 9.43,13.39 10.95,21 -1.41,0.8 -2.77,1.57 -4,2.29 -1.14,0.68 -2,1.63 -2.49,2.74 -0.34,0.82 -0.46,1.68 -0.37,2.58 0.8,7.52 1.51,11.71 4.15,19.34 -12.54,2.83 -24.37,6.19 -31.17,11.87 -0.83,-3.5 -1.81,-10.35 -3.9,-17.14 -2.23,-7.19 -5.71,-14.3 -11.61,-17.36 C -18.84,18.24 -8.51,9.74 0,0"
     clip-path="url(#clipPath135)"
     style="fill:#f9a07b icc-color(sRGB-IEC61966-2, 0.1, 0.97599792, 0.6269989, 0.48199463)"
     id="path72" />
  <path
     transform="matrix(1.3333,0,0,-1.3333,261.91405,153.75633)"
     d="m 0,0 c -0.09,-0.9 0.03,-1.77 0.37,-2.58 -7.42,-9 -24.01,2.76 -31.29,16.65 2.09,6.79 3.07,13.64 3.9,17.14 C -20.23,25.53 -8.39,22.16 4.15,19.34 1.51,11.71 0.8,7.53 0,0"
     clip-path="url(#clipPath137)"
     style="fill:#e06a58 icc-color(sRGB-IEC61966-2, 0.1, 0.87799072, 0.41598511, 0.34498596)"
     id="path73" />
  <path
     transform="matrix(1.3333,0,0,-1.3333,289.46405,298.82633)"
     d="m 0,0 c -1.64,-10.86 10.08,-22.55 10.37,-28.35 -24.89,0 -77.03,-1.52 -103.58,2.09 -1.21,6.7 11.9,21.77 11.9,36.65 0,1.97 -0.08,4.13 -0.24,6.45 -0.42,6.64 -1.4,14.54 -2.49,22.64 -2.96,21.73 -6.9,44.97 -3.99,49.79 5.7,9.39 19.03,15.77 25.64,18.51 2.27,0.94 3.75,1.45 3.86,1.51 8.29,-14.14 25.16,-26.2 31.53,-25.66 1.77,0.14 7.02,1.97 10.49,19.44 1.35,-0.77 2.7,-1.48 4.04,-2.17 C -5.88,97.47 0.3,94.64 2.08,90.23 6.78,78.62 11.39,49.35 10.37,38.94 9.34,28.44 5.12,20.42 2.16,9.88 1.47,7.41 0.84,4.79 0.33,1.97 0.2,1.34 0.1,0.68 0,0"
     clip-path="url(#clipPath139)"
     style="fill:#f37979"
     id="path74" />
  <path
     transform="matrix(1.3333,0,0,-1.3333,303.29405,336.62633)"
     d="m 0,0 c -24.89,0 -77.03,-1.52 -103.58,2.09 -1.21,6.7 11.9,21.77 11.9,36.65 0,1.97 -0.08,4.13 -0.24,6.45 -0.42,6.64 -1.4,14.54 -2.49,22.64 4.71,-4.97 11.58,16.03 14.62,9.88 16.45,-33.2 29.42,-41.93 51.96,-41.93 6.72,0 12.92,0.93 19.62,2.45 -0.69,-2.47 -1.32,-5.09 -1.83,-7.91 -0.12,-0.64 -0.23,-1.3 -0.33,-1.98 C -12.01,17.5 -0.29,5.81 0,0"
     clip-path="url(#clipPath141)"
     style="fill:#f37979"
     id="path75" />
  <path
     transform="matrix(1.3333,0,0,-1.3333,272.83405,164.28633)"
     d="m 0,0 c -1.07,-7.77 -4.24,-18.24 -13.46,-21 -12.46,-3.73 -30.49,19.55 -36.46,27.88 2.27,0.94 3.75,1.45 3.86,1.51 8.29,-14.14 25.16,-26.2 31.53,-25.66 1.77,0.14 7.02,1.97 10.49,19.44 C -2.69,1.41 -1.34,0.7 0,0"
     clip-path="url(#clipPath143)"
     style="fill:#ffffff"
     id="path76" />
  <path
     transform="matrix(1.3333,0,0,-1.3333,279.66405,321.03633)"
     d="m 0,0 -0.09,-8.67 155,-0.92 0.32,9.83 z"
     clip-path="url(#clipPath145)"
     style="fill:#4d4d4d"
     id="path77" />
  <path
     transform="matrix(1.3333,0,0,-1.3333,575.78405,217.90633)"
     d="m 0,0 -3.45,3.5 -112.9,0.74 -56.64,-81.91 2.96,-2.38 z"
     clip-path="url(#clipPath147)"
     style="fill:#b9b7b7"
     id="path78" />
  <path
     transform="matrix(1.3333,0,0,-1.3333,423.55405,216.28633)"
     d="m 0,0 -55.86,-81.26 106.7,-0.53 63.33,80.58 z"
     clip-path="url(#clipPath149)"
     style="fill:#4d4d4d"
     id="path79" />
  <path
     transform="matrix(1.3333,0,0,-1.3333,459.50405,268.88633)"
     d="m 0,0 c 6.859,0 12.42,-2.78 12.42,-6.21 0,-3.43 -5.561,-6.21 -12.42,-6.21 -6.859,0 -12.42,2.78 -12.42,6.21 C -12.42,-2.78 -6.859,0 0,0"
     clip-path="url(#clipPath151)"
     style="fill:#b9b7b7"
     id="path80" />
  <path
     transform="matrix(1.3333,0,0,-1.3333,282.72405,109.33633)"
     d="M 0,0 C 1.759,9.442 8.234,16.155 14.462,14.995 20.69,13.834 24.312,5.239 22.552,-4.203 20.793,-13.645 14.318,-20.358 8.09,-19.197 1.863,-18.037 -1.76,-9.442 0,0"
     clip-path="url(#clipPath153)"
     style="fill:#b9b7b7"
     id="path81" />
  <path
     transform="matrix(1.3333,0,0,-1.3333,312.81405,75.42633)"
     d="m 0,0 c -1.16,-8.22 -4.83,-17.28 -10.18,-27.29 -1.88,8.2 -3.08,18.19 -4.74,28.18 -1.69,10.01 -3.84,20.02 -7.57,28.2 -0.84,1.81 -1.75,3.54 -2.74,5.14 2.21,0.21 4.45,0 6.58,-0.59 3.33,-0.89 6.45,-2.61 9,-4.91 4.24,-3.77 7.08,-8.91 8.77,-14.33 C 0.51,9.9 0.76,5.12 0,0"
     clip-path="url(#clipPath155)"
     style="fill:#000000"
     id="path82" />
  <path
     transform="matrix(1.3333,0,0,-1.3333,304.43405,86.75633)"
     d="m 0,0 c -0.06,-1.62 -0.17,-3.27 -0.32,-4.91 -2.28,-26.6 -13.45,-44.85 -30.54,-44.85 -24.13,0 -39.77,27.06 -39.77,53.57 0,26.15 16.02,45.08 34.77,42.89 10.81,-1.24 18.71,-4.83 24.32,-10.09 3.71,-3.5 6.39,-7.73 8.22,-12.54 2.09,-5.39 3.1,-11.49 3.31,-18.06 0,-0.02 0.02,-0.04 0.02,-0.06 C 0.09,4.01 0.07,2.03 0,0"
     clip-path="url(#clipPath157)"
     style="fill:#f9a07b icc-color(sRGB-IEC61966-2, 0.1, 0.97599792, 0.6269989, 0.48199463)"
     id="path83" />
  <path
     transform="matrix(1.3333,0,0,-1.3333,304.43405,86.75633)"
     d="m 0,0 c -0.72,2.57 -1.79,5.08 -3.25,7.33 -14.23,-7.44 -31.19,-10.31 -47.27,-7.59 -3.06,-2.55 -6.05,-5.06 -9.06,-7.57 0.06,12.1 0.23,20.29 4.95,26.15 4.43,5.5 11.82,7.57 18.82,8.47 7.88,1.03 15.89,0.99 23.75,-0.15 3.01,-0.42 6.13,-1.07 8.75,-2.59 C -1.22,18.66 -0.21,12.56 0,5.99 0,5.97 0.02,5.95 0.02,5.93 0.09,4.01 0.07,2.03 0,0"
     clip-path="url(#clipPath159)"
     style="fill:#e06a58 icc-color(sRGB-IEC61966-2, 0.1, 0.87799072, 0.41598511, 0.34498596)"
     id="path84" />
  <path
     transform="matrix(1.3333,0,0,-1.3333,309.07405,64.91633)"
     d="m 0,0 c -3.31,-2.8 -7.46,-5.12 -12.12,-7 -13.26,-5.35 -30.49,-7.12 -43.92,-6.47 -6.6,-14.5 -9.27,-19.7 -10.96,-32.35 -6.45,6.05 -11.7,17.13 -13.26,25.84 -1.54,8.68 -1.39,17.79 1.03,26.32 3.81,13.45 13.42,20.65 20.08,24.15 1.66,0.91 3.16,1.54 4.32,2 8.51,3.29 18.1,2.99 26.83,0.32 4.76,-1.48 8.77,-3.98 12.14,-7.06 C -9.05,19.6 -4.84,11.27 -2.12,5.03 -1.26,3.12 -0.57,1.39 0,0"
     clip-path="url(#clipPath161)"
     style="fill:#000000"
     id="path85" />
  <path
     transform="matrix(1.3333,0,0,-1.3333,312.81405,75.42633)"
     d="m 0,0 c -0.55,2.91 -1.37,5.73 -2.53,8.45 -0.65,1.54 -1.45,3.03 -2.38,4.47 -3.03,4.76 -7.44,8.68 -12.77,10.41 -1.52,2.13 -3.12,4.05 -4.8,5.75 -6.05,6.15 -13.15,9.67 -20.67,10.9 -6.26,1.01 -12.77,0.44 -18.78,-1.6 1.66,0.91 3.16,1.54 4.32,2 8.51,3.29 18.1,2.99 26.83,0.32 4.76,-1.48 8.77,-3.98 12.14,-7.06 3.33,-0.89 6.45,-2.61 9,-4.91 C -5.4,24.96 -2.56,19.82 -0.87,14.4 0.51,9.9 0.76,5.12 0,0"
     clip-path="url(#clipPath163)"
     style="fill:#2f2f2f"
     id="path86" />
  <path
     transform="matrix(1.3333,0,0,-1.3333,244.61405,97.16633)"
     d="M 0,0 C 4.46,2.55 9.09,3.7 15.58,1.33"
     clip-path="url(#clipPath165)"
     style="fill:none;stroke:#000000;stroke-width:2;stroke-linecap:round;stroke-miterlimit:10"
     id="path87" />
  <path
     transform="matrix(1.3333,0,0,-1.3333,285.33405,96.92633)"
     d="M 0,0 C 3.82,2.85 9.48,3.14 12.43,0"
     clip-path="url(#clipPath167)"
     style="fill:none;stroke:#000000;stroke-width:2;stroke-linecap:round;stroke-miterlimit:10"
     id="path88" />
  <path
     transform="matrix(1.3333,0,0,-1.3333,279.18405,116.31633)"
     d="M 0,0 C 0.39,-2.02 0.18,-6.49 -0.78,-8.5"
     clip-path="url(#clipPath169)"
     style="fill:none;stroke:#cc454e icc-color(sRGB-IEC61966-2, 0.1, 0.79998779, 0.27099609, 0.30599976);stroke-width:2;stroke-linecap:round;stroke-miterlimit:10"
     id="path89" />
  <path
     transform="matrix(1.3333,0,0,-1.3333,259.09405,110.39633)"
     d="m 0,0 c 1.016,0 1.84,-1.298 1.84,-2.9 0,-1.602 -0.824,-2.9 -1.84,-2.9 -1.016,0 -1.84,1.298 -1.84,2.9 0,1.602 0.824,2.9 1.84,2.9"
     clip-path="url(#clipPath171)"
     style="fill:#000000"
     id="path90" />
  <path
     transform="matrix(1.3333,0,0,-1.3333,291.15405,108.59633)"
     d="m 0,0 c 1.016,0 1.84,-1.298 1.84,-2.9 0,-1.602 -0.824,-2.9 -1.84,-2.9 -1.016,0 -1.84,1.298 -1.84,2.9 0,1.602 0.824,2.9 1.84,2.9"
     clip-path="url(#clipPath173)"
     style="fill:#000000"
     id="path91" />
  <path
     transform="matrix(1.3333,0,0,-1.3333,276.14405,132.91633)"
     d="M 0,0 C 0,0 -0.36,-0.7 -1.05,-1.65 -2.13,-3.1 -3.97,-5.1 -6.48,-5.88 h -0.01 c -1.06,-0.34 -2.21,-0.46 -3.49,-0.23 -3.76,0.67 -4.75,4.14 -4.93,6.81 -0.04,0.52 -0.04,1 -0.03,1.44 0.02,1.08 0.14,1.8 0.14,1.8 C -8.81,0.64 0,0 0,0"
     clip-path="url(#clipPath175)"
     style="fill:#cc454e icc-color(sRGB-IEC61966-2, 0.1, 0.79998779, 0.27099609, 0.30599976)"
     id="path92" />
  <path
     transform="matrix(1.3333,0,0,-1.3333,276.14405,132.91633)"
     d="m 0,0 c 0,0 -0.36,-0.7 -1.05,-1.65 -3.06,0.04 -9.32,1.61 -13.89,3.79 0.02,1.08 0.14,1.8 0.14,1.8 C -8.81,0.64 0,0 0,0"
     clip-path="url(#clipPath177)"
     style="fill:#ffffff icc-color(sRGB-IEC61966-2, 0.1, 1, 1, 1)"
     id="path93" />
  <path
     transform="matrix(1.3333,0,0,-1.3333,267.49405,140.74633)"
     d="M 0,0 C -1.06,-0.34 -2.21,-0.46 -3.49,-0.23 -7.25,0.44 -8.24,3.91 -8.42,6.58 -6.6,6.36 -4.84,5.66 -3.38,4.55 -1.85,3.38 -0.68,1.79 0,0"
     clip-path="url(#clipPath179)"
     style="fill:#e8729b icc-color(sRGB-IEC61966-2, 0.1, 0.9099884, 0.44699097, 0.60798645)"
     id="path94" />
  <path
     transform="matrix(1.3333,0,0,-1.3333,219.82405,91.04633)"
     d="m 0,0 c 0,0 -0.21,12.47 4.98,24.86 6.51,15.55 19.78,22.2 32.65,22.65 15.51,0.55 25.22,-9.86 25.22,-9.86 0,0 -5.05,8.91 -15.01,11.47 C 41.3,50.8 31.43,51.07 23.51,47.85 15.35,44.54 5.18,35.35 1.5,25.64 -2.17,15.93 -3.96,0.81 -3.96,0.81 Z"
     clip-path="url(#clipPath181)"
     style="fill:#b9b7b7"
     id="path95" />
  <path
     transform="matrix(1.3333,0,0,-1.3333,214.42405,85.74633)"
     d="M 0,0 C 6.641,0.69 12.873,-6.908 13.919,-16.971 14.965,-27.034 10.43,-35.752 3.789,-36.442 -2.852,-37.133 -9.084,-29.534 -10.13,-19.471 -11.177,-9.408 -6.641,-0.69 0,0"
     clip-path="url(#clipPath183)"
     style="fill:#b9b7b7"
     id="path96" />
  <path
     transform="matrix(1.3333,0,0,-1.3333,209.93405,93.60633)"
     d="m 0,0 c 4.287,0.644 8.682,-4.948 9.815,-12.49 1.133,-7.543 -1.423,-14.179 -5.711,-14.823 -4.287,-0.645 -8.681,4.947 -9.815,12.49 C -6.844,-7.281 -4.287,-0.644 0,0"
     clip-path="url(#clipPath185)"
     style="fill:#4d4d4d"
     id="path97" />
  <path
     transform="matrix(1.3333,0,0,-1.3333,270.13405,142.90633)"
     d="m 0,0 c 3.557,0 6.44,-1.795 6.44,-4.01 0,-2.215 -2.883,-4.01 -6.44,-4.01 -3.557,0 -6.44,1.795 -6.44,4.01 C -6.44,-1.795 -3.557,0 0,0"
     clip-path="url(#clipPath187)"
     style="fill:#4d4d4d"
     id="path98" />
  <path
     transform="matrix(1.3333,0,0,-1.3333,226.99405,130.36633)"
     d="M 0,0 C 0,0 9.46,-12.16 25.91,-13.41"
     clip-path="url(#clipPath189)"
     style="fill:none;stroke:#4d4d4d;stroke-width:2;stroke-linecap:round;stroke-miterlimit:10"
     id="path99" />
  <path
     transform="matrix(1.3333,0,0,-1.3333,279.54405,290.16633)"
     d="m 0,0 -0.62,-15.99 c 0,0 -57.83,-17.33 -67.38,-11.85 -4.66,2.68 -9.01,17.42 -12.26,31.81 -3.4,15.12 -5.58,29.84 -5.58,29.84 l 33.9,6.64 c 0,0 0.02,-20.67 1.17,-32.62 0.41,-4.45 1,-7.69 1.79,-8.22 C -45.99,-2.36 0,0 0,0"
     clip-path="url(#clipPath191)"
     style="fill:#f9a07b icc-color(sRGB-IEC61966-2, 0.1, 0.97599792, 0.6269989, 0.48199463)"
     id="path100" />
  <path
     transform="matrix(1.3333,0,0,-1.3333,211.85405,279.70633)"
     d="m 0,0 c -6.16,-2 -18.05,-5.09 -29.49,-3.87 -3.4,15.12 -5.58,29.84 -5.58,29.84 l 33.9,6.64 C -1.17,32.62 -1.15,11.95 0,0"
     clip-path="url(#clipPath193)"
     style="fill:#e06a58 icc-color(sRGB-IEC61966-2, 0.1, 0.87799072, 0.41598511, 0.34498596)"
     id="path101" />
  <path
     transform="matrix(1.3333,0,0,-1.3333,277.34405,290.38633)"
     d="m 0,0 c 8.6,1.84 23.16,6.26 29.2,7.78 4.29,1.08 15.46,-4.7 18.41,-10.15 1.29,-2.38 2.51,-15.86 -1.96,-14.47 -2.24,0.7 -1.87,6.48 -2.57,8.84 -0.57,1.92 -2.39,3.78 -5.16,5.38 1.85,-4.61 1.78,-8.63 1.58,-13.61 -0.04,-1.1 -0.11,-2.25 -0.64,-3.2 -0.54,-0.95 -1.7,-1.63 -2.7,-1.21 -1.02,0.42 -1.37,1.69 -1.6,2.8 -0.79,3.84 -1.59,7.68 -1.91,12.02 0.08,-4.27 -0.01,-8.55 -0.28,-12.81 -0.2,-3.26 -1.82,-5.05 -3.81,-4.48 -0.89,0.25 -1.25,1.07 -1.63,2.15 -0.6,-2.09 -2.1,-4.4 -4.04,-3.52 -1.18,0.53 -1.91,4.79 -1.7,9.17 -3.72,-2.31 -7.92,-3.29 -12.76,-3.51 -4.34,-0.2 -8.78,0.61 -11.39,3.56 C -2.7,-10.65 -1.18,-3.83 0,0"
     clip-path="url(#clipPath195)"
     style="fill:#f9a07b icc-color(sRGB-IEC61966-2, 0.1, 0.97599792, 0.6269989, 0.48199463)"
     id="path102" />
  <path
     transform="matrix(1.3333,0,0,-1.3333,313.37405,317.44633)"
     d="M 0,0 C 0.29,3.46 -0.01,6.97 -0.89,10.31"
     clip-path="url(#clipPath197)"
     style="fill:none;stroke:#cc454e icc-color(sRGB-IEC61966-2, 0.1, 0.79998779, 0.27099609, 0.30599976);stroke-linecap:round;stroke-miterlimit:10"
     id="path103" />
  <path
     transform="matrix(1.3333,0,0,-1.3333,205.21405,191.51633)"
     d="m 0,0 c -2.46,6.93 -11.47,21.11 -11.47,21.11 0,0 -13.75,-5.72 -18.63,-15.43 -8.26,-16.44 -4.06,-63.64 -4.06,-63.64 11.13,-4.66 33.47,-4.73 42.98,-3.39 0,0 -3.89,47.5 -8.82,61.35"
     clip-path="url(#clipPath199)"
     style="fill:#f37979"
     id="path104" />
  <path
     transform="matrix(1.3333,0,0,-1.3333,207.54405,195.38633)"
     d="M 0,0 C 3.75,-17.95 5.76,-34.69 6.4,-51.09"
     clip-path="url(#clipPath201)"
     style="fill:none;stroke:#f9a07b;stroke-linecap:round;stroke-miterlimit:10"
     id="path105" />
  <path
     transform="matrix(1.3333,0,0,-1.3333,1.6240437,456.35633)"
     d="m 54.46,94.748 h 394.28 v -9.89 H 54.46 Z"
     clip-path="url(#clipPath203)"
     style="fill:#4d4d4d"
     id="path106" />
</svg>
