<?xml version="1.0" encoding="UTF-8"?>
<!-- Created with Inkscape (http://www.inkscape.org/) -->
<svg id="svg2" width="500" height="500" version="1.1" viewBox="0 0 666.67 666.67" xmlns="http://www.w3.org/2000/svg" xmlns:xlink="http://www.w3.org/1999/xlink">
 <defs>
  <clipPath id="clipPath2">
   <path transform="translate(-411.04 -388.15)" d="m0 500h500v-500h-500z"/>
  </clipPath>
  <clipPath>
   <path transform="matrix(1.3333 0 0 -1.3333 0 666.67)" d="m0 500h500v-500h-500z"/>
  </clipPath>
  <clipPath id="clipPath7">
   <path transform="translate(-353.83 -348.09)" d="m0 500h500v-500h-500z"/>
  </clipPath>
  <clipPath id="clipPath9">
   <path transform="translate(-362.59 -356.36)" d="m0 500h500v-500h-500z"/>
  </clipPath>
  <clipPath id="clipPath11">
   <path transform="translate(-345.5 -303.57)" d="m0 500h500v-500h-500z"/>
  </clipPath>
  <clipPath id="clipPath13">
   <path transform="translate(-348.03 -303.21)" d="m0 500h500v-500h-500z"/>
  </clipPath>
  <clipPath id="clipPath15">
   <path transform="translate(-355.44 -300.91)" d="m0 500h500v-500h-500z"/>
  </clipPath>
  <clipPath id="clipPath17">
   <path transform="translate(-97.089 -291.31)" d="m0 500h500v-500h-500z"/>
  </clipPath>
  <clipPath id="clipPath19">
   <path transform="translate(-89.706 -292.78)" d="m0 500h500v-500h-500z"/>
  </clipPath>
  <clipPath id="clipPath21">
   <path transform="translate(-122.78 -303.2)" d="m0 500h500v-500h-500z"/>
  </clipPath>
  <clipPath id="clipPath23">
   <path transform="translate(-122.04 -304.62)" d="m0 500h500v-500h-500z"/>
  </clipPath>
  <clipPath id="clipPath25">
   <path transform="translate(-120.53 -309.22)" d="m0 500h500v-500h-500z"/>
  </clipPath>
  <clipPath id="clipPath27">
   <path transform="translate(-96.456 -250.31)" d="m0 500h500v-500h-500z"/>
  </clipPath>
  <clipPath id="clipPath29">
   <path transform="translate(-123.82 -279.9)" d="m0 500h500v-500h-500z"/>
  </clipPath>
  <clipPath id="clipPath31">
   <path transform="translate(-140.13 -250.47)" d="m0 500h500v-500h-500z"/>
  </clipPath>
  <clipPath id="clipPath33">
   <path transform="translate(-141.32 -247.28)" d="m0 500h500v-500h-500z"/>
  </clipPath>
  <clipPath id="clipPath35">
   <path transform="translate(-144.5 -249.67)" d="m0 500h500v-500h-500z"/>
  </clipPath>
  <clipPath id="clipPath37">
   <path transform="translate(-101.55 -248.08)" d="m0 500h500v-500h-500z"/>
  </clipPath>
  <clipPath id="clipPath39">
   <path transform="translate(-104.73 -242.91)" d="m0 500h500v-500h-500z"/>
  </clipPath>
  <clipPath id="clipPath41">
   <path transform="translate(-107.91 -237.74)" d="m0 500h500v-500h-500z"/>
  </clipPath>
  <clipPath id="clipPath43">
   <path transform="translate(-111.09 -232.57)" d="m0 500h500v-500h-500z"/>
  </clipPath>
  <clipPath id="clipPath45">
   <path transform="translate(-130.58 -273.93)" d="m0 500h500v-500h-500z"/>
  </clipPath>
  <clipPath id="clipPath47">
   <path transform="translate(-134.16 -267.97)" d="m0 500h500v-500h-500z"/>
  </clipPath>
  <clipPath id="clipPath49">
   <path transform="translate(-136.55 -262)" d="m0 500h500v-500h-500z"/>
  </clipPath>
  <clipPath id="clipPath51">
   <path transform="translate(-139.33 -257.63)" d="m0 500h500v-500h-500z"/>
  </clipPath>
  <clipPath id="clipPath53">
   <path transform="translate(-313.03 -429.07)" d="m0 500h500v-500h-500z"/>
  </clipPath>
  <clipPath id="clipPath55">
   <path transform="translate(-337.46 -415.98)" d="m0 500h500v-500h-500z"/>
  </clipPath>
  <clipPath id="clipPath57">
   <path transform="translate(-320.7 -400.03)" d="m0 500h500v-500h-500z"/>
  </clipPath>
  <clipPath id="clipPath59">
   <path transform="translate(-318.79 -398.69)" d="m0 500h500v-500h-500z"/>
  </clipPath>
  <clipPath id="clipPath61">
   <path transform="translate(-320.93 -396.99)" d="m0 500h500v-500h-500z"/>
  </clipPath>
  <clipPath id="clipPath63">
   <path transform="translate(-312.43 -425.29)" d="m0 500h500v-500h-500z"/>
  </clipPath>
  <clipPath id="clipPath65">
   <path transform="translate(-309.54 -422.28)" d="m0 500h500v-500h-500z"/>
  </clipPath>
  <clipPath id="clipPath67">
   <path transform="translate(-306.65 -419.27)" d="m0 500h500v-500h-500z"/>
  </clipPath>
  <clipPath id="clipPath69">
   <path transform="translate(-303.76 -416.25)" d="m0 500h500v-500h-500z"/>
  </clipPath>
  <clipPath id="clipPath71">
   <path transform="translate(-334.66 -410.45)" d="m0 500h500v-500h-500z"/>
  </clipPath>
  <clipPath id="clipPath73">
   <path transform="translate(-331.31 -407.04)" d="m0 500h500v-500h-500z"/>
  </clipPath>
  <clipPath id="clipPath75">
   <path transform="translate(-327.76 -404.41)" d="m0 500h500v-500h-500z"/>
  </clipPath>
  <clipPath id="clipPath77">
   <path transform="translate(-325.33 -401.8)" d="m0 500h500v-500h-500z"/>
  </clipPath>
  <clipPath id="clipPath79">
   <path transform="translate(-167.55 -389.49)" d="m0 500h500v-500h-500z"/>
  </clipPath>
  <clipPath id="clipPath81">
   <path transform="translate(-171.17 -387.23)" d="m0 500h500v-500h-500z"/>
  </clipPath>
  <clipPath id="clipPath83">
   <path transform="translate(-200.52 -331.23)" d="m0 500h500v-500h-500z"/>
  </clipPath>
  <clipPath id="clipPath85">
   <path transform="translate(-178.39 -343.87)" d="m0 500h500v-500h-500z"/>
  </clipPath>
  <clipPath id="clipPath87">
   <path transform="translate(-150.84 -363.29)" d="m0 500h500v-500h-500z"/>
  </clipPath>
  <clipPath id="clipPath89">
   <path transform="translate(-172.07 -372.33)" d="m0 500h500v-500h-500z"/>
  </clipPath>
  <clipPath id="clipPath91">
   <path transform="translate(-172.97 -364.65)" d="m0 500h500v-500h-500z"/>
  </clipPath>
  <clipPath id="clipPath93">
   <path transform="translate(-173.88 -356.97)" d="m0 500h500v-500h-500z"/>
  </clipPath>
  <clipPath id="clipPath95">
   <path transform="translate(-174.78 -349.29)" d="m0 500h500v-500h-500z"/>
  </clipPath>
  <clipPath id="clipPath97">
   <path transform="translate(-177.04 -371.88)" d="m0 500h500v-500h-500z"/>
  </clipPath>
  <clipPath id="clipPath99">
   <path transform="translate(-177.04 -364.65)" d="m0 500h500v-500h-500z"/>
  </clipPath>
  <clipPath id="clipPath101">
   <path transform="translate(-179.3 -356.97)" d="m0 500h500v-500h-500z"/>
  </clipPath>
  <clipPath id="clipPath103">
   <path transform="translate(-179.75 -349.29)" d="m0 500h500v-500h-500z"/>
  </clipPath>
  <clipPath id="clipPath105">
   <path transform="translate(-396.38 -199.32)" d="m0 500h500v-500h-500z"/>
  </clipPath>
  <clipPath id="clipPath107">
   <path transform="translate(-392.56 -201.21)" d="m0 500h500v-500h-500z"/>
  </clipPath>
  <clipPath id="clipPath109">
   <path transform="translate(-357.71 -253.97)" d="m0 500h500v-500h-500z"/>
  </clipPath>
  <clipPath id="clipPath111">
   <path transform="translate(-381 -243.62)" d="m0 500h500v-500h-500z"/>
  </clipPath>
  <clipPath id="clipPath113">
   <path transform="translate(-410.37 -227.07)" d="m0 500h500v-500h-500z"/>
  </clipPath>
  <clipPath id="clipPath115">
   <path transform="translate(-390.16 -215.94)" d="m0 500h500v-500h-500z"/>
  </clipPath>
  <clipPath id="clipPath117">
   <path transform="translate(-388.49 -223.49)" d="m0 500h500v-500h-500z"/>
  </clipPath>
  <clipPath id="clipPath119">
   <path transform="translate(-386.81 -231.04)" d="m0 500h500v-500h-500z"/>
  </clipPath>
  <clipPath id="clipPath121">
   <path transform="translate(-385.14 -238.59)" d="m0 500h500v-500h-500z"/>
  </clipPath>
  <clipPath id="clipPath123">
   <path transform="translate(-385.17 -215.89)" d="m0 500h500v-500h-500z"/>
  </clipPath>
  <clipPath id="clipPath125">
   <path transform="translate(-384.44 -223.08)" d="m0 500h500v-500h-500z"/>
  </clipPath>
  <clipPath id="clipPath127">
   <path transform="translate(-381.42 -230.49)" d="m0 500h500v-500h-500z"/>
  </clipPath>
  <clipPath id="clipPath129">
   <path transform="translate(-380.2 -238.09)" d="m0 500h500v-500h-500z"/>
  </clipPath>
  <clipPath>
   <path transform="matrix(1.3333 0 0 -1.3333 0 666.67)" d="m0 500h500v-500h-500z"/>
  </clipPath>
  <clipPath id="clipPath228">
   <path transform="translate(-271.67 -187.56)" d="m0 500h500v-500h-500z"/>
  </clipPath>
  <clipPath id="clipPath229">
   <path transform="translate(-271.67 -187.56)" d="m269.84 188.06h44.927v-21.397h-44.927z"/>
  </clipPath>
  <clipPath id="clipPath231">
   <path transform="matrix(1.3333 0 0 -1.3333 0 666.67)" d="m271.67 187.56s-2.986-9.203 0-20.397h42.6s-4.477 12.934 0 20.397z"/>
  </clipPath>
  <clipPath id="clipPath233">
   <path transform="translate(-271.67 -187.56)" d="m0 500h500v-500h-500z"/>
  </clipPath>
  <clipPath id="clipPath235">
   <path transform="translate(-188.9 -170.67)" d="m0 500h500v-500h-500z"/>
  </clipPath>
  <clipPath id="clipPath237">
   <path d="m0 500h500v-500h-500z"/>
  </clipPath>
  <clipPath id="clipPath239">
   <path transform="translate(-189.42 -139.47)" d="m0 500h500v-500h-500z"/>
  </clipPath>
  <clipPath id="clipPath241">
   <path transform="translate(-214.16 -133.56)" d="m0 500h500v-500h-500z"/>
  </clipPath>
  <clipPath id="clipPath243">
   <path transform="translate(-189.14 -133.56)" d="m0 500h500v-500h-500z"/>
  </clipPath>
  <clipPath id="clipPath245">
   <path transform="translate(-189.57 -127.45)" d="m0 500h500v-500h-500z"/>
  </clipPath>
  <clipPath id="clipPath247">
   <path transform="translate(-272.33 -142.89)" d="m0 500h500v-500h-500z"/>
  </clipPath>
  <clipPath id="clipPath248">
   <path transform="translate(-272.33 -142.89)" d="m270.51 143.39h44.26v-21.398h-44.26z"/>
  </clipPath>
  <clipPath id="clipPath250">
   <path transform="matrix(1.3333 0 0 -1.3333 0 666.67)" d="m272.33 142.89s-2.985-9.203 0-20.396h41.934s-4.477 12.934 0 20.396z"/>
  </clipPath>
  <clipPath id="clipPath252">
   <path transform="translate(-272.33 -142.89)" d="m0 500h500v-500h-500z"/>
  </clipPath>
  <clipPath id="clipPath254">
   <path transform="translate(-188.9 -126)" d="m0 500h500v-500h-500z"/>
  </clipPath>
  <clipPath id="clipPath280">
   <path transform="translate(-189 -146.72)" d="m0 500h500v-500h-500z"/>
  </clipPath>
  <clipPath id="clipPath282">
   <path transform="translate(-261.9 -161.72)" d="m0 500h500v-500h-500z"/>
  </clipPath>
  <clipPath id="clipPath284">
   <path transform="translate(-237.15 -155.82)" d="m0 500h500v-500h-500z"/>
  </clipPath>
  <clipPath id="clipPath286">
   <path transform="translate(-262.18 -155.82)" d="m0 500h500v-500h-500z"/>
  </clipPath>
  <clipPath id="clipPath288">
   <path transform="translate(-261.75 -149.7)" d="m0 500h500v-500h-500z"/>
  </clipPath>
  <clipPath id="clipPath290">
   <path transform="translate(-262.32 -148.67)" d="m0 500h500v-500h-500z"/>
  </clipPath>
  <clipPath id="clipPath292">
   <path transform="translate(-233.67 -236.72)" d="m0 500h500v-500h-500z"/>
  </clipPath>
  <clipPath id="clipPath294">
   <path transform="translate(-301 -299.38)" d="m0 500h500v-500h-500z"/>
  </clipPath>
  <clipPath id="clipPath296">
   <path transform="translate(-264.75 -319.38)" d="m0 500h500v-500h-500z"/>
  </clipPath>
  <clipPath id="clipPath298">
   <path transform="translate(-212.88 -266.69)" d="m0 500h500v-500h-500z"/>
  </clipPath>
  <clipPath id="clipPath300">
   <path transform="translate(-263.58 -285.62)" d="m0 500h500v-500h-500z"/>
  </clipPath>
  <clipPath id="clipPath302">
   <path transform="translate(-230.5 -249.13)" d="m0 500h500v-500h-500z"/>
  </clipPath>
  <clipPath id="clipPath304">
   <path transform="translate(-206.75 -273.63)" d="m0 500h500v-500h-500z"/>
  </clipPath>
  <clipPath id="clipPath306">
   <path transform="translate(-205.5 -274.38)" d="m0 500h500v-500h-500z"/>
  </clipPath>
  <clipPath id="clipPath308">
   <path transform="translate(-288.25 -281.13)" d="m0 500h500v-500h-500z"/>
  </clipPath>
  <clipPath id="clipPath310">
   <path transform="translate(-226.5 -245.13)" d="m0 500h500v-500h-500z"/>
  </clipPath>
  <clipPath id="clipPath312">
   <path transform="translate(-232.5 -237.63)" d="m0 500h500v-500h-500z"/>
  </clipPath>
  <clipPath id="clipPath314">
   <path transform="translate(-227.26 -242.59)" d="m0 500h500v-500h-500z"/>
  </clipPath>
  <clipPath id="clipPath316">
   <path transform="translate(-281.48 -231.32)" d="m0 500h500v-500h-500z"/>
  </clipPath>
  <clipPath id="clipPath318">
   <path transform="translate(-255.88 -322.35)" d="m0 500h500v-500h-500z"/>
  </clipPath>
  <clipPath id="clipPath320">
   <path transform="translate(-255.88 -322.35)" d="m0 500h500v-500h-500z"/>
  </clipPath>
  <clipPath id="clipPath322">
   <path transform="translate(-256.55 -316.76)" d="m0 500h500v-500h-500z"/>
  </clipPath>
  <clipPath id="clipPath324">
   <path transform="translate(-206.17 -255.29)" d="m0 500h500v-500h-500z"/>
  </clipPath>
  <clipPath id="clipPath326">
   <path transform="translate(-206.17 -255.29)" d="m0 500h500v-500h-500z"/>
  </clipPath>
  <clipPath id="clipPath328">
   <path transform="translate(-203.61 -262.7)" d="m0 500h500v-500h-500z"/>
  </clipPath>
  <clipPath id="clipPath330">
   <path transform="translate(-203.63 -267.21)" d="m0 500h500v-500h-500z"/>
  </clipPath>
  <clipPath id="clipPath332">
   <path transform="translate(-206.68 -271.4)" d="m0 500h500v-500h-500z"/>
  </clipPath>
  <clipPath id="clipPath334">
   <path transform="translate(-206.33 -192.05)" d="m0 500h500v-500h-500z"/>
  </clipPath>
  <clipPath id="clipPath336">
   <path transform="translate(-207.67 -200.38)" d="m0 500h500v-500h-500z"/>
  </clipPath>
  <clipPath id="clipPath338">
   <path transform="translate(-207.67 -200.38)" d="m0 500h500v-500h-500z"/>
  </clipPath>
  <clipPath id="clipPath340">
   <path transform="translate(-310.67 -219.72)" d="m0 500h500v-500h-500z"/>
  </clipPath>
  <clipPath id="clipPath342">
   <path transform="translate(-303.95 -208.24)" d="m0 500h500v-500h-500z"/>
  </clipPath>
  <clipPath id="clipPath344">
   <path transform="translate(-310.5 -216.38)" d="m0 500h500v-500h-500z"/>
  </clipPath>
  <clipPath id="clipPath346">
   <path transform="translate(-260 -214.88)" d="m0 500h500v-500h-500z"/>
  </clipPath>
  <clipPath id="clipPath348">
   <path transform="translate(-200.43 -233.94)" d="m0 500h500v-500h-500z"/>
  </clipPath>
  <clipPath id="clipPath350">
   <path transform="translate(-294.33 -190.72)" d="m0 500h500v-500h-500z"/>
  </clipPath>
  <clipPath id="clipPath352">
   <path transform="translate(-316.26 -194.98)" d="m0 500h500v-500h-500z"/>
  </clipPath>
  <clipPath id="clipPath354">
   <path transform="translate(-196.67 -241.38)" d="m0 500h500v-500h-500z"/>
  </clipPath>
  <clipPath id="clipPath356">
   <path transform="translate(-196.08 -233.81)" d="m0 500h500v-500h-500z"/>
  </clipPath>
  <clipPath id="clipPath358">
   <path transform="translate(-289.5 -190.88)" d="m0 500h500v-500h-500z"/>
  </clipPath>
  <clipPath id="clipPath360">
   <path transform="translate(-289.28 -336.25)" d="m0 500h500v-500h-500z"/>
  </clipPath>
  <clipPath id="clipPath362">
   <path transform="translate(-262.53 -340.18)" d="m0 500h500v-500h-500z"/>
  </clipPath>
  <clipPath id="clipPath364">
   <path transform="translate(-259.97 -327.2)" d="m0 500h500v-500h-500z"/>
  </clipPath>
  <clipPath id="clipPath366">
   <path transform="translate(-268.82 -337.23)" d="m0 500h500v-500h-500z"/>
  </clipPath>
  <clipPath id="clipPath368">
   <path transform="translate(-250.92 -342.15)" d="m0 500h500v-500h-500z"/>
  </clipPath>
  <clipPath id="clipPath370">
   <path transform="translate(-262.07 -345.29)" d="m0 500h500v-500h-500z"/>
  </clipPath>
  <clipPath id="clipPath372">
   <path transform="translate(-280.04 -336.64)" d="m0 500h500v-500h-500z"/>
  </clipPath>
  <clipPath id="clipPath374">
   <path transform="translate(-261.94 -340.18)" d="m0 500h500v-500h-500z"/>
  </clipPath>
  <clipPath id="clipPath376">
   <path transform="translate(-279.64 -335.07)" d="m0 500h500v-500h-500z"/>
  </clipPath>
  <clipPath id="clipPath378">
   <path transform="translate(-246.4 -342.15)" d="m0 500h500v-500h-500z"/>
  </clipPath>
  <clipPath id="clipPath380">
   <path transform="translate(-254.15 -360.9)" d="m0 500h500v-500h-500z"/>
  </clipPath>
  <clipPath id="clipPath382">
   <path transform="translate(-261.05 -363.89)" d="m0 500h500v-500h-500z"/>
  </clipPath>
  <clipPath id="clipPath384">
   <path transform="translate(-289.71 -343.3)" d="m0 500h500v-500h-500z"/>
  </clipPath>
  <clipPath id="clipPath386">
   <path transform="translate(-259.41 -372.16)" d="m0 500h500v-500h-500z"/>
  </clipPath>
  <clipPath id="clipPath388">
   <path transform="translate(-270.65 -346.39)" d="m0 500h500v-500h-500z"/>
  </clipPath>
  <clipPath id="clipPath390">
   <path transform="translate(-260.4 -269.97)" d="m0 500h500v-500h-500z"/>
  </clipPath>
 </defs>
 <path transform="matrix(1.3333 0 0 -1.3333 548.05 149.14)" d="m0 0s-24.44 47.504-78.413 54.542-91.652-27.271-131.37-44.865c-20.799-9.214-44.555-5.635-66.635-10.095-70.601-14.26-97.196-103.6-67.788-154.41 25.459-43.985 70.267-66.858 138.5-72.136 68.23-5.278 116.09-11.435 177.19 31.67 61.101 43.106 57.028 132.84 28.514 195.29" clip-path="url(#clipPath2)" style="fill:none"/>
 <path transform="matrix(1.3333 0 0 -1.3333 471.77 202.54)" d="m0 0-10.498-43.802s3.62-5.068 5.068-6.515c1.448-1.449 4.706-1.449 5.792-1.449s41.992-0.723 41.992-0.723l8.046 53.575" clip-path="url(#clipPath7)" style="fill:none;stroke-linecap:round;stroke-linejoin:round;stroke-miterlimit:10;stroke:#1a2e35 icc-color(Adobe-RGB-1998, 0.14898682, 0.19599915, 0.21998596)"/>
 <path transform="matrix(1.3333 0 0 -1.3333 483.46 191.52)" d="m0 0-3.338 0.061" clip-path="url(#clipPath9)" style="fill:none;stroke-linecap:round;stroke-linejoin:round;stroke-miterlimit:10;stroke:#1a2e35 icc-color(Adobe-RGB-1998, 0.14898682, 0.19599915, 0.21998596)"/>
 <path transform="matrix(1.3333 0 0 -1.3333 460.67 261.91)" d="m0 0 44.168 0.147 9.408 51.98-32.391 0.589" clip-path="url(#clipPath11)" style="fill:none;stroke-linecap:round;stroke-linejoin:round;stroke-miterlimit:10;stroke:#1a2e35 icc-color(Adobe-RGB-1998, 0.14898682, 0.19599915, 0.21998596)"/>
 <path transform="matrix(1.3333 0 0 -1.3333 464.04 262.39)" d="m0 0 3.62-3.982 42.354-1.086 7.664 46.444-3.321 4.598" clip-path="url(#clipPath13)" style="fill:none;stroke-linecap:round;stroke-linejoin:round;stroke-miterlimit:10;stroke:#1a2e35 icc-color(Adobe-RGB-1998, 0.14898682, 0.19599915, 0.21998596)"/>
 <path transform="matrix(1.3333 0 0 -1.3333 473.92 265.46)" d="m0 0h6.13s-1.022-4.853-1.533-9.45c-0.511-4.598-0.766-10.472-0.766-10.472l-3.576 6.641-4.342-5.619z" clip-path="url(#clipPath15)" style="fill:#1a2e35 icc-color(Adobe-RGB-1998, 0.14898682, 0.19599915, 0.21998596)"/>
 <path transform="matrix(1.3333 0 0 -1.3333 129.45 278.25)" d="m0 0 26.104 10.517s1.27 3.678 1.483 4.94c0.213 1.261-0.967 2.92-1.36 3.473-0.394 0.553-14.838 21.643-14.838 21.643l-30.193-15.304" clip-path="url(#clipPath17)" style="fill:none;stroke-linecap:round;stroke-linejoin:round;stroke-miterlimit:10;stroke:#1a2e35 icc-color(Adobe-RGB-1998, 0.14898682, 0.19599915, 0.21998596)"/>
 <path transform="matrix(1.3333 0 0 -1.3333 119.61 276.29)" d="m0 0 1.178-1.722" clip-path="url(#clipPath19)" style="fill:none;stroke-linecap:round;stroke-linejoin:round;stroke-miterlimit:10;stroke:#1a2e35 icc-color(Adobe-RGB-1998, 0.14898682, 0.19599915, 0.21998596)"/>
 <path transform="matrix(1.3333 0 0 -1.3333 163.7 262.4)" d="m0 0-16.069 22.436-29.874-14.033 11.43-16.707" clip-path="url(#clipPath21)" style="fill:none;stroke-linecap:round;stroke-linejoin:round;stroke-miterlimit:10;stroke:#1a2e35 icc-color(Adobe-RGB-1998, 0.14898682, 0.19599915, 0.21998596)"/>
 <path transform="matrix(1.3333 0 0 -1.3333 162.72 260.51)" d="m0 0 0.717 3.285-14.785 21.959-26.423-12.916-1.139-3.356" clip-path="url(#clipPath23)" style="fill:none;stroke-linecap:round;stroke-linejoin:round;stroke-miterlimit:10;stroke:#1a2e35 icc-color(Adobe-RGB-1998, 0.14898682, 0.19599915, 0.21998596)"/>
 <path transform="matrix(1.3333 0 0 -1.3333 160.71 254.37)" d="m0 0-2.22 3.121s2.841 1.237 5.367 2.642 5.61 3.402 5.61 3.402l-2.087-4.226 4.434-0.175z" clip-path="url(#clipPath25)" style="fill:#1a2e35 icc-color(Adobe-RGB-1998, 0.14898682, 0.19599915, 0.21998596)"/>
 <path transform="matrix(1.3333 0 0 -1.3333 128.61 332.92)" d="m0 0-2.068-1.034 18.297-35.003 30.626 32.616 37.39 11.535-18.695 29.832-1.642-0.126" clip-path="url(#clipPath27)" style="fill:none;stroke-linecap:round;stroke-linejoin:round;stroke-miterlimit:10;stroke:#1a2e35 icc-color(Adobe-RGB-1998, 0.14898682, 0.19599915, 0.21998596)"/>
 <path transform="matrix(1.3333 0 0 -1.3333 165.1 293.47)" d="m0 0 16.308-29.434s-7.16 1.591-8.751-5.171-8.75-15.513-11.932-19.49c-3.183-3.978-6.365-6.762-6.365-6.762l-17.501 33.412s8.353 6.761 12.33 16.308c3.978 9.546 10.342 12.33 15.911 11.137z" clip-path="url(#clipPath29)" style="fill:none;stroke-linecap:round;stroke-linejoin:round;stroke-miterlimit:10;stroke:#1a2e35 icc-color(Adobe-RGB-1998, 0.14898682, 0.19599915, 0.21998596)"/>
 <path transform="matrix(1.3333 0 0 -1.3333 186.84 332.71)" d="m0 0s1.989 5.966 6.762 6.364 13.523-1.193 21.081 1.193c7.557 2.387 8.75 3.182 8.75 3.182l-18.297 29.832s-4.375-3.58-15.512-3.58-17.899-1.989-19.092-7.557z" clip-path="url(#clipPath31)" style="fill:none;stroke-linecap:round;stroke-linejoin:round;stroke-miterlimit:10;stroke:#1a2e35 icc-color(Adobe-RGB-1998, 0.14898682, 0.19599915, 0.21998596)"/>
 <path transform="matrix(1.3333 0 0 -1.3333 188.43 336.95)" d="m0 0s-2.784-1.193-5.568-3.58c-2.785-2.387-5.171-6.762-9.944-12.729" clip-path="url(#clipPath33)" style="fill:none;stroke-linecap:round;stroke-linejoin:round;stroke-miterlimit:10;stroke:#1a2e35 icc-color(Adobe-RGB-1998, 0.14898682, 0.19599915, 0.21998596)"/>
 <path transform="matrix(1.3333 0 0 -1.3333 192.67 333.77)" d="m0 0s2.784 3.58 7.16 3.978c4.375 0.397 11.932 0.397 24.263 5.17" clip-path="url(#clipPath35)" style="fill:none;stroke-linecap:round;stroke-linejoin:round;stroke-miterlimit:10;stroke:#1a2e35 icc-color(Adobe-RGB-1998, 0.14898682, 0.19599915, 0.21998596)"/>
 <path transform="matrix(1.3333 0 0 -1.3333 135.4 335.89)" d="m0 0s3.978 4.375 9.546 12.331c5.569 7.955 9.546 11.137 13.922 11.137" clip-path="url(#clipPath37)" style="fill:none;stroke-linecap:round;stroke-linejoin:round;stroke-miterlimit:10;stroke:#1a2e35 icc-color(Adobe-RGB-1998, 0.14898682, 0.19599915, 0.21998596)"/>
 <path transform="matrix(1.3333 0 0 -1.3333 139.64 342.79)" d="m0 0s3.978 4.376 9.546 12.331c5.569 7.955 9.546 11.137 13.921 11.137" clip-path="url(#clipPath39)" style="fill:none;stroke-linecap:round;stroke-linejoin:round;stroke-miterlimit:10;stroke:#1a2e35 icc-color(Adobe-RGB-1998, 0.14898682, 0.19599915, 0.21998596)"/>
 <path transform="matrix(1.3333 0 0 -1.3333 143.88 349.68)" d="m0 0s3.978 4.376 9.546 12.331c5.569 7.955 9.547 11.137 13.922 11.137" clip-path="url(#clipPath41)" style="fill:none;stroke-linecap:round;stroke-linejoin:round;stroke-miterlimit:10;stroke:#1a2e35 icc-color(Adobe-RGB-1998, 0.14898682, 0.19599915, 0.21998596)"/>
 <path transform="matrix(1.3333 0 0 -1.3333 148.12 356.58)" d="m0 0s3.978 4.376 9.546 12.331c5.569 7.955 9.546 11.137 13.922 11.137" clip-path="url(#clipPath43)" style="fill:none;stroke-linecap:round;stroke-linejoin:round;stroke-miterlimit:10;stroke:#1a2e35 icc-color(Adobe-RGB-1998, 0.14898682, 0.19599915, 0.21998596)"/>
 <path transform="matrix(1.3333 0 0 -1.3333 174.11 301.42)" d="m0 0s1.591 4.375 7.558 4.375c5.966 0 19.143 0.524 20.683 5.171" clip-path="url(#clipPath45)" style="fill:none;stroke-linecap:round;stroke-linejoin:round;stroke-miterlimit:10;stroke:#1a2e35 icc-color(Adobe-RGB-1998, 0.14898682, 0.19599915, 0.21998596)"/>
 <path transform="matrix(1.3333 0 0 -1.3333 178.88 309.38)" d="m0 0s2.785 3.58 10.342 3.58 14.319 1.59 18.695 5.966" clip-path="url(#clipPath47)" style="fill:none;stroke-linecap:round;stroke-linejoin:round;stroke-miterlimit:10;stroke:#1a2e35 icc-color(Adobe-RGB-1998, 0.14898682, 0.19599915, 0.21998596)"/>
 <path transform="matrix(1.3333 0 0 -1.3333 182.07 317.33)" d="m0 0s2.387 5.171 9.148 5.171c6.762 0 15.115 1.193 19.888 4.773" clip-path="url(#clipPath49)" style="fill:none;stroke-linecap:round;stroke-linejoin:round;stroke-miterlimit:10;stroke:#1a2e35 icc-color(Adobe-RGB-1998, 0.14898682, 0.19599915, 0.21998596)"/>
 <path transform="matrix(1.3333 0 0 -1.3333 185.78 323.17)" d="m0 0s1.193 3.978 7.955 4.375c6.762 0.398 15.115 1.989 21.479 4.773" clip-path="url(#clipPath51)" style="fill:none;stroke-linecap:round;stroke-linejoin:round;stroke-miterlimit:10;stroke:#1a2e35 icc-color(Adobe-RGB-1998, 0.14898682, 0.19599915, 0.21998596)"/>
 <path transform="matrix(1.3333 0 0 -1.3333 417.38 94.579)" d="m0 0-1.046 1.197-20.121-18.237 27.007-14.729 14.15-22.879 16.611 17.606-0.369 1.07" clip-path="url(#clipPath53)" style="fill:none;stroke-linecap:round;stroke-linejoin:round;stroke-miterlimit:10;stroke:#1a2e35 icc-color(Adobe-RGB-1998, 0.14898682, 0.19599915, 0.21998596)"/>
 <path transform="matrix(1.3333 0 0 -1.3333 449.95 112.02)" d="m0 0-16.76-15.949s-0.181 5.039-4.956 4.927c-4.774-0.113-11.837 3.135-15.034 4.564-3.198 1.428-5.602 3.063-5.602 3.063l19.2 17.432s5.946-4.387 12.986-5.38c7.041-0.993 9.996-4.745 10.166-8.657z" clip-path="url(#clipPath55)" style="fill:none;stroke-linecap:round;stroke-linejoin:round;stroke-miterlimit:10;stroke:#1a2e35 icc-color(Adobe-RGB-1998, 0.14898682, 0.19599915, 0.21998596)"/>
 <path transform="matrix(1.3333 0 0 -1.3333 427.6 133.29)" d="m0 0s4.314-0.29 5.406-3.397c1.091-3.107 1.548-9.205 4.445-13.82s3.632-5.271 3.632-5.271l16.681 17.341s-3.14 2.291-5.069 9.701-4.423 11.565-8.335 11.395z" clip-path="url(#clipPath57)" style="fill:none;stroke-linecap:round;stroke-linejoin:round;stroke-miterlimit:10;stroke:#1a2e35 icc-color(Adobe-RGB-1998, 0.14898682, 0.19599915, 0.21998596)"/>
 <path transform="matrix(1.3333 0 0 -1.3333 425.06 135.08)" d="m0 0s-1.276 1.646-3.347 3.085c-2.07 1.439-5.394 2.269-10.191 4.412" clip-path="url(#clipPath59)" style="fill:none;stroke-linecap:round;stroke-linejoin:round;stroke-miterlimit:10;stroke:#1a2e35 icc-color(Adobe-RGB-1998, 0.14898682, 0.19599915, 0.21998596)"/>
 <path transform="matrix(1.3333 0 0 -1.3333 427.91 137.35)" d="m0 0s2.864-1.233 3.887-4.075c1.022-2.842 2.331-7.871 7.642-15.248" clip-path="url(#clipPath61)" style="fill:none;stroke-linecap:round;stroke-linejoin:round;stroke-miterlimit:10;stroke:#1a2e35 icc-color(Adobe-RGB-1998, 0.14898682, 0.19599915, 0.21998596)"/>
 <path transform="matrix(1.3333 0 0 -1.3333 416.58 99.611)" d="m0 0s3.601-1.889 9.858-4.216 9.064-4.423 9.822-7.334" clip-path="url(#clipPath63)" style="fill:none;stroke-linecap:round;stroke-linejoin:round;stroke-miterlimit:10;stroke:#1a2e35 icc-color(Adobe-RGB-1998, 0.14898682, 0.19599915, 0.21998596)"/>
 <path transform="matrix(1.3333 0 0 -1.3333 412.73 103.63)" d="m0 0s3.6-1.889 9.857-4.216c6.258-2.327 9.064-4.423 9.822-7.334" clip-path="url(#clipPath65)" style="fill:none;stroke-linecap:round;stroke-linejoin:round;stroke-miterlimit:10;stroke:#1a2e35 icc-color(Adobe-RGB-1998, 0.14898682, 0.19599915, 0.21998596)"/>
 <path transform="matrix(1.3333 0 0 -1.3333 408.87 107.65)" d="m0 0s3.601-1.889 9.857-4.216c6.258-2.327 9.064-4.423 9.822-7.334" clip-path="url(#clipPath67)" style="fill:none;stroke-linecap:round;stroke-linejoin:round;stroke-miterlimit:10;stroke:#1a2e35 icc-color(Adobe-RGB-1998, 0.14898682, 0.19599915, 0.21998596)"/>
 <path transform="matrix(1.3333 0 0 -1.3333 405.02 111.66)" d="m0 0s3.601-1.889 9.858-4.216 9.064-4.423 9.822-7.334" clip-path="url(#clipPath69)" style="fill:none;stroke-linecap:round;stroke-linejoin:round;stroke-miterlimit:10;stroke:#1a2e35 icc-color(Adobe-RGB-1998, 0.14898682, 0.19599915, 0.21998596)"/>
 <path transform="matrix(1.3333 0 0 -1.3333 446.22 119.4)" d="m0 0s3.188-0.301 4.221-4.271c1.033-3.969 3.664-12.646 7.022-12.866" clip-path="url(#clipPath71)" style="fill:none;stroke-linecap:round;stroke-linejoin:round;stroke-miterlimit:10;stroke:#1a2e35 icc-color(Adobe-RGB-1998, 0.14898682, 0.19599915, 0.21998596)"/>
 <path transform="matrix(1.3333 0 0 -1.3333 441.75 123.95)" d="m0 0s2.864-1.232 4.173-6.261 3.539-9.252 7.208-11.405" clip-path="url(#clipPath73)" style="fill:none;stroke-linecap:round;stroke-linejoin:round;stroke-miterlimit:10;stroke:#1a2e35 icc-color(Adobe-RGB-1998, 0.14898682, 0.19599915, 0.21998596)"/>
 <path transform="matrix(1.3333 0 0 -1.3333 437.01 127.45)" d="m0 0s3.854-0.692 5.025-5.191 3.413-9.85 6.621-12.406" clip-path="url(#clipPath75)" style="fill:none;stroke-linecap:round;stroke-linejoin:round;stroke-miterlimit:10;stroke:#1a2e35 icc-color(Adobe-RGB-1998, 0.14898682, 0.19599915, 0.21998596)"/>
 <path transform="matrix(1.3333 0 0 -1.3333 433.77 130.93)" d="m0 0s2.854-0.105 4.289-4.535c1.436-4.43 3.941-9.712 6.897-13.465" clip-path="url(#clipPath77)" style="fill:none;stroke-linecap:round;stroke-linejoin:round;stroke-miterlimit:10;stroke:#1a2e35 icc-color(Adobe-RGB-1998, 0.14898682, 0.19599915, 0.21998596)"/>
 <path transform="matrix(1.3333 0 0 -1.3333 223.41 147.35)" d="m0 0-16.711-26.195 3.613-0.904 16.711 24.841 26.647-15.356 3.614 3.613-29.357 15.356" clip-path="url(#clipPath79)" style="fill:none;stroke-linecap:round;stroke-linejoin:round;stroke-miterlimit:10;stroke:#1a2e35 icc-color(Adobe-RGB-1998, 0.14898682, 0.19599915, 0.21998596)"/>
 <path transform="matrix(1.3333 0 0 -1.3333 228.22 150.36)" d="m0 0 7.226-43.358 22.131-12.646-3.162 38.39" clip-path="url(#clipPath81)" style="fill:none;stroke-linecap:round;stroke-linejoin:round;stroke-miterlimit:10;stroke:#1a2e35 icc-color(Adobe-RGB-1998, 0.14898682, 0.19599915, 0.21998596)"/>
 <path transform="matrix(1.3333 0 0 -1.3333 267.37 225.03)" d="m0 0 3.613 6.774-2.71 37.487" clip-path="url(#clipPath83)" style="fill:none;stroke-linecap:round;stroke-linejoin:round;stroke-miterlimit:10;stroke:#1a2e35 icc-color(Adobe-RGB-1998, 0.14898682, 0.19599915, 0.21998596)"/>
 <path transform="matrix(1.3333 0 0 -1.3333 237.86 208.17)" d="m0 0-14.904-20.324-7.678 35.228" clip-path="url(#clipPath85)" style="fill:none;stroke-linecap:round;stroke-linejoin:round;stroke-miterlimit:10;stroke:#1a2e35 icc-color(Adobe-RGB-1998, 0.14898682, 0.19599915, 0.21998596)"/>
 <path transform="matrix(1.3333 0 0 -1.3333 201.12 182.27)" d="m0 0 8.582-39.293 4.064-0.452" clip-path="url(#clipPath87)" style="fill:none;stroke-linecap:round;stroke-linejoin:round;stroke-miterlimit:10;stroke:#1a2e35 icc-color(Adobe-RGB-1998, 0.14898682, 0.19599915, 0.21998596)"/>
 <path transform="matrix(1.3333 0 0 -1.3333 229.43 170.23)" d="m0 0-11.743-16.259" clip-path="url(#clipPath89)" style="fill:none;stroke-linecap:round;stroke-linejoin:round;stroke-miterlimit:10;stroke:#1a2e35 icc-color(Adobe-RGB-1998, 0.14898682, 0.19599915, 0.21998596)"/>
 <path transform="matrix(1.3333 0 0 -1.3333 230.63 180.47)" d="m0 0-11.743-16.259" clip-path="url(#clipPath91)" style="fill:none;stroke-linecap:round;stroke-linejoin:round;stroke-miterlimit:10;stroke:#1a2e35 icc-color(Adobe-RGB-1998, 0.14898682, 0.19599915, 0.21998596)"/>
 <path transform="matrix(1.3333 0 0 -1.3333 231.84 190.71)" d="m0 0-11.743-16.259" clip-path="url(#clipPath93)" style="fill:none;stroke-linecap:round;stroke-linejoin:round;stroke-miterlimit:10;stroke:#1a2e35 icc-color(Adobe-RGB-1998, 0.14898682, 0.19599915, 0.21998596)"/>
 <path transform="matrix(1.3333 0 0 -1.3333 233.04 200.94)" d="m0 0-11.743-16.259" clip-path="url(#clipPath95)" style="fill:none;stroke-linecap:round;stroke-linejoin:round;stroke-miterlimit:10;stroke:#1a2e35 icc-color(Adobe-RGB-1998, 0.14898682, 0.19599915, 0.21998596)"/>
 <path transform="matrix(1.3333 0 0 -1.3333 236.05 170.83)" d="m0 0 15.808-9.033" clip-path="url(#clipPath97)" style="fill:none;stroke-linecap:round;stroke-linejoin:round;stroke-miterlimit:10;stroke:#1a2e35 icc-color(Adobe-RGB-1998, 0.14898682, 0.19599915, 0.21998596)"/>
 <path transform="matrix(1.3333 0 0 -1.3333 236.05 180.47)" d="m0 0 15.808-9.033" clip-path="url(#clipPath99)" style="fill:none;stroke-linecap:round;stroke-linejoin:round;stroke-miterlimit:10;stroke:#1a2e35 icc-color(Adobe-RGB-1998, 0.14898682, 0.19599915, 0.21998596)"/>
 <path transform="matrix(1.3333 0 0 -1.3333 239.06 190.71)" d="m0 0 15.808-9.033" clip-path="url(#clipPath101)" style="fill:none;stroke-linecap:round;stroke-linejoin:round;stroke-miterlimit:10;stroke:#1a2e35 icc-color(Adobe-RGB-1998, 0.14898682, 0.19599915, 0.21998596)"/>
 <path transform="matrix(1.3333 0 0 -1.3333 239.67 200.94)" d="m0 0 15.808-9.033" clip-path="url(#clipPath103)" style="fill:none;stroke-linecap:round;stroke-linejoin:round;stroke-miterlimit:10;stroke:#1a2e35 icc-color(Adobe-RGB-1998, 0.14898682, 0.19599915, 0.21998596)"/>
 <path transform="matrix(1.3333 0 0 -1.3333 528.51 400.9)" d="m0 0 13.988 27.745-3.686 0.534-14.124-26.396-28.059 12.595-3.23-3.959 30.754-12.322" clip-path="url(#clipPath105)" style="fill:none;stroke-linecap:round;stroke-linejoin:round;stroke-miterlimit:10;stroke:#1a2e35 icc-color(Adobe-RGB-1998, 0.14898682, 0.19599915, 0.21998596)"/>
 <path transform="matrix(1.3333 0 0 -1.3333 523.41 398.39)" d="m0 0-11.556 42.41-23.292 10.353 7.012-37.876" clip-path="url(#clipPath107)" style="fill:none;stroke-linecap:round;stroke-linejoin:round;stroke-miterlimit:10;stroke:#1a2e35 icc-color(Adobe-RGB-1998, 0.14898682, 0.19599915, 0.21998596)"/>
 <path transform="matrix(1.3333 0 0 -1.3333 476.95 328.04)" d="m0 0-2.912-7.104 6.471-37.023" clip-path="url(#clipPath109)" style="fill:none;stroke-linecap:round;stroke-linejoin:round;stroke-miterlimit:10;stroke:#1a2e35 icc-color(Adobe-RGB-1998, 0.14898682, 0.19599915, 0.21998596)"/>
 <path transform="matrix(1.3333 0 0 -1.3333 508 341.85)" d="m0 0 12.781 21.721 11.187-34.276" clip-path="url(#clipPath111)" style="fill:none;stroke-linecap:round;stroke-linejoin:round;stroke-miterlimit:10;stroke:#1a2e35 icc-color(Adobe-RGB-1998, 0.14898682, 0.19599915, 0.21998596)"/>
 <path transform="matrix(1.3333 0 0 -1.3333 547.16 363.91)" d="m0 0-12.495 38.229-4.09 0.04" clip-path="url(#clipPath113)" style="fill:none;stroke-linecap:round;stroke-linejoin:round;stroke-miterlimit:10;stroke:#1a2e35 icc-color(Adobe-RGB-1998, 0.14898682, 0.19599915, 0.21998596)"/>
 <path transform="matrix(1.3333 0 0 -1.3333 520.21 378.74)" d="m0 0 10.046 17.359" clip-path="url(#clipPath115)" style="fill:none;stroke-linecap:round;stroke-linejoin:round;stroke-miterlimit:10;stroke:#1a2e35 icc-color(Adobe-RGB-1998, 0.14898682, 0.19599915, 0.21998596)"/>
 <path transform="matrix(1.3333 0 0 -1.3333 517.98 368.68)" d="m0 0 10.046 17.359" clip-path="url(#clipPath117)" style="fill:none;stroke-linecap:round;stroke-linejoin:round;stroke-miterlimit:10;stroke:#1a2e35 icc-color(Adobe-RGB-1998, 0.14898682, 0.19599915, 0.21998596)"/>
 <path transform="matrix(1.3333 0 0 -1.3333 515.75 358.61)" d="m0 0 10.046 17.359" clip-path="url(#clipPath119)" style="fill:none;stroke-linecap:round;stroke-linejoin:round;stroke-miterlimit:10;stroke:#1a2e35 icc-color(Adobe-RGB-1998, 0.14898682, 0.19599915, 0.21998596)"/>
 <path transform="matrix(1.3333 0 0 -1.3333 513.52 348.55)" d="m0 0 10.046 17.359" clip-path="url(#clipPath121)" style="fill:none;stroke-linecap:round;stroke-linejoin:round;stroke-miterlimit:10;stroke:#1a2e35 icc-color(Adobe-RGB-1998, 0.14898682, 0.19599915, 0.21998596)"/>
 <path transform="matrix(1.3333 0 0 -1.3333 513.56 378.81)" d="m0 0-16.637 7.396" clip-path="url(#clipPath123)" style="fill:none;stroke-linecap:round;stroke-linejoin:round;stroke-miterlimit:10;stroke:#1a2e35 icc-color(Adobe-RGB-1998, 0.14898682, 0.19599915, 0.21998596)"/>
 <path transform="matrix(1.3333 0 0 -1.3333 512.59 369.22)" d="m0 0-16.638 7.396" clip-path="url(#clipPath125)" style="fill:none;stroke-linecap:round;stroke-linejoin:round;stroke-miterlimit:10;stroke:#1a2e35 icc-color(Adobe-RGB-1998, 0.14898682, 0.19599915, 0.21998596)"/>
 <path transform="matrix(1.3333 0 0 -1.3333 508.56 359.34)" d="m0 0-16.637 7.395" clip-path="url(#clipPath127)" style="fill:none;stroke-linecap:round;stroke-linejoin:round;stroke-miterlimit:10;stroke:#1a2e35 icc-color(Adobe-RGB-1998, 0.14898682, 0.19599915, 0.21998596)"/>
 <path transform="matrix(1.3333 0 0 -1.3333 506.93 349.22)" d="m0 0-16.637 7.396" clip-path="url(#clipPath129)" style="fill:none;stroke-linecap:round;stroke-linejoin:round;stroke-miterlimit:10;stroke:#1a2e35 icc-color(Adobe-RGB-1998, 0.14898682, 0.19599915, 0.21998596)"/>
 <path transform="matrix(1.3333 0 0 -1.3333 0 666.67)" d="m293.37 166.66h-105.72v21.642h105.72z" style="fill:#ffffff icc-color(Adobe-RGB-1998, 1, 1, 1);stroke-linecap:round;stroke-linejoin:round;stroke-miterlimit:10;stroke:#1a2e35 icc-color(Adobe-RGB-1998, 0.14898682, 0.19599915, 0.21998596)"/>
 <path transform="matrix(1.3333 0 0 -1.3333 251.66 423.08)" d="m0 0h18.559" style="fill:none;stroke-linecap:round;stroke-linejoin:round;stroke-miterlimit:10;stroke:#1a2e35 icc-color(Adobe-RGB-1998, 0.14898682, 0.19599915, 0.21998596)"/>
 <path transform="matrix(1.3333 0 0 -1.3333 284.65 430.95)" d="m0 0h2.531" style="fill:none;stroke-linecap:round;stroke-linejoin:round;stroke-miterlimit:10;stroke:#1a2e35 icc-color(Adobe-RGB-1998, 0.14898682, 0.19599915, 0.21998596)"/>
 <path transform="matrix(1.3333 0 0 -1.3333 251.29 430.95)" d="m0 0h20.809" style="fill:none;stroke-linecap:round;stroke-linejoin:round;stroke-miterlimit:10;stroke:#1a2e35 icc-color(Adobe-RGB-1998, 0.14898682, 0.19599915, 0.21998596)"/>
 <path transform="matrix(1.3333 0 0 -1.3333 251.86 439.11)" d="m0 0h8.565" style="fill:none;stroke-linecap:round;stroke-linejoin:round;stroke-miterlimit:10;stroke:#1a2e35 icc-color(Adobe-RGB-1998, 0.14898682, 0.19599915, 0.21998596)"/>
 <path transform="matrix(1.3333 0 0 -1.3333 362.22 416.59)" d="m0 0s-2.985-9.204 0-20.397h42.601s-4.478 12.934 0 20.397z" clip-path="url(#clipPath228)" style="fill:#ffffff icc-color(Adobe-RGB-1998, 1, 1, 1)"/>
 <g clip-path="url(#clipPath231)" opacity=".24">
  <path transform="matrix(1.3333 0 0 -1.3333 362.22 416.59)" d="m0 0s-2.985-9.204 0-20.397h42.601s-4.478 12.934 0 20.397z" clip-path="url(#clipPath229)" style="fill:#000000 icc-color(Adobe-RGB-1998, 0, 0, 0);stroke-linecap:round;stroke-linejoin:round;stroke-miterlimit:10;stroke:#1a2e35 icc-color(Adobe-RGB-1998, 0.14898682, 0.19599915, 0.21998596)"/>
 </g>
 <path transform="matrix(1.3333 0 0 -1.3333 362.22 416.59)" d="m0 0s-2.985-9.204 0-20.397h42.601s-4.478 12.934 0 20.397z" clip-path="url(#clipPath233)" style="fill:none;stroke-linecap:round;stroke-linejoin:round;stroke-miterlimit:10;stroke:#1a2e35 icc-color(Adobe-RGB-1998, 0.14898682, 0.19599915, 0.21998596)"/>
 <path transform="matrix(1.3333 0 0 -1.3333 251.86 439.11)" d="m0 0v14.776c0 0.755 0.612 1.369 1.368 1.369h125.7c0.572 0 1.036 0.462 1.036 1.035 0 0.572-0.464 1.035-1.036 1.035h-129.1c-0.756 0-1.368-0.612-1.368-1.368v-18.918c0-1.223 0.991-2.214 2.213-2.214h128.25c0.572 0 1.036 0.464 1.036 1.036 0 0.571-0.464 1.035-1.036 1.035h-124.85c-1.223 0-2.214 0.991-2.214 2.214" clip-path="url(#clipPath235)" style="fill:#1a2e35 icc-color(Adobe-RGB-1998, 0.14898682, 0.19599915, 0.21998596);stroke-linecap:round;stroke-linejoin:round;stroke-miterlimit:10;stroke:#1a2e35 icc-color(Adobe-RGB-1998, 0.14898682, 0.19599915, 0.21998596)"/>
 <path transform="matrix(1.3333 0 0 -1.3333 0 666.67)" d="m293.37 122h-105.72v21.641h105.72z" clip-path="url(#clipPath237)" style="fill:#ffffff icc-color(Adobe-RGB-1998, 1, 1, 1);stroke-linecap:round;stroke-linejoin:round;stroke-miterlimit:10;stroke:#1a2e35 icc-color(Adobe-RGB-1998, 0.14898682, 0.19599915, 0.21998596)"/>
 <path transform="matrix(1.3333 0 0 -1.3333 252.56 480.71)" d="m0 0h18.559" clip-path="url(#clipPath239)" style="fill:none;stroke-linecap:round;stroke-linejoin:round;stroke-miterlimit:10;stroke:#1a2e35 icc-color(Adobe-RGB-1998, 0.14898682, 0.19599915, 0.21998596)"/>
 <path transform="matrix(1.3333 0 0 -1.3333 285.55 488.58)" d="m0 0h2.531" clip-path="url(#clipPath241)" style="fill:none;stroke-linecap:round;stroke-linejoin:round;stroke-miterlimit:10;stroke:#1a2e35 icc-color(Adobe-RGB-1998, 0.14898682, 0.19599915, 0.21998596)"/>
 <path transform="matrix(1.3333 0 0 -1.3333 252.18 488.58)" d="m0 0h20.809" clip-path="url(#clipPath243)" style="fill:none;stroke-linecap:round;stroke-linejoin:round;stroke-miterlimit:10;stroke:#1a2e35 icc-color(Adobe-RGB-1998, 0.14898682, 0.19599915, 0.21998596)"/>
 <path transform="matrix(1.3333 0 0 -1.3333 252.76 496.74)" d="m0 0h8.565" clip-path="url(#clipPath245)" style="fill:none;stroke-linecap:round;stroke-linejoin:round;stroke-miterlimit:10;stroke:#1a2e35 icc-color(Adobe-RGB-1998, 0.14898682, 0.19599915, 0.21998596)"/>
 <path transform="matrix(1.3333 0 0 -1.3333 363.11 476.14)" d="m0 0s-2.984-9.204 0-20.397h41.935s-4.478 12.935 0 20.397z" clip-path="url(#clipPath247)" style="fill:#ffffff icc-color(Adobe-RGB-1998, 1, 1, 1)"/>
 <g clip-path="url(#clipPath250)" opacity=".24">
  <path transform="matrix(1.3333 0 0 -1.3333 363.11 476.14)" d="m0 0s-2.984-9.204 0-20.397h41.935s-4.478 12.935 0 20.397z" clip-path="url(#clipPath248)" style="fill:#000000 icc-color(Adobe-RGB-1998, 0, 0, 0);stroke-linecap:round;stroke-linejoin:round;stroke-miterlimit:10;stroke:#1a2e35 icc-color(Adobe-RGB-1998, 0.14898682, 0.19599915, 0.21998596)"/>
 </g>
 <path transform="matrix(1.3333 0 0 -1.3333 363.11 476.14)" d="m0 0s-2.984-9.204 0-20.397h41.935s-4.478 12.935 0 20.397z" clip-path="url(#clipPath252)" style="fill:none;stroke-linecap:round;stroke-linejoin:round;stroke-miterlimit:10;stroke:#1a2e35 icc-color(Adobe-RGB-1998, 0.14898682, 0.19599915, 0.21998596)"/>
 <path transform="matrix(1.3333 0 0 -1.3333 251.86 498.66)" d="m0 0v14.775c0 0.756 0.612 1.369 1.368 1.369h125.7c0.572 0 1.036 0.463 1.036 1.035s-0.464 1.036-1.036 1.036h-129.1c-0.756 0-1.368-0.613-1.368-1.368v-18.918c0-1.223 0.991-2.214 2.213-2.214h128.25c0.572 0 1.036 0.463 1.036 1.035s-0.464 1.035-1.036 1.035h-124.85c-1.223 0-2.214 0.991-2.214 2.215" clip-path="url(#clipPath254)" style="fill:#1a2e35 icc-color(Adobe-RGB-1998, 0.14898682, 0.19599915, 0.21998596);stroke-linecap:round;stroke-linejoin:round;stroke-miterlimit:10;stroke:#1a2e35 icc-color(Adobe-RGB-1998, 0.14898682, 0.19599915, 0.21998596)"/>
 <path transform="matrix(1.3333 0 0 -1.3333 252 471.04)" d="m0 0c0.739 2.484 3.46 12.756 0.098 19.333h121.66v-19.333z" clip-path="url(#clipPath280)" style="fill:#ffffff icc-color(Adobe-RGB-1998, 1, 1, 1);stroke-linecap:round;stroke-linejoin:round;stroke-miterlimit:10;stroke:#1a2e35 icc-color(Adobe-RGB-1998, 0.14898682, 0.19599915, 0.21998596)"/>
 <path transform="matrix(1.3333 0 0 -1.3333 349.2 451.04)" d="m0 0h-18.56" clip-path="url(#clipPath282)" style="fill:none;stroke-linecap:round;stroke-linejoin:round;stroke-miterlimit:10;stroke:#1a2e35 icc-color(Adobe-RGB-1998, 0.14898682, 0.19599915, 0.21998596)"/>
 <path transform="matrix(1.3333 0 0 -1.3333 316.21 458.91)" d="m0 0h-2.531" clip-path="url(#clipPath284)" style="fill:none;stroke-linecap:round;stroke-linejoin:round;stroke-miterlimit:10;stroke:#1a2e35 icc-color(Adobe-RGB-1998, 0.14898682, 0.19599915, 0.21998596)"/>
 <path transform="matrix(1.3333 0 0 -1.3333 349.58 458.91)" d="m0 0h-20.809" clip-path="url(#clipPath286)" style="fill:none;stroke-linecap:round;stroke-linejoin:round;stroke-miterlimit:10;stroke:#1a2e35 icc-color(Adobe-RGB-1998, 0.14898682, 0.19599915, 0.21998596)"/>
 <path transform="matrix(1.3333 0 0 -1.3333 349 467.07)" d="m0 0h-8.565" clip-path="url(#clipPath288)" style="fill:none;stroke-linecap:round;stroke-linejoin:round;stroke-miterlimit:10;stroke:#1a2e35 icc-color(Adobe-RGB-1998, 0.14898682, 0.19599915, 0.21998596)"/>
 <path transform="matrix(1.3333 0 0 -1.3333 349.76 468.44)" d="m0 0v14.776c0 0.755-0.613 1.369-1.368 1.369h-74.419c-0.572 0-1.035 0.462-1.035 1.035 0 0.572 0.463 1.035 1.035 1.035h129.1c0.755 0 1.368-0.612 1.368-1.368v-18.918c0-1.223-0.991-2.214-2.214-2.214h-128.25c-0.572 0-1.035 0.464-1.035 1.036 0 0.571 0.463 1.035 1.035 1.035h73.572c1.224 0 2.215 0.991 2.215 2.214" clip-path="url(#clipPath290)" style="fill:#aaff00 icc-color(Adobe-RGB-1998, 0.77598572, 1, 0);stroke-linecap:round;stroke-linejoin:round;stroke-miterlimit:10;stroke:#1a2e35 icc-color(Adobe-RGB-1998, 0.14898682, 0.19599915, 0.21998596)"/>
 <path transform="matrix(1.3333 0 0 -1.3333 311.56 351.04)" d="m0 0s-10.333-0.334-25.333 3.333-27.334 1-29.667-13.333c-2.333-14.334 36-29 62.667-34.334 26.666-5.333 53.333-7.666 66.333-2 13 5.667 12.667 26 7.667 35.334-5 9.333-21.667 10.666-30.334 9.333-8.666-1.333-51.333 1.667-51.333 1.667" clip-path="url(#clipPath292)" style="fill:#1a2e35 icc-color(Adobe-RGB-1998, 0.14898682, 0.19599915, 0.21998596);stroke-linecap:round;stroke-linejoin:round;stroke-miterlimit:10;stroke:#1a2e35 icc-color(Adobe-RGB-1998, 0.14898682, 0.19599915, 0.21998596)"/>
 <path transform="matrix(1.3333 0 0 -1.3333 401.33 267.49)" d="m0 0c-1.432 9.605-2.853 19.211-4.286 28.816-1.33 8.92-1.89 18.47-4.214 27.184-3 13-7.5 20-21 22.5s-28.5-12-28.5-18.5 4.639-21.174-2.5-44.25c-2.441-7.893 6.997-9.011 18.409-5.518z" clip-path="url(#clipPath294)" style="fill:#1a2e35 icc-color(Adobe-RGB-1998, 0.14898682, 0.19599915, 0.21998596);stroke-linecap:round;stroke-linejoin:round;stroke-miterlimit:10;stroke:#1a2e35 icc-color(Adobe-RGB-1998, 0.14898682, 0.19599915, 0.21998596)"/>
 <path transform="matrix(1.3333 0 0 -1.3333 353 240.82)" d="m0 0s-16.5-2.25-24.25-4.25-10.543-4.844-13.293-10.094-6.937-24.939-10.937-33.189-11.27-10.467-12.52-19.217 5.75-11.75 11-12.75 11.75-1.25 11.75-1.25 8.5-20 25-21.5 28.75 10 36.25 14.25 8 14 8.25 25.25 6.896 36.544 5.146 43.544-4.369 8.153-15.724 13.977c-4.859 2.491-13.672 5.729-20.672 5.229" clip-path="url(#clipPath296)" style="fill:#aaff00 icc-color(Adobe-RGB-1998, 0.77598572, 1, 0);stroke-linecap:round;stroke-linejoin:round;stroke-miterlimit:10;stroke:#1a2e35 icc-color(Adobe-RGB-1998, 0.14898682, 0.19599915, 0.21998596)"/>
 <path transform="matrix(1.3333 0 0 -1.3333 283.84 311.07)" d="m0 0c-3.809-4.568-8.185-7.453-9.128-14.061-0.213-1.485-0.171-2.793 0.043-3.965 1.018-1.541 4.155-5.188 10.257-3.444 7.641 2.183 6.823 12.825 2.183 19.374-0.922 1.303-2.084 1.939-3.355 2.096" clip-path="url(#clipPath298)" style="fill:#ffffff icc-color(Adobe-RGB-1998, 1, 1, 1);stroke-linecap:round;stroke-linejoin:round;stroke-miterlimit:10;stroke:#1a2e35 icc-color(Adobe-RGB-1998, 0.14898682, 0.19599915, 0.21998596)"/>
 <path transform="matrix(1.3333 0 0 -1.3333 351.44 285.84)" d="m0 0c6.988 3.203 10.773 8.736 13.977 19.218 1.501 4.913 2.358 8.787 2.849 11.533-4.747 1.821-10.662 3.371-15.659 3.014 0 0-7.125-0.972-14.21-2.205-0.592-3.678-2.005-14.155-0.351-21.951 2.039-9.609 6.406-12.812 13.394-9.609" clip-path="url(#clipPath300)" style="fill:#ffffff icc-color(Adobe-RGB-1998, 1, 1, 1);stroke-linecap:round;stroke-linejoin:round;stroke-miterlimit:10;stroke:#1a2e35 icc-color(Adobe-RGB-1998, 0.14898682, 0.19599915, 0.21998596)"/>
 <path transform="matrix(1.3333 0 0 -1.3333 307.33 334.49)" d="m0 0s5 12.5 5 16-2.25 7-4 11.5 2.75 12 2.75 12 2.836 21.735 5.457 25.521" clip-path="url(#clipPath302)" style="fill:none;stroke-linecap:round;stroke-linejoin:round;stroke-miterlimit:10;stroke:#1a2e35 icc-color(Adobe-RGB-1998, 0.14898682, 0.19599915, 0.21998596)"/>
 <path transform="matrix(1.3333 0 0 -1.3333 275.67 301.82)" d="m0 0 3.75 4s2.325-1.444 7.75-3.25c10.133-3.374 14.75-5.5 15.25-11.5 0 0 6.75 4.25 13.5 3.5s12.75-3.5 14.75-3.75l2-0.25 0.5-3.5-3.75-19.75-29.25 3-20 17.5z" clip-path="url(#clipPath304)" style="fill:#ffffff icc-color(Adobe-RGB-1998, 1, 1, 1);stroke-linecap:round;stroke-linejoin:round;stroke-miterlimit:10;stroke:#1a2e35 icc-color(Adobe-RGB-1998, 0.14898682, 0.19599915, 0.21998596)"/>
 <path transform="matrix(1.3333 0 0 -1.3333 274 300.82)" d="m0 0 23.75-20.25 2.5 4 34 0.75-2-22-32.25 1.5-2.25-1.5-17.5 13z" clip-path="url(#clipPath306)" style="fill:#1a2e35 icc-color(Adobe-RGB-1998, 0.14898682, 0.19599915, 0.21998596);stroke-linecap:round;stroke-linejoin:round;stroke-miterlimit:10;stroke:#1a2e35 icc-color(Adobe-RGB-1998, 0.14898682, 0.19599915, 0.21998596)"/>
 <path transform="matrix(1.3333 0 0 -1.3333 384.33 291.82)" d="m0 0-0.5-28.5s-14.75-8.25-23-10.5-13.25-2.25-14-2.25-4 5.25-5.75 7-3.162 1.778-6.363 3.379c-4.453 2.226-6.387 2.621-6.137 1.621s0.5-2 2.75-3.25 3.75-2.25 3.75-2.25l0.5-1s-5.5 0.75-7.75 1.25-8 4.5-8 4.5-2.447 0.15-0.697-2.85 3.447-3.15 3.447-3.15 0.5-3 2.5-4.75 3.5-2.75 3.5-2.75-4.75 1.25-4.25 0 3.5-1.75 7.25-3.5 12.25-2 17-2.75 16-1.5 26-0.5 25 7.75 27.75 10 1 27.5 0.25 33.25-2.25 16.5-3.25 21.5-5 12-7.5 13.5-7-3.25-7.5-28" clip-path="url(#clipPath308)" style="fill:#ffffff icc-color(Adobe-RGB-1998, 1, 1, 1);stroke-linecap:round;stroke-linejoin:round;stroke-miterlimit:10;stroke:#1a2e35 icc-color(Adobe-RGB-1998, 0.14898682, 0.19599915, 0.21998596)"/>
 <path transform="matrix(1.3333 0 0 -1.3333 302 339.82)" d="m0 0s5.953-3.528 10.405-4.518" clip-path="url(#clipPath310)" style="fill:#ffffff icc-color(Adobe-RGB-1998, 1, 1, 1);stroke-linecap:round;stroke-linejoin:round;stroke-miterlimit:10;stroke:#1a2e35 icc-color(Adobe-RGB-1998, 0.14898682, 0.19599915, 0.21998596)"/>
 <path transform="matrix(1.3333 0 0 -1.3333 310 349.82)" d="m0 0s3.168-1.224 5.89-1.224" clip-path="url(#clipPath312)" style="fill:#ffffff icc-color(Adobe-RGB-1998, 1, 1, 1);stroke-linecap:round;stroke-linejoin:round;stroke-miterlimit:10;stroke:#1a2e35 icc-color(Adobe-RGB-1998, 0.14898682, 0.19599915, 0.21998596)"/>
 <path transform="matrix(1.3333 0 0 -1.3333 303.01 343.21)" d="m0 0s4.206-3.216 10.39-4.7" clip-path="url(#clipPath314)" style="fill:#ffffff icc-color(Adobe-RGB-1998, 1, 1, 1);stroke-linecap:round;stroke-linejoin:round;stroke-miterlimit:10;stroke:#1a2e35 icc-color(Adobe-RGB-1998, 0.14898682, 0.19599915, 0.21998596)"/>
 <path transform="matrix(1.3333 0 0 -1.3333 375.31 358.24)" d="m0 0c9.768 1.812 22.279 7.53 24.768 9.565 2.75 2.25 1 27.501 0.25 33.251s-2.25 16.5-3.25 21.5-5 12-7.5 13.5-7-3.25-7.5-28l-0.5-28.5s-5.733-3.207-12.049-6.167c2.437-2.65 6.547-8.242 5.781-15.149" clip-path="url(#clipPath316)" style="fill:#f37979;stroke-linecap:round;stroke-linejoin:round;stroke-miterlimit:10;stroke:#1a2e35 icc-color(Adobe-RGB-1998, 0.14898682, 0.19599915, 0.21998596)"/>
 <path transform="matrix(1.3333 0 0 -1.3333 341.17 236.87)" d="m0 0s-2.235-12.964-2.458-21.011c-0.224-8.046 5.811-16.093 14.305-5.811s7.152 27.269 7.152 27.269-8.717-4.694-18.999-0.447" clip-path="url(#clipPath318)" style="fill:#ffffff icc-color(Adobe-RGB-1998, 1, 1, 1)"/>
 <path transform="matrix(1.3333 0 0 -1.3333 341.17 236.87)" d="m0 0s-2.235-12.964-2.458-21.011c-0.224-8.046 5.811-16.093 14.305-5.811s7.152 27.269 7.152 27.269-8.717-4.694-18.999-0.447z" clip-path="url(#clipPath320)" style="fill:none;stroke-linecap:round;stroke-linejoin:round;stroke-miterlimit:10;stroke:#1a2e35 icc-color(Adobe-RGB-1998, 0.14898682, 0.19599915, 0.21998596)"/>
 <path transform="matrix(1.3333 0 0 -1.3333 342.06 244.32)" d="m0 0s0.447-6.929-0.224-10.729" clip-path="url(#clipPath322)" style="fill:none;stroke-linecap:round;stroke-linejoin:round;stroke-miterlimit:10;stroke:#1a2e35 icc-color(Adobe-RGB-1998, 0.14898682, 0.19599915, 0.21998596)"/>
 <path transform="matrix(1.3333 0 0 -1.3333 274.89 326.29)" d="m0 0s-0.634-1.776 0.38-3.425c1.016-1.65 6.344-4.822 6.344-3.553s-2.664 3.045-2.791 3.933-0.888 2.157-0.888 2.157-1.903 2.41-3.045 0.888" clip-path="url(#clipPath324)" style="fill:#ffffff icc-color(Adobe-RGB-1998, 1, 1, 1)"/>
 <path transform="matrix(1.3333 0 0 -1.3333 274.89 326.29)" d="m0 0s-0.634-1.776 0.38-3.425c1.016-1.65 6.344-4.822 6.344-3.553s-2.664 3.045-2.791 3.933-0.888 2.157-0.888 2.157-1.903 2.41-3.045 0.888z" clip-path="url(#clipPath326)" style="fill:none;stroke-linecap:round;stroke-linejoin:round;stroke-miterlimit:10;stroke:#1a2e35 icc-color(Adobe-RGB-1998, 0.14898682, 0.19599915, 0.21998596)"/>
 <path transform="matrix(1.3333 0 0 -1.3333 271.49 316.4)" d="m0 0s-0.247-3.706 0.385-5.442 7.318-6.35 9.036-5.465-3.567 5.471-4.814 6.909c-1.246 1.438-4.607 3.998-4.607 3.998" clip-path="url(#clipPath328)" style="fill:#ffffff icc-color(Adobe-RGB-1998, 1, 1, 1);stroke-linecap:round;stroke-linejoin:round;stroke-miterlimit:10;stroke:#1a2e35 icc-color(Adobe-RGB-1998, 0.14898682, 0.19599915, 0.21998596)"/>
 <path transform="matrix(1.3333 0 0 -1.3333 271.51 310.38)" d="m0 0s-0.507-3.679 0-5.455 6.851-6.851 8.627-6.09-3.171 5.709-4.314 7.232c-1.141 1.522-4.313 4.313-4.313 4.313" clip-path="url(#clipPath330)" style="fill:#ffffff icc-color(Adobe-RGB-1998, 1, 1, 1);stroke-linecap:round;stroke-linejoin:round;stroke-miterlimit:10;stroke:#1a2e35 icc-color(Adobe-RGB-1998, 0.14898682, 0.19599915, 0.21998596)"/>
 <path transform="matrix(1.3333 0 0 -1.3333 275.57 304.8)" d="m0 0s-3.806 2.03-4.44-0.507c-0.635-2.538 2.283-5.202 4.947-7.359 2.665-2.157 3.806-1.776 3.806 0.254 0 2.029-4.313 7.612-4.313 7.612" clip-path="url(#clipPath332)" style="fill:#ffffff icc-color(Adobe-RGB-1998, 1, 1, 1);stroke-linecap:round;stroke-linejoin:round;stroke-miterlimit:10;stroke:#1a2e35 icc-color(Adobe-RGB-1998, 0.14898682, 0.19599915, 0.21998596)"/>
 <path transform="matrix(1.3333 0 0 -1.3333 275.11 410.6)" d="m0 0s-5-2.667-14.333-3c-9.334-0.333-17 4.667-12.667 8.667s11 6.333 17 5.333 15-3.333 15-3.333z" clip-path="url(#clipPath334)" style="fill:#ffffff icc-color(Adobe-RGB-1998, 1, 1, 1);stroke-linecap:round;stroke-linejoin:round;stroke-miterlimit:10;stroke:#1a2e35 icc-color(Adobe-RGB-1998, 0.14898682, 0.19599915, 0.21998596)"/>
 <path transform="matrix(1.3333 0 0 -1.3333 276.89 399.49)" d="m0 0c0.455-0.053 0.931-0.081 1.414-0.099-3.058 0.755-8.614 2.078-12.747 2.766-6 1-12.667-1.333-17-5.333-2.208-2.038-1.297-4.334 1.358-6.054-0.164 1.881 0.223 4.954 3.975 6.72 5.667 2.667 17.333 2.667 23 2" clip-path="url(#clipPath336)" style="fill:#ffffff icc-color(Adobe-RGB-1998, 1, 1, 1)"/>
 <path transform="matrix(1.3333 0 0 -1.3333 276.89 399.49)" d="m0 0c0.455-0.053 0.931-0.081 1.414-0.099-3.058 0.755-8.614 2.078-12.747 2.766-6 1-12.667-1.333-17-5.333-2.208-2.038-1.297-4.334 1.358-6.054-0.164 1.881 0.223 4.954 3.975 6.72 5.667 2.667 17.333 2.667 23 2z" clip-path="url(#clipPath338)" style="fill:none;stroke-linecap:round;stroke-linejoin:round;stroke-miterlimit:10;stroke:#1a2e35 icc-color(Adobe-RGB-1998, 0.14898682, 0.19599915, 0.21998596)"/>
 <path transform="matrix(1.3333 0 0 -1.3333 414.22 373.71)" d="m0 0s-10-15-20-21-55.667-6.667-65-6.667h-19.333v7s30.666 4.333 47.666 14 26 20.333 39.333 24.667c13.334 4.333 25-3 24.667-21" clip-path="url(#clipPath340)" style="fill:#1a2e35 icc-color(Adobe-RGB-1998, 0.14898682, 0.19599915, 0.21998596);stroke-linecap:round;stroke-linejoin:round;stroke-miterlimit:10;stroke:#1a2e35 icc-color(Adobe-RGB-1998, 0.14898682, 0.19599915, 0.21998596)"/>
 <path transform="matrix(1.3333 0 0 -1.3333 405.26 389.01)" d="m0 0c-5.39-5.097-14.742-11.752-29.157-14.422" clip-path="url(#clipPath342)" style="fill:none;stroke-linecap:round;stroke-linejoin:round;stroke-miterlimit:10;stroke:#ffffff icc-color(Adobe-RGB-1998, 1, 1, 1)"/>
 <path transform="matrix(1.3333 0 0 -1.3333 414 378.16)" d="m0 0s-0.834-1.668-2.81-4.112" clip-path="url(#clipPath344)" style="fill:none;stroke-linecap:round;stroke-linejoin:round;stroke-miterlimit:10;stroke:#ffffff icc-color(Adobe-RGB-1998, 1, 1, 1)"/>
 <path transform="matrix(1.3333 0 0 -1.3333 346.67 380.16)" d="m0 0s-6.5-5.5-16-6" clip-path="url(#clipPath346)" style="fill:none;stroke-linecap:round;stroke-linejoin:round;stroke-miterlimit:10;stroke:#ffffff icc-color(Adobe-RGB-1998, 1, 1, 1)"/>
 <path transform="matrix(1.3333 0 0 -1.3333 267.25 354.74)" d="m0 0c-0.364 0.04-0.73 0.075-1.101 0.105" clip-path="url(#clipPath348)" style="fill:#1a2e35 icc-color(Adobe-RGB-1998, 0.14898682, 0.19599915, 0.21998596);stroke-linecap:round;stroke-linejoin:round;stroke-miterlimit:10;stroke:#1a2e35 icc-color(Adobe-RGB-1998, 0.14898682, 0.19599915, 0.21998596)"/>
 <path transform="matrix(1.3333 0 0 -1.3333 392.44 412.38)" d="m0 0s8.334 3 15.334 4 12.666 0 14.666-4.334c2-4.333 0.667-9.666-6.333-11-7-1.333-19.667 1.334-21 1.334s-3.333 1-3.333 1z" clip-path="url(#clipPath350)" style="fill:#ffffff icc-color(Adobe-RGB-1998, 1, 1, 1);stroke-linecap:round;stroke-linejoin:round;stroke-miterlimit:10;stroke:#1a2e35 icc-color(Adobe-RGB-1998, 0.14898682, 0.19599915, 0.21998596)"/>
 <path transform="matrix(1.3333 0 0 -1.3333 421.68 406.69)" d="m0 0c2.129-0.82 6.149-3.075 5.408-8.266-1-7-9.334-7-15-7-0.426 0-0.837-0.064-1.235-0.173 4.196-0.497 9.084-0.824 12.568-0.161 7 1.334 8.333 6.667 6.333 11-1.318 2.858-4.237 4.259-8.074 4.6" clip-path="url(#clipPath352)" style="fill:#ffffff icc-color(Adobe-RGB-1998, 1, 1, 1);stroke-linecap:round;stroke-linejoin:round;stroke-miterlimit:10;stroke:#1a2e35 icc-color(Adobe-RGB-1998, 0.14898682, 0.19599915, 0.21998596)"/>
 <path transform="matrix(1.3333 0 0 -1.3333 262.22 344.82)" d="m0 0s-11.333 2-18.667-3.666c-7.333-5.667-6.333-11.667 0.667-20.334 7-8.666 25-24 64-31s51-4.666 51-4.666l0.667 9s-24.334-1.334-46.667 15c-21.827 15.963-31.555 26.514-47.232 28.228" clip-path="url(#clipPath354)" style="fill:#1a2e35 icc-color(Adobe-RGB-1998, 0.14898682, 0.19599915, 0.21998596);stroke-linecap:round;stroke-linejoin:round;stroke-miterlimit:10;stroke:#1a2e35 icc-color(Adobe-RGB-1998, 0.14898682, 0.19599915, 0.21998596)"/>
 <path transform="matrix(1.3333 0 0 -1.3333 261.44 354.92)" d="m0 0c-1.205-0.063-2.392-0.21-3.578-0.426" clip-path="url(#clipPath356)" style="fill:none;stroke-linecap:round;stroke-linejoin:round;stroke-miterlimit:10;stroke:#ffffff icc-color(Adobe-RGB-1998, 1, 1, 1)"/>
 <path transform="matrix(1.3333 0 0 -1.3333 386 412.16)" d="m0 0s-23 0.5-49 20.5c-18.375 14.136-29.259 20.278-37.945 21.96" clip-path="url(#clipPath358)" style="fill:none;stroke-linecap:round;stroke-linejoin:round;stroke-miterlimit:10;stroke:#ffffff icc-color(Adobe-RGB-1998, 1, 1, 1)"/>
 <path transform="matrix(1.3333 0 0 -1.3333 385.71 218.34)" d="m0 0c-6.141-3.235-6.97 3.258-6.95 7.178 0.063 0.056 0.107 0.114 0.122 0.175 0.449 1.796 0 10.781-5.166 14.376-4.556 3.168-10.6 5.902-16.237 5.91-3.975 6e-3 -7.499-2.527-9.629-5.745-2.536-3.83-2.319-8.269-2.526-12.696-0.21-4.472-0.63-9.298 0.255-13.722 1.18-5.902 6.689-18.296 13.377-18.296 6.073 0 16.849 9.082 20.547 14.435 0.429 0.128 1.297 0.466 2.272 1.303 1.378 1.18 4.132 3.147 3.935 7.082" clip-path="url(#clipPath360)" style="fill:#ffc19d;stroke-linecap:round;stroke-linejoin:round;stroke-miterlimit:10;stroke:#1a2e35 icc-color(Adobe-RGB-1998, 0.14898682, 0.19599915, 0.21998596)"/>
 <path transform="matrix(1.3333 0 0 -1.3333 350.04 213.09)" d="m0 0s-2.754-8.459-2.558-9.443c0.198-0.983 3.541 0 3.541 0" clip-path="url(#clipPath362)" style="fill:none;stroke-linecap:round;stroke-linejoin:round;stroke-miterlimit:10;stroke:#1a2e35 icc-color(Adobe-RGB-1998, 0.14898682, 0.19599915, 0.21998596)"/>
 <path transform="matrix(1.3333 0 0 -1.3333 346.63 230.4)" d="m0 0s3.638-2.738 9.442 1.574" clip-path="url(#clipPath364)" style="fill:none;stroke-linecap:round;stroke-linejoin:round;stroke-miterlimit:10;stroke:#1a2e35 icc-color(Adobe-RGB-1998, 0.14898682, 0.19599915, 0.21998596)"/>
 <path transform="matrix(1.3333 0 0 -1.3333 358.43 217.02)" d="m0 0s1.968-4.131 8.263-1.771" clip-path="url(#clipPath366)" style="fill:none;stroke-linecap:round;stroke-linejoin:round;stroke-miterlimit:10;stroke:#1a2e35 icc-color(Adobe-RGB-1998, 0.14898682, 0.19599915, 0.21998596)"/>
 <path transform="matrix(1.3333 0 0 -1.3333 334.56 210.47)" d="m0 0s1.18-4.131 7.476-2.558" clip-path="url(#clipPath368)" style="fill:none;stroke-linecap:round;stroke-linejoin:round;stroke-miterlimit:10;stroke:#1a2e35 icc-color(Adobe-RGB-1998, 0.14898682, 0.19599915, 0.21998596)"/>
 <path transform="matrix(1.3333 0 0 -1.3333 349.43 206.28)" d="m0 0s-2.229 8.027-9.578 3.942" clip-path="url(#clipPath370)" style="fill:none;stroke-linecap:round;stroke-linejoin:round;stroke-miterlimit:10;stroke:#1a2e35 icc-color(Adobe-RGB-1998, 0.14898682, 0.19599915, 0.21998596)"/>
 <path transform="matrix(1.3333 0 0 -1.3333 373.38 217.81)" d="m0 0c0 4.346-3.522 7.869-7.868 7.869-4.347 0-7.869-3.523-7.869-7.869s3.522-7.869 7.869-7.869c4.346 0 7.868 3.523 7.868 7.869z" clip-path="url(#clipPath372)" style="fill:none;stroke-linecap:round;stroke-linejoin:round;stroke-miterlimit:10;stroke:#1a2e35 icc-color(Adobe-RGB-1998, 0.14898682, 0.19599915, 0.21998596)"/>
 <path transform="matrix(1.3333 0 0 -1.3333 349.25 213.09)" d="m0 0c0 4.346-3.523 7.869-7.869 7.869s-7.869-3.523-7.869-7.869 3.523-7.869 7.869-7.869 7.869 3.523 7.869 7.869z" clip-path="url(#clipPath374)" style="fill:none;stroke-linecap:round;stroke-linejoin:round;stroke-miterlimit:10;stroke:#1a2e35 icc-color(Adobe-RGB-1998, 0.14898682, 0.19599915, 0.21998596)"/>
 <path transform="matrix(1.3333 0 0 -1.3333 372.86 219.91)" d="m0 0 6.491 1.18" clip-path="url(#clipPath376)" style="fill:none;stroke-linecap:round;stroke-linejoin:round;stroke-miterlimit:10;stroke:#1a2e35 icc-color(Adobe-RGB-1998, 0.14898682, 0.19599915, 0.21998596)"/>
 <path transform="matrix(1.3333 0 0 -1.3333 328.53 210.47)" d="m0 0 2.361 1.771" clip-path="url(#clipPath378)" style="fill:none;stroke-linecap:round;stroke-linejoin:round;stroke-miterlimit:10;stroke:#1a2e35 icc-color(Adobe-RGB-1998, 0.14898682, 0.19599915, 0.21998596)"/>
 <path transform="matrix(1.3333 0 0 -1.3333 338.87 185.47)" d="m0 0s6.964 4.268 9.435 0.225c2.47-4.044 13.656-30.878 25.696-24.873 12.04 6.004-0.089 25.771-11.77 32.061-11.68 6.289-21.564 0.898-23.361-7.413" clip-path="url(#clipPath380)" style="fill:#1a2e35 icc-color(Adobe-RGB-1998, 0.14898682, 0.19599915, 0.21998596);stroke-linecap:round;stroke-linejoin:round;stroke-miterlimit:10;stroke:#1a2e35 icc-color(Adobe-RGB-1998, 0.14898682, 0.19599915, 0.21998596)"/>
 <path transform="matrix(1.3333 0 0 -1.3333 348.07 181.48)" d="m0 0s-3.929 3.312-6.219 1.786c-2.289-1.527-2.289-3.434-2.289-3.434" clip-path="url(#clipPath382)" style="fill:none;stroke-linecap:round;stroke-linejoin:round;stroke-miterlimit:10;stroke:#ffffff icc-color(Adobe-RGB-1998, 1, 1, 1)"/>
 <path transform="matrix(1.3333 0 0 -1.3333 386.28 208.93)" d="m0 0c0.892-0.565 1.852-1.001 2.9-1.287" clip-path="url(#clipPath384)" style="fill:none;stroke-linecap:round;stroke-linejoin:round;stroke-miterlimit:10;stroke:#ffffff icc-color(Adobe-RGB-1998, 1, 1, 1)"/>
 <path transform="matrix(1.3333 0 0 -1.3333 345.88 170.45)" d="m0 0s6.869 7.632 14.501-4.198c5.008-7.762 7.88-15.526 11.635-20.593" clip-path="url(#clipPath386)" style="fill:none;stroke-linecap:round;stroke-linejoin:round;stroke-miterlimit:10;stroke:#ffffff icc-color(Adobe-RGB-1998, 1, 1, 1)"/>
 <path transform="matrix(1.3333 0 0 -1.3333 360.87 204.81)" d="m0 0s5.509 2.951 10.229-1.574" clip-path="url(#clipPath388)" style="fill:none;stroke-linecap:round;stroke-linejoin:round;stroke-miterlimit:10;stroke:#ffffff icc-color(Adobe-RGB-1998, 1, 1, 1)"/>
 <path transform="matrix(1.3333 0 0 -1.3333 347.19 306.71)" d="m0 0s7.543-9.429 19.988-9.429" clip-path="url(#clipPath390)" style="fill:none;stroke-linecap:round;stroke-linejoin:round;stroke-miterlimit:10;stroke:#1a2e35 icc-color(Adobe-RGB-1998, 0.14898682, 0.19599915, 0.21998596)"/>
 <path d="m331.38 375.5c-7.3843-1.8709-15.173-7.518-20.958-15.195-1.9494-2.587-3.9455-5.4795-4.4359-6.4278-0.8787-1.6992-0.87231-1.7183 0.44189-1.3186 0.73342 0.22307 3.1232 1.1586 5.3105 2.079 7.4111 3.1184 26.221 5.3706 44.854 5.3706h13.231l-8.9249 6.5178c-13.08 9.5521-12.71 9.3741-20.005 9.6199-4.1715 0.14054-7.2275-0.0671-9.5137-0.6463z" style="fill:#f37979;stroke-width:.57418;stroke:#ffffff"/>
 <path d="m353.43 341.78c9e-3 -0.39475 0.38928-4.4643 0.84422-9.0434 1.114-11.213 1.101-11.861-0.2459-12.213-0.76018-0.19878-1.1651-0.89135-1.2919-2.2098-0.14286-1.4849-0.5102-2.0082-1.6202-2.308-0.7895-0.21326-3.6317-1.0431-6.316-1.8441-9.7798-2.9182-12.362-3.4242-17.513-3.4322-3.6741-6e-3 -6.1872 0.32942-8.6956 1.1595l-3.5279 1.1675-0.34498-2.1574c-0.18974-1.1866-1.509-4.9357-2.9316-8.3314-1.4858-3.5464-2.5867-7.0771-2.5867-8.296 0-2.1907 1.4858-7.1067 3.0792-10.188 0.49976-0.96643 1.4502-5.3364 2.112-9.7111 1.5407-10.184 3.6014-19.776 5.1214-23.839l1.1948-3.1933 5.8736-1.174c3.2304-0.6457 5.9465-1.1034 6.0357-1.017 0.0892 0.0863-0.13907 3.2277-0.50718 6.9808-1.2722 12.971 0.43735 25.357 4.297 31.132 3.6705 5.492 8.8588 6.459 16.207 3.0206 10.451-4.8907 16.831-16.251 21.725-38.682l0.34722-1.5916 16.064 8.1509-1.1323 1.4395c-4.0726 5.1775-6.2594 20.703-6.4166 45.556-0.041 6.4739-0.2358 15.49-0.43297 20.036l-0.35849 8.2652-8.8998 4.4761c-7.8954 3.9709-18.478 8.5819-19.666 8.5688-0.23685-3e-3 -0.42296-0.32773-0.41358-0.72248zm21.228-22.537c0-0.59367-0.59588-0.86127-1.9178-0.86127-3.1274 0-10.536-2.1343-14.215-4.0951-1.8848-1.0046-5.2252-3.3364-7.423-5.1818-2.1978-1.8454-4.1273-3.3552-4.2878-3.3552s-0.29179 0.49719-0.29179 1.1049c0 1.3906 6.4376 6.8006 10.961 9.2117 6.0928 3.2474 17.174 5.2971 17.174 3.1767z" style="fill:#f37979;stroke-width:.57418;stroke:#ffffff"/>
 <path d="m248.27 472.8c0-0.26844 16.718-0.406 49.343-0.406 52.853 0 51.451 0.0526 52.532-1.969 0.28325-0.52925 0.43869-4.7134 0.43869-11.809 0-10.448-0.04-11.029-0.81202-11.801-0.80328-0.80328-1.3534-0.81202-51.157-0.81202-33.293 0-50.345-0.13752-50.345-0.40601 0-0.2694 29.165-0.406 86.683-0.406h86.683v13.52c0 9.9743-0.12778 13.648-0.48721 14.007-0.63627 0.63627-172.88 0.71717-172.88 0.0812z" style="fill:#f37979;stroke-width:.40601;stroke:#ffffff"/>
 <path d="m343.16 276.03c-4.2475-3.574-5.0839-10.454-2.906-23.902l1.1178-6.9022-0.32744 7.1052c-0.26816 5.8188-0.11409 7.1052 0.85106 7.1052 0.92559 0 1.1785-1.3114 1.1785-6.111v-6.111l2.3957 1.2389c4.4027 2.2767 10.654 0.95129 17.074-3.6199 1.2647-0.90054 2.4517-1.6373 2.6379-1.6373 0.60637 0-0.9024 10.456-2.0799 14.413-2.6246 8.8217-7.8897 16.788-12.761 19.307-3.199 1.6542-4.3281 1.515-7.1809-0.8855z" style="fill:#ffc19d"/>
 <path d="m345.11 357.95c-17.175-1.5182-32.887-4.2207-32.887-5.6565 0-0.26791 1.4616-0.25339 3.2481 0.0323 3.4424 0.55046 3.9101 6e-3 2.4075-2.8013-0.46232-0.86386-1.4672-1.5762-2.233-1.5831-0.76585-7e-3 -1.9406-0.38274-2.6105-0.83533-0.93661-0.63278-0.67488-0.77061 1.1329-0.59658 3.0681 0.29536 3.6616-1.4434 0.74274-2.1759-4.6959-1.1786-13.811-5.9622-15.533-8.1522-0.9863-1.2539-1.6452-2.4278-1.4643-2.6087s2.1694 0.80351 4.4189 2.1876c3.8655 2.3785 16.677 5.6789 17.776 4.5795 1.0051-1.0051-0.78076-3.0828-4.7476-5.5237-5.9839-3.6819-3.7426-3.7328 3.8117-0.0866 5.2716 2.5445 7.0215 3.9134 10.157 7.9462l3.7886 4.8721 5.3402-0.17442c6.7782-0.22138 14.282-1.9601 22.537-5.2223 6.3274-2.5003 6.5226-2.5261 7.7345-1.0202 2.2598 2.8079 5.0779 9.6128 5.3475 12.913l0.2654 3.2481-4.4661 0.52871c-4.6518 0.55069-19.143 0.62628-24.767 0.12918z" style="fill:#ffc19d;stroke-width:.81202;stroke:#ffffff"/>
 <path d="m279.2 323.49c-1.3808-0.8374-3.515-2.5096-4.7427-3.7159-2.1612-2.1237-2.2322-2.2633-2.2322-4.3941v-2.2007l0.93894 0.73999c2.4062 1.8964 3.5024 2.9761 5.7631 5.6766 3.016 3.6028 4.135 5.4166 3.3418 5.4166-0.30711 0-1.6881-0.68514-3.0689-1.5225z" style="fill:#ffc19d;stroke-width:.40601;stroke:#ffffff"/>
 <path d="m277.86 315.28c-2.4396-1.616-6.7424-6.1392-7.0658-7.428-0.46181-1.84-0.088-2.9303 1.0501-3.0628 2.0945-0.24391 3.174 0.60626 5.6692 4.4647 3.6589 5.6578 3.812 8.3216 0.34648 6.0262z" style="fill:#ffc19d;stroke-width:.40601;stroke:#ffffff"/>
 <path d="m280.03 328.99c-3.3537-1.676-7.2477-5.3562-7.553-7.1383l-0.2274-1.3272 2.4603 2.0475c1.3532 1.1261 3.3405 2.4936 4.4164 3.0387s2.5227 1.6786 3.2152 2.5187c2.1286 2.5824 1.5586 2.7946-2.3115 0.86054z" style="fill:#ffc19d;stroke-width:.40601;stroke:#ffffff"/>
 <path d="m279.21 339.2c-2.0622-0.41048-3.869-1.4587-5.5559-3.2233-1.0701-1.1193-1.215-1.5543-1.1934-3.581 0.0307-2.874 0.4978-5.352 1.0087-5.352 0.21319 0 0.38761 0.59664 0.38761 1.3259 0 0.72922 0.31973 1.9062 0.71052 2.6156 1.434 2.6029 6.7567 5.8995 9.2537 5.7314 0.98114-0.0661 1.6745 0.16145 2.2521 0.73903l0.8345 0.8345-1.7548 0.4513c-2.8463 0.73201-4.0882 0.82785-5.9431 0.45864z" style="fill:#ffc19d;stroke-width:.40601;stroke:#ffffff"/>
 <path d="m281.16 334.29c-3.5801-1.904-5.2688-3.5315-5.6776-5.4716l-0.13812-0.65556 1.7717 1.1123c0.97445 0.61177 1.8468 1.1123 1.9385 1.1123 0.0917 0 0.30942 0.27577 0.48372 0.61282 0.17429 0.33705 0.88659 1.2277 1.5829 1.9793 2.2242 2.4008 2.2264 2.4738 0.0388 1.3104z" style="fill:#ffc19d;stroke-width:.203;stroke:#ffffff"/>
 <path d="m345.45 278.11c-2.7774-0.76734-4.9198-3.4237-6.1357-7.6079-0.91961-3.1646-0.73447-9.1398 0.61327-19.793 0.82212-6.4984 0.81253-6.4468 1.1464-6.1697 0.15295 0.12694 0.27809 0.34902 0.27809 0.49353 0 0.1445 0.0685 0.29318 0.15225 0.3304 0.0837 0.0372 0.076 2.9312-0.0171 6.4311-0.0931 3.4999-0.11424 6.583-0.0469 6.8514 0.0674 0.26837 0.26002 0.48795 0.42813 0.48795 0.64086 0 0.77607-1.0489 0.85047-6.5976 0.0404-3.0146 0.11583-5.6054 0.16756-5.7573 0.071-0.20863 0.25483-0.15363 0.75159 0.22495 0.94991 0.72392 2.5259 1.4859 3.8987 1.885 0.91552 0.26614 1.6942 0.3249 3.3409 0.25208 3.6717-0.16237 6.5976-1.3735 11.933-4.9396l2.8004-1.8717 0.0689 0.73871c0.10416 1.1174-0.3388 5.4539-0.89456 8.7574-1.535 9.124-4.9104 16.62-9.7967 21.757-3.6071 3.792-6.7687 5.2926-9.5388 4.5273zm4.4135-1.3412c5.5848-2.6906 11.772-12.855 13.701-22.507 0.80221-4.0146 1.6623-10.556 1.3879-10.556-0.0671 0-1.2427 0.73404-2.6123 1.6312-4.6193 3.0258-8.4768 4.4589-12.002 4.4589-2.0586 0-3.6944-0.39254-5.5683-1.3362l-1.3879-0.69892-1e-3 4.4179c-2e-3 6.212-0.31484 7.6748-1.6108 7.5233-0.92671-0.10828-1.1292-0.9054-1.0985-4.3234 0.031-3.4497-0.14127-3.3626-0.61495 0.31073-1.5094 11.705-0.32769 17.573 4.1804 20.759 1.5441 1.0911 1.6256 1.1234 2.8858 1.1436 0.777 0.0125 1.3886-0.17108 2.7406-0.82243z" style="fill:#ffc19d"/>
 <path d="m311.72 313.82c-0.13478-0.60227-0.55321-1.7102-0.92984-2.462-2.0069-4.0062-6.3334-6.7095-16.134-10.081-1.5073-0.51854-2.9449-1.0284-3.1946-1.1331l-0.45404-0.19031 0.88384-2.4924c1.1849-3.3413 3.049-9.4666 6.0098-19.748 3.9606-13.753 5.0758-16.749 7.7399-20.793 2.1206-3.2189 4.6734-5.47 8.0976-7.1406 1.4809-0.72254 4.2925-1.8067 4.6853-1.8067 0.10727 0 0.0145 0.35381-0.20608 0.78624-1.606 3.1481-4.7549 18.435-6.2987 30.578-0.19858 1.562-0.41965 2.2246-1.5239 4.5676-2.2612 4.7979-3.0498 7.8444-2.9085 11.235 0.0962 2.3088 0.11694 2.3712 2.8062 8.4561 2.2125 5.0061 2.6574 6.4052 2.7755 8.7292l0.0981 1.9285-0.60075 0.33046-0.60076 0.33046z" style="fill:#f37979"/>
 <path d="m298.42 347.51c-6.5518-0.54074-10.791-1.1273-13.898-1.9231-2.3822-0.61009-5.3824-1.8947-6.9456-2.9739-1.3494-0.93162-3.8226-3.56-3.579-3.8036 0.0442-0.0442 0.48744 0.19151 0.98498 0.5238s1.6354 0.84173 2.5286 1.1321c2.95 0.95898 7.0931 0.65599 9.9334-0.72645l1.2042-0.58611 5.495 4.0707c6.2976 4.6652 6.0069 4.4327 5.4848 4.3877-0.21772-0.0188-0.76127-0.0643-1.2079-0.10114z" style="fill:#f37979"/>
 <path d="m103.44 505.68h460.15" style="fill:none;stroke-linecap:round;stroke-linejoin:round;stroke-miterlimit:10;stroke-width:1.3333;stroke:#1a2e35 icc-color(Adobe-RGB-1998, 0.14898682, 0.19599915, 0.21998596)"/>
</svg>
