<?xml version="1.0" encoding="UTF-8"?>
<!-- Created with Inkscape (http://www.inkscape.org/) -->
<svg id="svg1" width="400" height="400" version="1.1" viewBox="0 0 400 400" xmlns="http://www.w3.org/2000/svg" xmlns:xlink="http://www.w3.org/1999/xlink">
 <defs>
  <clipPath id="clipPath2">
   <path transform="translate(-324.83 -329.94)" d="m0 500h750v-500h-750z"/>
  </clipPath>
  <clipPath id="clipPath4">
   <path transform="translate(-232.16 -405.61)" d="m0 500h750v-500h-750z"/>
  </clipPath>
  <clipPath id="clipPath14">
   <path transform="translate(-81.44 -373.76)" d="m0 500h750v-500h-750z"/>
  </clipPath>
  <clipPath id="clipPath331">
   <path transform="translate(-207.39 -96.963)" d="m0 500h750v-500h-750z"/>
  </clipPath>
  <clipPath id="clipPath333">
   <path transform="translate(-210.69 -239.34)" d="m0 500h750v-500h-750z"/>
  </clipPath>
  <clipPath id="clipPath335">
   <path transform="translate(-210.69 -239.34)" d="m0 500h750v-500h-750z"/>
  </clipPath>
  <clipPath id="clipPath337">
   <path transform="translate(-100.92 -230.85)" d="m0 500h750v-500h-750z"/>
  </clipPath>
  <clipPath id="clipPath338">
   <path transform="translate(-108.3 -237.13)" d="m107.79 239.38h2.904v-19.874h-2.904z"/>
  </clipPath>
  <clipPath id="clipPath340">
   <path transform="matrix(1.3333 0 0 -1.3333 0 666.67)" d="m0 500h750v-500h-750z"/>
  </clipPath>
  <clipPath id="clipPath342">
   <path transform="translate(-172.02 -208.72)" d="m0 500h750v-500h-750z"/>
  </clipPath>
  <clipPath id="clipPath344">
   <path transform="translate(-167.34 -197.58)" d="m0 500h750v-500h-750z"/>
  </clipPath>
  <clipPath id="clipPath346">
   <path transform="translate(-175.82 -196)" d="m0 500h750v-500h-750z"/>
  </clipPath>
  <clipPath id="clipPath348">
   <path transform="translate(-99.574 -183.25)" d="m0 500h750v-500h-750z"/>
  </clipPath>
  <clipPath id="clipPath350">
   <path transform="translate(-174.47 -196.32)" d="m0 500h750v-500h-750z"/>
  </clipPath>
  <clipPath id="clipPath352">
   <path transform="translate(-107.71 -169.25)" d="m0 500h750v-500h-750z"/>
  </clipPath>
  <clipPath id="clipPath354">
   <path transform="translate(-194.95 -121.55)" d="m0 500h750v-500h-750z"/>
  </clipPath>
  <clipPath id="clipPath356">
   <path transform="translate(-190.74 -136.43)" d="m0 500h750v-500h-750z"/>
  </clipPath>
  <clipPath id="clipPath358">
   <path transform="translate(-171.86 -175.1)" d="m0 500h750v-500h-750z"/>
  </clipPath>
  <clipPath id="clipPath359">
   <path transform="translate(-108.55 -144.18)" d="m104.93 170.49h3.756v-26.311h-3.756z"/>
  </clipPath>
  <clipPath id="clipPath361">
   <path transform="matrix(1.3333 0 0 -1.3333 0 666.67)" d="m0 500h750v-500h-750z"/>
  </clipPath>
  <clipPath id="clipPath362">
   <path transform="translate(-149.92 -135.27)" d="m140.39 141.74h21.388v-10.855h-21.388z"/>
  </clipPath>
  <clipPath id="clipPath364">
   <path transform="matrix(1.3333 0 0 -1.3333 0 666.67)" d="m0 500h750v-500h-750z"/>
  </clipPath>
  <clipPath id="clipPath366">
   <path transform="translate(-136.95 -147.99)" d="m0 500h750v-500h-750z"/>
  </clipPath>
  <clipPath id="clipPath368">
   <path transform="translate(-175.37 -105.97)" d="m0 500h750v-500h-750z"/>
  </clipPath>
  <clipPath id="clipPath370">
   <path transform="translate(-172.36 -165.58)" d="m0 500h750v-500h-750z"/>
  </clipPath>
  <clipPath id="clipPath372">
   <path transform="translate(-170.04 -123.46)" d="m0 500h750v-500h-750z"/>
  </clipPath>
  <clipPath id="clipPath374">
   <path transform="translate(-133.17 -124.51)" d="m0 500h750v-500h-750z"/>
  </clipPath>
  <clipPath id="clipPath376">
   <path transform="translate(-133.37 -124.42)" d="m0 500h750v-500h-750z"/>
  </clipPath>
  <clipPath id="clipPath378">
   <path transform="translate(-133.2 -124.49)" d="m0 500h750v-500h-750z"/>
  </clipPath>
  <clipPath id="clipPath380">
   <path transform="translate(-133.1 -124.55)" d="m0 500h750v-500h-750z"/>
  </clipPath>
  <clipPath id="clipPath382">
   <path transform="translate(-115.97 -108.82)" d="m0 500h750v-500h-750z"/>
  </clipPath>
  <clipPath id="clipPath384">
   <path transform="translate(-133.44 -124.38)" d="m0 500h750v-500h-750z"/>
  </clipPath>
  <clipPath id="clipPath386">
   <path transform="translate(-133.54 -124.33)" d="m0 500h750v-500h-750z"/>
  </clipPath>
  <clipPath id="clipPath388">
   <path transform="translate(-133.51 -124.35)" d="m0 500h750v-500h-750z"/>
  </clipPath>
  <clipPath id="clipPath390">
   <path transform="translate(-147.47 -108.18)" d="m0 500h750v-500h-750z"/>
  </clipPath>
  <clipPath id="clipPath392">
   <path transform="translate(-129.14 -119.1)" d="m0 500h750v-500h-750z"/>
  </clipPath>
  <clipPath id="clipPath394">
   <path transform="translate(-127.24 -111.52)" d="m0 500h750v-500h-750z"/>
  </clipPath>
  <clipPath id="clipPath396">
   <path transform="translate(-133.37 -107.65)" d="m0 500h750v-500h-750z"/>
  </clipPath>
  <clipPath id="clipPath398">
   <path transform="translate(-128.18 -111.02)" d="m0 500h750v-500h-750z"/>
  </clipPath>
  <clipPath id="clipPath400">
   <path transform="translate(-125.49 -115.25)" d="m0 500h750v-500h-750z"/>
  </clipPath>
  <clipPath id="clipPath402">
   <path transform="translate(-126.4 -122.8)" d="m0 500h750v-500h-750z"/>
  </clipPath>
  <clipPath id="clipPath404">
   <path transform="translate(-178.92 -105.18)" d="m0 500h750v-500h-750z"/>
  </clipPath>
  <clipPath id="clipPath406">
   <path transform="translate(-41.298 -149.24)" d="m0 500h750v-500h-750z"/>
  </clipPath>
  <clipPath id="clipPath408">
   <path transform="translate(-41.298 -149.24)" d="m0 500h750v-500h-750z"/>
  </clipPath>
  <clipPath id="clipPath410">
   <path transform="translate(-83.634 -125.46)" d="m0 500h750v-500h-750z"/>
  </clipPath>
  <clipPath id="clipPath412">
   <path transform="translate(-41.384 -148.82)" d="m0 500h750v-500h-750z"/>
  </clipPath>
  <clipPath id="clipPath414">
   <path transform="translate(-164.32 -237.1)" d="m0 500h750v-500h-750z"/>
  </clipPath>
  <clipPath id="clipPath416">
   <path transform="translate(-123.03 -268.66)" d="m0 500h750v-500h-750z"/>
  </clipPath>
  <clipPath id="clipPath418">
   <path transform="translate(-116.75 -262.95)" d="m0 500h750v-500h-750z"/>
  </clipPath>
  <clipPath id="clipPath420">
   <path transform="translate(-111.76 -244.42)" d="m0 500h750v-500h-750z"/>
  </clipPath>
  <clipPath id="clipPath422">
   <path transform="translate(-115.27 -231.83)" d="m0 500h750v-500h-750z"/>
  </clipPath>
  <clipPath id="clipPath424">
   <path transform="translate(-113.95 -238.73)" d="m0 500h750v-500h-750z"/>
  </clipPath>
  <clipPath id="clipPath426">
   <path transform="translate(-132.68 -231.83)" d="m0 500h750v-500h-750z"/>
  </clipPath>
  <clipPath id="clipPath428">
   <path transform="translate(-133 -238.73)" d="m0 500h750v-500h-750z"/>
  </clipPath>
  <clipPath id="clipPath430">
   <path transform="translate(-126.72 -222.97)" d="m0 500h750v-500h-750z"/>
  </clipPath>
  <clipPath id="clipPath432">
   <path transform="translate(-144.56 -206.04)" d="m0 500h750v-500h-750z"/>
  </clipPath>
  <clipPath id="clipPath434">
   <path transform="translate(-133.63 -245.98)" d="m0 500h750v-500h-750z"/>
  </clipPath>
  <clipPath id="clipPath436">
   <path transform="translate(-114.6 -244.86)" d="m0 500h750v-500h-750z"/>
  </clipPath>
  <clipPath id="clipPath438">
   <path transform="translate(-115.71 -257.7)" d="m0 500h750v-500h-750z"/>
  </clipPath>
  <clipPath id="clipPath440">
   <path transform="translate(-156.14 -233.5)" d="m0 500h750v-500h-750z"/>
  </clipPath>
  <clipPath id="clipPath442">
   <path transform="translate(-158.55 -225.52)" d="m0 500h750v-500h-750z"/>
  </clipPath>
  <clipPath id="clipPath444">
   <path transform="translate(-159.26 -237.53)" d="m0 500h750v-500h-750z"/>
  </clipPath>
  <clipPath id="clipPath446">
   <path transform="translate(-157.29 -235.31)" d="m0 500h750v-500h-750z"/>
  </clipPath>
  <clipPath id="clipPath448">
   <path transform="translate(-131.65 -219.17)" d="m0 500h750v-500h-750z"/>
  </clipPath>
  <clipPath id="clipPath450">
   <path transform="translate(-128.37 -213.33)" d="m0 500h750v-500h-750z"/>
  </clipPath>
  <clipPath id="clipPath452">
   <path transform="translate(-117.64 -261.42)" d="m0 500h750v-500h-750z"/>
  </clipPath>
  <clipPath id="clipPath454">
   <path transform="translate(-170.27 -231.73)" d="m0 500h750v-500h-750z"/>
  </clipPath>
  <clipPath id="clipPath456">
   <path transform="translate(-149.5 -229.81)" d="m0 500h750v-500h-750z"/>
  </clipPath>
  <clipPath id="clipPath458">
   <path transform="translate(-153.69 -229.81)" d="m0 500h750v-500h-750z"/>
  </clipPath>
  <clipPath id="clipPath460">
   <path transform="translate(-161.71 -240.53)" d="m0 500h750v-500h-750z"/>
  </clipPath>
  <clipPath id="clipPath461">
   <path transform="translate(-167.47 -225.92)" d="m152.82 234.01h14.656v-13.401h-14.656z"/>
  </clipPath>
  <clipPath id="clipPath463">
   <path transform="matrix(1.3333 0 0 -1.3333 0 666.67)" d="m0 500h750v-500h-750z"/>
  </clipPath>
  <clipPath id="clipPath465">
   <path transform="translate(-154.94 -239.8)" d="m0 500h750v-500h-750z"/>
  </clipPath>
  <clipPath id="clipPath467">
   <path transform="translate(-118.05 -264.87)" d="m0 500h750v-500h-750z"/>
  </clipPath>
  <clipPath id="clipPath469">
   <path transform="translate(-115.58 -262.44)" d="m0 500h750v-500h-750z"/>
  </clipPath>
  <clipPath id="clipPath471">
   <path transform="translate(-78.599 -222.26)" d="m0 500h750v-500h-750z"/>
  </clipPath>
  <clipPath id="clipPath473">
   <path transform="translate(-78.599 -222.26)" d="m0 500h750v-500h-750z"/>
  </clipPath>
  <clipPath id="clipPath475">
   <path transform="translate(-68.014 -200.88)" d="m0 500h750v-500h-750z"/>
  </clipPath>
  <clipPath id="clipPath477">
   <path transform="translate(-67.988 -200.36)" d="m0 500h750v-500h-750z"/>
  </clipPath>
  <clipPath id="clipPath479">
   <path transform="translate(-57.64 -210.03)" d="m0 500h750v-500h-750z"/>
  </clipPath>
  <clipPath id="clipPath481">
   <path transform="translate(-57.666 -200.37)" d="m0 500h750v-500h-750z"/>
  </clipPath>
  <clipPath id="clipPath483">
   <path transform="translate(-60.302 -198.72)" d="m0 500h750v-500h-750z"/>
  </clipPath>
  <clipPath id="clipPath485">
   <path transform="translate(-60.319 -198.18)" d="m0 500h750v-500h-750z"/>
  </clipPath>
 </defs>
 <g transform="translate(-123.68 -54.214)" fill="#844031">
  <!--Engrenagens-->
  <g fill="#B9B7B7">
   <path class="engrenagem-top-left" transform="matrix(1.1224 0 0 -1.1646 451.11 135.29)" d="m0 0c-2.774-2.874-2.694-7.452 0.18-10.226 2.873-2.774 7.451-2.693 10.225 0.18s2.694 7.452-0.179 10.226c-2.874 2.774-7.452 2.693-10.226-0.18m-3.593 8.979c1.274 0.77 2.631 1.354 4.03 1.751l0.831 3.99 6.74 0.118 0.97-3.957c1.412-0.348 2.789-0.884 4.09-1.609l3.406 2.233 4.85-4.683-2.112-3.482c0.771-1.275 1.355-2.632 1.752-4.031l3.989-0.83 0.118-6.741-3.957-0.97c-0.348-1.412-0.884-2.789-1.609-4.089l2.233-3.407-4.682-4.85-3.483 2.112c-1.275-0.771-2.632-1.354-4.031-1.752l-0.831-3.99-6.739-0.118-0.971 3.958c-1.412 0.348-2.788 0.885-4.089 1.609l-3.407-2.233-4.85 4.683 2.112 3.482c-0.77 1.275-1.354 2.632-1.752 4.031l-3.989 0.83-0.118 6.74 3.957 0.971c0.348 1.412 0.885 2.789 1.609 4.089l-2.232 3.407 4.682 4.85z" clip-path="url(#clipPath2)" fill="#ececec icc-color(Adobe-RGB-1998, 0.92199707, 0.92199707, 0.92199707)"/>
   <path class="engrenagem-bottom-right" transform="matrix(.44444 0 0 -.44444 452.17 342.54)" d="m0 0c-4.488-4.649-4.358-12.056 0.291-16.544 4.649-4.489 12.056-4.358 16.544 0.291s4.358 12.056-0.291 16.544-12.056 4.358-16.544-0.291m-5.813 14.527c2.062 1.246 4.257 2.191 6.521 2.834l1.343 6.455 10.905 0.191 1.569-6.403c2.286-0.562 4.513-1.43 6.618-2.603l5.511 3.613 7.846-7.576-3.416-5.634c1.247-2.063 2.191-4.258 2.834-6.523l6.454-1.342 0.192-10.906-6.403-1.57c-0.563-2.284-1.431-4.511-2.603-6.616l3.612-5.511-7.575-7.847-5.635 3.416c-2.062-1.246-4.257-2.191-6.522-2.834l-1.343-6.454-10.905-0.192-1.57 6.404c-2.285 0.563-4.512 1.43-6.616 2.603l-5.512-3.613-7.846 7.576 3.416 5.634c-1.246 2.063-2.191 4.258-2.834 6.522l-6.455 1.344-0.19 10.904 6.402 1.571c0.563 2.284 1.431 4.511 2.603 6.616l-3.612 5.512 7.575 7.846z" clip-path="url(#clipPath4)" fill="#ececec icc-color(Adobe-RGB-1998, 0.92199707, 0.92199707, 0.92199707)"/>
   <path class="engrenagem-top-left" transform="matrix(.44845 0 0 -.4242 222.58 114.35)" d="m0 0c-4.826-5-4.687-12.964 0.312-17.79 5-4.826 12.964-4.686 17.79 0.313s4.687 12.964-0.312 17.789c-4.999 4.826-12.964 4.687-17.79-0.312m-6.25 15.621c2.216 1.339 4.577 2.355 7.011 3.047l1.444 6.94 11.726 0.206 1.688-6.885c2.457-0.605 4.852-1.537 7.115-2.799l5.926 3.885 8.437-8.147-3.673-6.057c1.341-2.218 2.356-4.58 3.047-7.014l6.94-1.444 0.206-11.726-6.885-1.688c-0.606-2.457-1.538-4.851-2.799-7.114l3.884-5.927-8.145-8.437-6.059 3.673c-2.217-1.34-4.578-2.355-7.013-3.047l-1.444-6.94-11.726-0.206-1.688 6.886c-2.457 0.605-4.851 1.538-7.114 2.798l-5.927-3.884-8.437 8.146 3.674 6.058c-1.34 2.218-2.357 4.578-3.048 7.013l-6.94 1.444-0.206 11.726 6.885 1.688c0.606 2.457 1.539 4.852 2.799 7.115l-3.884 5.926 8.145 8.437z" clip-path="url(#clipPath14)" fill="#f5f5f5 icc-color(Adobe-RGB-1998, 0.96099854, 0.96099854, 0.96099854)"/>
   <path transform="matrix(1.3333 0 0 -1.3333 405.28 389.14)" d="m0 0c0-0.144-36.094-0.261-80.607-0.261-44.53 0-80.616 0.117-80.616 0.261s36.086 0.261 80.616 0.261c44.513 0 80.607-0.117 80.607-0.261" clip-path="url(#clipPath331)" fill="#1a2e35 icc-color(Adobe-RGB-1998, 0.14898682, 0.19599915, 0.21998596)"/>
   <path class="engrenagem-back-01" transform="matrix(1.3333 0 0 -1.3333 409.67 199.3)" d="m0 0 19.037 0.449 7.685-30.562-16.983-8.61c-0.092-6.96-1.123-13.788-3.001-20.322l13.783-13.149-16.175-27.046-18.104 5.924c-4.869-4.748-10.397-8.888-16.487-12.261l0.45-19.033-30.563-7.687-8.609 16.984c-6.96 0.091-13.787 1.124-20.323 3l-13.149-13.783-27.045 16.175 5.923 18.105c-4.747 4.87-8.888 10.396-12.261 16.486l-19.034-0.449-7.685 30.561 16.983 8.611c0.091 6.961 1.123 13.788 3.001 20.322l-13.782 13.148 16.175 27.046 18.103-5.924c4.869 4.748 10.395 8.89 16.487 12.263l-0.45 19.032 30.563 7.688 8.609-16.984c6.96-0.09 13.789-1.123 20.325-3.002l13.147 13.783 27.047-16.175-5.925-18.105c4.746-4.87 8.885-10.396 12.258-16.485" clip-path="url(#clipPath333)" fill="#ececec icc-color(Adobe-RGB-1998, 0.92199707, 0.92199707, 0.92199707)"/>
   <path  class="engrenagem-back-02" transform="matrix(1.3333 0 0 -1.3333 409.67 199.3)" d="m0 0s-0.229 0.375-0.673 1.145c-0.452 0.754-1.119 1.887-2.067 3.338-1.9 2.893-4.884 7.126-9.58 11.942l-0.036 0.037 0.016 0.05c1.633 5.019 3.617 11.116 5.894 18.114l0.052-0.137c-7.752 4.624-16.839 10.043-27.065 16.143l0.19 0.026c-4.12-4.327-8.516-8.943-13.135-13.794l-0.071-0.075-0.1 0.029c-6.173 1.77-13.061 2.893-20.279 2.979l-0.113 2e-3 -0.052 0.101c-2.674 5.268-5.599 11.029-8.619 16.978l0.225-0.103c-9.626-2.427-19.878-5.012-30.558-7.704l0.163 0.214c0.142-5.892 0.299-12.392 0.458-19.032l4e-3 -0.136-0.119-0.065c-5.581-3.086-11.316-7.229-16.433-12.233l-0.102-0.099-0.134 0.044c-5.62 1.838-11.813 3.861-18.104 5.918l0.28 0.105c-5.084-8.505-10.567-17.679-16.168-27.051l-0.042 0.307c4.305-4.105 9.018-8.6 13.785-13.146l0.11-0.105-0.042-0.146c-1.785-6.185-2.906-13.167-2.988-20.256l-2e-3 -0.155-0.138-0.07c-5.336-2.707-11.133-5.646-16.981-8.613l0.133 0.293c2.441-9.703 5.048-20.071 7.687-30.561l-0.258 0.196c6.03 0.143 12.505 0.296 19.019 0.45l0.015 1e-3 0.158 3e-3 0.076-0.138c3.34-6.032 7.476-11.567 12.219-16.431l0.111-0.112-0.049-0.15c-1.991-6.082-3.966-12.12-5.925-18.105l-0.114 0.303c9.155-5.476 18.175-10.872 27.044-16.177l-0.316-0.043c4.437 4.649 8.82 9.241 13.151 13.781l0.106 0.111 0.146-0.042c6.685-1.922 13.514-2.906 20.257-2.996l0.151-2e-3 0.067-0.134c2.917-5.759 5.782-11.413 8.604-16.986l-0.275 0.125c10.499 2.638 20.679 5.195 30.565 7.678l-0.176-0.231c-0.151 6.482-0.298 12.822-0.442 19.032l-4e-3 0.137 0.12 0.066c6.16 3.408 11.671 7.567 16.445 12.218l0.095 0.092 0.124-0.041c6.263-2.054 12.265-4.021 18.1-5.934l-0.241-0.09c5.759 9.615 11.134 18.589 16.192 27.035l0.031-0.229c-4.922 4.703-9.449 9.029-13.772 13.16l-0.075 0.071 0.029 0.1c2.059 7.182 2.914 13.948 3.013 20.277l1e-3 0.092 0.082 0.042c6.358 3.214 11.894 6.013 16.993 8.591l-0.068-0.149c-3.266 13.077-5.769 23.097-7.636 30.574l0.08-0.061c-6.463-0.133-11.227-0.231-14.381-0.296-1.565-0.028-2.729-0.05-3.51-0.063-0.773-0.012-1.148-9e-3 -1.148-9e-3s0.389 0.021 1.167 0.046c0.784 0.022 1.952 0.057 3.522 0.102 3.147 0.083 7.898 0.209 14.346 0.381l0.064 1e-3 0.015-0.062c1.892-7.471 4.427-17.483 7.735-30.549l0.026-0.102-0.094-0.046c-5.093-2.589-10.623-5.401-16.973-8.629l0.083 0.133c-0.086-6.354-0.932-13.151-2.989-20.367l-0.046 0.17c4.33-4.124 8.863-8.442 13.792-13.139l0.108-0.102-0.076-0.127c-5.048-8.453-10.411-17.434-16.158-27.056l-0.084-0.141-0.156 0.051c-5.837 1.907-11.841 3.868-18.107 5.915l0.218 0.05c-4.797-4.682-10.336-8.87-16.529-12.303l0.116 0.202c0.149-6.21 0.302-12.55 0.458-19.032l4e-3 -0.186-0.181-0.046c-9.884-2.489-20.062-5.053-30.56-7.696l-0.188-0.048-0.088 0.173c-2.825 5.571-5.693 11.224-8.613 16.981l0.218-0.135c-6.786 0.087-13.661 1.075-20.39 3.006l0.252 0.069c-4.33-4.541-8.711-9.135-13.146-13.785l-0.141-0.148-0.175 0.105c-8.87 5.303-17.891 10.697-27.047 16.17l-0.177 0.107 0.064 0.196c1.958 5.987 3.933 12.023 5.922 18.106l0.061-0.262c-4.775 4.895-8.94 10.468-12.303 16.541l0.234-0.135h-0.014c-6.515-0.153-12.99-0.306-19.02-0.449l-0.207-5e-3 -0.051 0.202c-2.638 10.49-5.244 20.859-7.683 30.562l-0.05 0.2 0.183 0.093c5.849 2.965 11.647 5.903 16.984 8.608l-0.139-0.224c0.084 7.137 1.215 14.165 3.014 20.388l0.068-0.251c-4.765 4.548-9.476 9.044-13.779 13.152l-0.144 0.136 0.102 0.17c5.607 9.369 11.095 18.539 16.183 27.041l0.098 0.164 0.182-0.059c6.29-2.061 12.481-4.089 18.1-5.93l-0.235-0.055c5.152 5.031 10.925 9.194 16.541 12.292l-0.115-0.201c-0.154 6.639-0.305 13.14-0.442 19.032l-4e-3 0.172 0.167 0.042c10.684 2.681 20.938 5.255 30.567 7.672l0.155 0.039 0.071-0.142c3.013-5.953 5.93-11.718 8.598-16.99l-0.164 0.102c7.254-0.096 14.173-1.234 20.37-3.024l-0.171-0.046c4.627 4.843 9.031 9.451 13.159 13.771l0.085 0.089 0.106-0.063c10.213-6.124 19.286-11.564 27.028-16.206l0.081-0.048-0.03-0.09c-2.3-6.991-4.304-13.081-5.954-18.095l-0.02 0.087c4.687-4.845 7.653-9.102 9.531-12.013 1.866-2.935 2.665-4.532 2.665-4.532" clip-path="url(#clipPath335)" fill="#1a2e35 icc-color(Adobe-RGB-1998, 0.14898682, 0.19599915, 0.21998596)"/>
   <path transform="matrix(1.3333 0 0 -1.3333 263.32 210.62)" d="m0 0c0-6.267 4.582-11.347 10.234-11.347s10.234 5.08 10.234 11.347-4.582 11.346-10.234 11.346-10.234-5.079-10.234-11.346" clip-path="url(#clipPath337)" fill="#375a64 icc-color(Adobe-RGB-1998, 0.27099609, 0.35299683, 0.39199829)"/>
  </g>
  <g transform="translate(128.76 -148.24)" clip-path="url(#clipPath340)" opacity=".3" stroke="#fff">
   <path transform="matrix(1.3333 0 0 -1.3333 144.4 350.5)" d="m0 0c0.474 1.349 1.008 2.254 1.008 2.254 0.229-7.094 0.651-12.896 1.388-19.874-1.999 3.612-2.593 8.016-2.826 12.32-0.129 2.389-0.161 3.615 0.43 5.3" clip-path="url(#clipPath338)" fill="#fff"/>
  </g>
  <path transform="matrix(1.3333 0 0 -1.3333 358.12 240.13)" d="m0 0c-0.314 8.783-0.633 17.608-2.313 26.234s-3.786 17.034-9.187 23.967l-50.526-2.701c-1.95-7.787-3.915-15.765-3.105-23.75 0.786-7.75 4.17-15.24 3.624-23.01-0.386-5.49-2.707-10.625-4.42-15.855-1.713-5.231-2.811-11.039-0.776-16.153 0.513-1.288 1.257-2.545 2.419-3.301 1.425-0.929 3.232-0.965 4.932-0.967 20.199-0.028 40.398 0.435 60.574 1.39-0.407 11.381-0.814 22.764-1.222 34.146" clip-path="url(#clipPath342)" fill="#000"/>
  <path transform="matrix(1.3333 0 0 -1.3333 351.87 254.98)" d="m0 0-11.931 2.302-22.887-5.248-11.601-2.42-0.165-15.852 25.876-4.766 17.462 5.173 6.602 9.713z" clip-path="url(#clipPath344)" fill="#cd7259 icc-color(Adobe-RGB-1998, 0.71699524, 0.44299316, 0.35699463)"/>
  <g fill="#F37979" stroke="none" stroke-miterlimit="10">
   <path transform="matrix(1.3333 0 0 -1.3333 363.18 257.09)" d="m0 0-11.261 2.652s-7.96-24.61-27.607-23.55c-16.013 0.863-16.031 17.11-16.031 17.11l-11.707-2.069s-4.909-29.723 0.473-50.572c4.478-17.352 7.156-42.42 7.156-42.42l79.37-0.191z" clip-path="url(#clipPath346)"/>
   <path transform="matrix(1.3333 0 0 -1.3333 261.52 274.09)" d="m0 0c6.318 7.896 11.363 6.983 11.363 6.983l3.397-37.859-27.605-34.914-11.229 28.735s18.301 29.839 24.074 37.055" clip-path="url(#clipPath348)"/>
   <path transform="matrix(1.3333 0 0 -1.3333 361.38 256.66)" d="m0 0s18.23-1.461 24.772-31.329c2.958-13.51 6.697-29.343 7.774-39.984 0.782-7.718-3.413-19.802-11.108-20.791l-12.617-1.726c-6.02-0.089-9.296 5.447-10.563 10.688l-2.824 8.914c-1.448 10.189 6.354 10.058 10.715 9.964l-3.252 38.692z" clip-path="url(#clipPath350)"/>
  </g>
  <g fill="#000" stroke="none" stroke-miterlimit="10">
   <path transform="matrix(1.3333 0 0 -1.3333 272.37 292.75)" d="m0 0c-0.01 2e-3 -0.038-0.142-0.083-0.416-0.046-0.304-0.107-0.704-0.184-1.204-0.038-0.265-0.08-0.556-0.125-0.871-0.033-0.322-0.068-0.67-0.106-1.042-0.076-0.747-0.167-1.599-0.206-2.544-0.138-1.888-0.136-4.145-0.045-6.644 0.105-2.501 0.389-5.24 0.807-8.095 0.419-2.857 0.945-5.557 1.48-7.998 0.525-2.445 1.063-4.63 1.517-6.464 0.464-1.832 0.848-3.312 1.127-4.331 0.136-0.488 0.244-0.877 0.326-1.172 0.077-0.268 0.123-0.407 0.133-0.405 9e-3 3e-3 -0.017 0.147-0.076 0.419-0.069 0.298-0.159 0.693-0.273 1.186-0.252 1.058-0.604 2.537-1.037 4.352-0.428 1.838-0.944 4.027-1.454 6.47-0.52 2.442-1.037 5.137-1.454 7.986-0.417 2.846-0.708 5.575-0.828 8.065-0.105 2.489-0.129 4.737-0.017 6.62 0.026 0.943 0.102 1.793 0.162 2.54 0.029 0.372 0.057 0.72 0.082 1.041 0.036 0.317 0.069 0.608 0.1 0.873 0.053 0.503 0.096 0.905 0.129 1.209 0.026 0.278 0.035 0.423 0.025 0.425" clip-path="url(#clipPath352)"/>
   <path transform="matrix(1.3333 0 0 -1.3333 388.69 356.36)" d="m0 0c0.016 4e-3 -0.023 0.274-0.145 0.752-0.12 0.477-0.34 1.159-0.704 1.965-0.713 1.605-2.122 3.706-4.321 5.306-2.201 1.602-4.633 2.296-6.38 2.482-0.878 0.098-1.595 0.099-2.086 0.065-0.491-0.031-0.76-0.076-0.759-0.092 1e-3 -0.061 1.091 0.068 2.819-0.178 1.715-0.235 4.083-0.946 6.234-2.512 2.151-1.565 3.556-3.6 4.307-5.159 0.764-1.568 0.977-2.646 1.035-2.629" clip-path="url(#clipPath354)"/>
   <path transform="matrix(1.3333 0 0 -1.3333 383.08 336.52)" d="m0 0c0 0.02-0.156 0.034-0.44 0.041-0.285 0.012-0.696-5e-3 -1.202-0.053-1.012-0.094-2.405-0.378-3.847-0.968-1.441-0.595-2.63-1.374-3.415-2.019-0.394-0.321-0.698-0.6-0.892-0.808-0.196-0.205-0.298-0.324-0.284-0.339 0.034-0.035 0.493 0.39 1.301 0.984 0.807 0.594 1.988 1.328 3.401 1.912 1.414 0.578 2.77 0.888 3.761 1.033 0.992 0.148 1.618 0.168 1.617 0.217" clip-path="url(#clipPath356)"/>
   <path transform="matrix(1.3333 0 0 -1.3333 357.91 284.95)" d="m0 0c0.021 1e-3 0.035 0.285 0.044 0.799 4e-3 0.513 0.034 1.255 0.097 2.168 0.121 1.827 0.461 4.344 1.213 7.035 0.758 2.69 1.779 5.017 2.625 6.641 0.422 0.812 0.783 1.461 1.047 1.901 0.259 0.442 0.394 0.693 0.377 0.705-0.016 0.011-0.184-0.219-0.474-0.645-0.294-0.423-0.684-1.059-1.132-1.865-0.898-1.608-1.959-3.943-2.724-6.658-0.759-2.715-1.069-5.262-1.138-7.102-0.037-0.921-0.035-1.667-4e-3 -2.182 0.026-0.514 0.049-0.798 0.069-0.797" clip-path="url(#clipPath358)"/>
  </g>
  <g transform="translate(128.76 -148.24)" clip-path="url(#clipPath361)" opacity=".3">
   <path transform="matrix(1.3333 0 0 -1.3333 144.73 474.43)" d="m0 0c-4.651 7.876-4.75 18.112-0.693 26.311-1.211-8.731-1.112-17.679 0.83-26.277" clip-path="url(#clipPath359)" fill="#000000 icc-color(Adobe-RGB-1998, 0, 0, 0)"/>
  </g>
  <g transform="translate(128.76 -148.24)" clip-path="url(#clipPath364)" opacity=".3">
   <path transform="matrix(1.3333 0 0 -1.3333 199.9 486.31)" d="m0 0c3.529-1.038 8.417-1.291 11.854 0.019-2.69-3.819-7.88-5.205-12.383-3.96-4.503 1.244-8.657 5.752-9.004 10.411 2.18-2.963 6.004-5.432 9.533-6.47" clip-path="url(#clipPath362)" fill="#000000 icc-color(Adobe-RGB-1998, 0, 0, 0)"/>
  </g>
  <!--Blusa-->
  <g fill="#844031">
   <path transform="matrix(1.3333 0 0 -1.3333 311.35 321.11)" d="m0 0c-0.01-3e-3 0.019-0.111 0.082-0.314 0.068-0.202 0.148-0.507 0.302-0.881 0.281-0.76 0.766-1.833 1.519-3.074 0.75-1.241 1.804-2.628 3.187-3.963 1.379-1.335 3.107-2.594 5.104-3.565 2.008-0.952 4.071-1.514 5.976-1.756 1.907-0.244 3.648-0.199 5.086-9e-3 1.439 0.189 2.579 0.482 3.348 0.737 0.388 0.114 0.676 0.243 0.876 0.315 0.198 0.077 0.3 0.123 0.297 0.132-9e-3 0.025-0.432-0.12-1.206-0.338-0.774-0.222-1.912-0.48-3.34-0.64-2.83-0.336-6.942-0.081-10.91 1.822-3.965 1.907-6.736 4.956-8.243 7.375-0.767 1.214-1.277 2.264-1.588 3.006-0.314 0.741-0.466 1.162-0.49 1.153" clip-path="url(#clipPath366)"/>
   <path transform="matrix(1.3333 0 0 -1.3333 362.58 377.13)" d="m0 0c0.03 0.025 0.317-0.381 0.997-0.942 0.683-0.55 1.813-1.19 3.336-1.592 1.518-0.418 3.41-0.59 5.491-0.484 2.082 0.151 4.379 0.395 6.766 0.749 2.38 0.371 4.667 0.799 6.605 1.522 0.951 0.395 1.748 1 2.427 1.621 0.676 0.627 1.236 1.288 1.697 1.927 0.925 1.278 1.5 2.429 1.863 3.234 0.173 0.406 0.31 0.722 0.39 0.941 0.086 0.216 0.136 0.33 0.146 0.326 0.01-3e-3 -0.022-0.121-0.09-0.346-0.064-0.226-0.183-0.55-0.342-0.966-0.332-0.823-0.884-1.999-1.8-3.309-0.456-0.655-1.015-1.334-1.699-1.984-0.686-0.641-1.499-1.271-2.487-1.691-1.991-0.759-4.269-1.189-6.666-1.563-2.401-0.356-4.695-0.591-6.797-0.728-2.106-0.094-4.022 0.102-5.559 0.552-1.542 0.435-2.681 1.117-3.354 1.704-0.327 0.305-0.574 0.549-0.712 0.741-0.147 0.183-0.22 0.281-0.212 0.288" clip-path="url(#clipPath368)"/>
   <path transform="matrix(1.3333 0 0 -1.3333 358.57 297.64)" d="m0 0c0.078 0.02 2-7.444 4.293-16.668 2.293-9.228 4.088-16.721 4.01-16.74-0.078-0.02-2 7.442-4.293 16.67-2.293 9.223-4.088 16.718-4.01 16.738" clip-path="url(#clipPath370)"/>
   <path transform="matrix(1.3333 0 0 -1.3333 355.48 353.81)" d="m0 0c-0.02-1e-3 -0.055 0.217-0.093 0.613-0.033 0.398-0.088 0.975-0.038 1.696 0.041 0.718 0.286 1.589 0.818 2.39 0.266 0.399 0.558 0.806 0.936 1.176 0.374 0.37 0.819 0.687 1.295 0.964 1.942 1.057 3.898 1.498 5.307 1.713 0.708 0.1 1.286 0.138 1.685 0.149 0.399 0.012 0.619-4e-3 0.62-0.022 3e-3 -0.049-0.879-0.081-2.272-0.33-1.379-0.262-3.313-0.738-5.194-1.762-0.46-0.269-0.885-0.569-1.242-0.917-0.356-0.343-0.649-0.738-0.91-1.117-0.522-0.763-0.77-1.568-0.838-2.264-0.074-0.696-0.053-1.273-0.053-1.67 3e-3 -0.396 0-0.617-0.021-0.619" clip-path="url(#clipPath372)"/>
  </g>
  <g fill="#ffc19d" stroke="none" stroke-miterlimit="10">
   <path transform="matrix(1.3333 0 0 -1.3333 306.32 352.41)" d="m0 0c0.011-6e-3 0.021-0.011 0.033-0.017-0.01 6e-3 -0.022 0.011-0.033 0.017" clip-path="url(#clipPath374)"/>
   <path transform="matrix(1.3333 0 0 -1.3333 306.58 352.54)" d="m0 0c0.026-0.013 0.051-0.024 0.074-0.035-0.022 0.011-0.045 0.021-0.074 0.035" clip-path="url(#clipPath376)"/>
   <path transform="matrix(1.3333 0 0 -1.3333 306.36 352.43)" d="M 0,0 C 0.065,-0.03 0.122,-0.058 0.167,-0.079 0.109,-0.052 0.05,-0.023 0,0" clip-path="url(#clipPath378)"/>
   <path transform="matrix(1.3333 0 0 -1.3333 306.22 352.36)" d="M 0,0 C 0.027,-0.014 0.048,-0.023 0.073,-0.035 0.03,-0.015 0,0 0,0" clip-path="url(#clipPath380)"/>
  </g>
  <path transform="matrix(1.3333 0 0 -1.3333 283.39 373.34)" d="m0 0c1.463 2.769 12.902 10.069 12.902 10.069l-3.096 0.716-3.418-1.446s-0.214-1.409-1.471-3.202c-1.258-1.793-3.392 0.061-3.392 0.061l1.445 6.924 6.763 4.071s6.364-0.972 7.392-1.462l2.713-2.483c1.19-0.933 4.627-4.613 5.568-4.725 0.94-0.111 30.463 6.531 30.463 6.531 4.048-3.205 6.18-9.574 6.823-14.167 0 0 0.721-2.257-0.063-3.482l-36.242-2.843-7.679-2.123s-4.25-1.735-6.311-2.168c-2.555-0.537-4.276 0.287-4.345 1.702-0.069 1.414 1.913 1.566 1.913 1.566s3.224 1.167 4.939 2.172c1.714 1.006 2.787 3.06 2.787 3.06l-2.738-0.329s-5.821-4.04-8.009-5.225c-2.189-1.185-2.62 0.99-2.797 1.653-0.176 0.662 6.538 7.231 6.538 7.231s-6.384-3.936-7.533-4.929c-1.148-0.993-2.85-1.29-3.214-0.624-0.365 0.666-1.401 0.684 0.062 3.452" clip-path="url(#clipPath382)" fill="#cd7259 icc-color(Adobe-RGB-1998, 0.71699524, 0.44299316, 0.35699463)"/>
  <g fill="#ffc19d" stroke="none" stroke-miterlimit="10">
   <path transform="matrix(1.3333 0 0 -1.3333 306.68 352.58)" d="m0 0c0.027-0.013 0.048-0.022 0.064-0.03-0.018 9e-3 -0.039 0.018-0.064 0.03" clip-path="url(#clipPath384)"/>
   <path transform="matrix(1.3333 0 0 -1.3333 306.82 352.65)" d="m0 0c0.01-5e-3 0.01-5e-3 0 0" clip-path="url(#clipPath386)"/>
   <path transform="matrix(1.3333 0 0 -1.3333 306.77 352.62)" d="m0 0c0.015-8e-3 0.028-0.014 0.035-0.017-6e-3 3e-3 -0.018 9e-3 -0.035 0.017" clip-path="url(#clipPath388)"/>
  </g>
  <g fill="#844031">
   <path transform="matrix(1.3333 0 0 -1.3333 325.38 374.19)" d="m0 0c0.019-1e-3 0.03 0.158 0.034 0.448 9e-3 0.147-6e-3 0.323-0.035 0.528-0.02 0.207-0.056 0.439-0.126 0.69-0.228 1.02-0.883 2.33-1.855 3.575-0.971 1.249-2.017 2.228-2.792 2.903-0.78 0.672-1.296 1.045-1.318 1.019-0.026-0.03 0.447-0.455 1.19-1.16 0.739-0.707 1.753-1.697 2.707-2.926 0.956-1.225 1.616-2.482 1.884-3.461 0.285-0.973 0.255-1.618 0.311-1.616" clip-path="url(#clipPath390)"/>
   <path transform="matrix(1.3333 0 0 -1.3333 300.94 359.62)" d="M 0,0 C -0.011,-0.066 0.901,-0.183 1.952,0.176 3.006,0.524 3.664,1.167 3.614,1.214 3.565,1.278 2.866,0.76 1.867,0.43 0.871,0.09 0,0.081 0,0" clip-path="url(#clipPath392)"/>
   <path transform="matrix(1.3333 0 0 -1.3333 298.41 369.73)" d="M 0,0 C 0.028,-0.068 1.332,0.402 2.912,1.053 4.492,1.702 5.75,2.285 5.721,2.354 5.693,2.422 4.39,1.951 2.81,1.301 1.229,0.65 -0.028,0.068 0,0" clip-path="url(#clipPath394)"/>
   <path transform="matrix(1.3333 0 0 -1.3333 306.59 374.89)" d="M 0,0 C 0.036,-0.067 0.685,0.214 1.493,0.528 2.301,0.846 2.968,1.079 2.949,1.152 2.932,1.223 2.22,1.102 1.396,0.778 0.57,0.457 -0.035,0.063 0,0" clip-path="url(#clipPath396)"/>
   <path transform="matrix(1.3333 0 0 -1.3333 299.66 370.4)" d="m0 0c-0.029-0.074 0.634-0.32 1.129-0.986 0.511-0.656 0.571-1.361 0.65-1.352 0.033 1e-3 0.067 0.182 0.022 0.472-0.043 0.289-0.185 0.682-0.458 1.042-0.274 0.359-0.615 0.6-0.882 0.72-0.268 0.12-0.451 0.135-0.461 0.104" clip-path="url(#clipPath398)"/>
   <path transform="matrix(1.3333 0 0 -1.3333 296.08 364.76)" d="m0 0c-0.035-0.07 0.465-0.341 0.795-0.921 0.344-0.573 0.333-1.142 0.412-1.145 0.068-0.026 0.21 0.621-0.18 1.28-0.382 0.664-1.015 0.857-1.027 0.786" clip-path="url(#clipPath400)"/>
   <path transform="matrix(1.3333 0 0 -1.3333 297.3 354.69)" d="M 0,0 C 0.03,-0.015 0.134,0.111 0.214,0.36 0.294,0.606 0.33,0.979 0.236,1.368 0.141,1.759 -0.06,2.073 -0.245,2.256 -0.429,2.44 -0.58,2.505 -0.6,2.479 -0.651,2.42 -0.186,2.01 -0.025,1.306 0.154,0.605 -0.073,0.028 0,0" clip-path="url(#clipPath402)"/>
  </g>
  <!--LAPTOP-->
  <g fill="#4D4D4D" stroke="none" stroke-miterlimit="10">
   <path transform="matrix(1.3333 0 0 -1.3333 367.32 378.18)" d="m0 0c-0.02 1e-3 -0.036 0.298-0.048 0.833-4e-3 0.268-0.011 0.595-0.038 0.974-0.025 0.379-0.035 0.811-0.09 1.286-0.165 1.899-0.589 4.523-1.582 7.262-0.504 1.365-1.102 2.618-1.718 3.717-0.332 0.534-0.624 1.059-0.958 1.509-0.16 0.229-0.316 0.45-0.465 0.664-0.162 0.203-0.317 0.399-0.466 0.586-1.203 1.481-2.126 2.238-2.083 2.285 0.013 0.016 0.244-0.171 0.651-0.523 0.207-0.172 0.451-0.394 0.712-0.673 0.265-0.275 0.58-0.579 0.879-0.957 0.155-0.187 0.317-0.38 0.485-0.581 0.161-0.208 0.317-0.433 0.485-0.661 0.346-0.45 0.65-0.976 0.993-1.514 0.636-1.105 1.249-2.371 1.759-3.752 1.005-2.771 1.401-5.43 1.513-7.347 0.043-0.479 0.038-0.915 0.048-1.296 0.011-0.382 2e-3 -0.711-0.012-0.98-0.023-0.537-0.044-0.833-0.065-0.832" clip-path="url(#clipPath404)" fill="#1a2e35 icc-color(Adobe-RGB-1998, 0.14898682, 0.19599915, 0.21998596)"/>
   <path transform="matrix(1.3333 0 0 -1.3333 183.82 319.43)" d="m0 0 10.585-51.963h91.874c1.013 0 1.835 0.821 1.835 1.835 0 1.013-0.822 1.835-1.835 1.835h-18.496l-9.813 48.327c-0.188 0.927-0.998 1.597-1.944 1.607l-70.218 0.766c-1.278 0.014-2.243-1.154-1.988-2.407" clip-path="url(#clipPath406)" fill="#e1e1e1 icc-color(Adobe-RGB-1998, 0.87799072, 0.87799072, 0.87799072)"/>
   <path transform="matrix(1.3333 0 0 -1.3333 183.82 319.43)" d="m0 0s-0.011 0.053-0.028 0.157-0.031 0.263-0.01 0.472c0.037 0.402 0.255 1.076 0.972 1.518 0.176 0.109 0.383 0.187 0.608 0.242 0.226 0.05 0.472 0.047 0.722 0.045 0.505-4e-3 1.056-9e-3 1.653-0.013 1.197-0.01 2.578-0.022 4.134-0.034 6.233-0.06 15.279-0.146 26.551-0.252 5.637-0.057 11.831-0.119 18.508-0.187 3.338-0.034 6.798-0.07 10.368-0.106 1.785-0.019 3.599-0.038 5.439-0.057 0.919-0.01 1.846-0.019 2.779-0.029 0.237-6e-3 0.459 4e-3 0.711-0.017 0.246-0.026 0.488-0.095 0.71-0.206 0.446-0.218 0.811-0.597 1.008-1.056 0.104-0.231 0.146-0.48 0.192-0.707l0.143-0.699c0.095-0.467 0.19-0.935 0.286-1.405 0.191-0.939 0.383-1.885 0.577-2.837 0.387-1.903 0.78-3.83 1.177-5.78 0.792-3.9 1.604-7.891 2.433-11.964 1.656-8.147 3.379-16.622 5.154-25.354l-0.123 0.101c3.474 1e-3 7.033 1e-3 10.651 1e-3 1.809 0 3.633 1e-3 5.468 1e-3h2.069c0.223-2e-3 0.47 0.011 0.715-0.043 0.485-0.1 0.924-0.395 1.204-0.803 0.284-0.406 0.401-0.923 0.325-1.412-0.084-0.601-0.473-1.141-1.002-1.43-0.266-0.142-0.564-0.222-0.864-0.233l-0.848-3e-3h-10.025c-4.414 1e-3 -8.772 1e-3 -13.063 2e-3 -8.582 2e-3 -16.898 4e-3 -24.872 6e-3 -15.948 8e-3 -30.529 0.016-43.137 0.021h-0.079l-0.016 0.079c-3.235 15.971-5.867 28.963-7.691 37.967-0.904 4.499-1.609 8.001-2.088 10.382-0.235 1.187-0.415 2.094-0.537 2.708-0.12 0.611-0.174 0.925-0.174 0.925s0.073-0.311 0.202-0.919c0.129-0.613 0.318-1.519 0.565-2.702 0.491-2.379 1.212-5.877 2.139-10.371 1.844-9 4.504-21.987 7.775-37.951l-0.096 0.077c12.608 7e-3 27.189 0.013 43.137 0.022 7.974 2e-3 16.29 4e-3 24.872 6e-3 4.291 0 8.649 1e-3 13.063 1e-3 2.207 0 4.429 0 6.663 1e-3h3.362l0.839 3e-3c0.261 0.01 0.52 0.079 0.751 0.203 0.461 0.251 0.801 0.721 0.873 1.244 0.066 0.427-0.035 0.876-0.283 1.23-0.244 0.354-0.626 0.612-1.048 0.698-0.207 0.047-0.426 0.036-0.662 0.038h-7.537c-3.618 0-7.177 1e-3 -10.651 1e-3h-0.103l-0.021 0.101c-1.771 8.731-3.49 17.208-5.143 25.355-0.825 4.073-1.634 8.066-2.426 11.966-0.395 1.95-0.785 3.878-1.171 5.781-0.193 0.952-0.384 1.898-0.575 2.837-0.095 0.471-0.19 0.939-0.284 1.405l-0.142 0.7c-0.048 0.237-0.086 0.459-0.178 0.662-0.176 0.411-0.503 0.752-0.901 0.947-0.2 0.099-0.416 0.161-0.636 0.185-0.214 0.019-0.461 0.011-0.69 0.017-0.933 0.01-1.86 0.021-2.78 0.031-1.84 0.022-3.653 0.042-5.438 0.063-3.571 0.041-7.03 0.081-10.369 0.12-6.676 0.078-12.87 0.15-18.507 0.217-11.272 0.139-20.318 0.251-26.55 0.328-1.556 0.021-2.937 0.04-4.133 0.056-0.598 8e-3 -1.149 0.016-1.653 0.023-0.253 5e-3 -0.491 0.01-0.712-0.038-0.219-0.051-0.421-0.125-0.594-0.23-0.705-0.425-0.928-1.084-0.972-1.481-0.042-0.414 0.028-0.625 0.014-0.626" clip-path="url(#clipPath408)" fill="#1a2e35 icc-color(Adobe-RGB-1998, 0.14898682, 0.19599915, 0.21998596)"/>
   <path transform="matrix(1.3333 0 0 -1.3333 240.27 351.14)" d="m0 0c0-1.677-1.358-3.035-3.034-3.035s-3.034 1.358-3.034 3.035c0 1.676 1.358 3.034 3.034 3.034s3.034-1.358 3.034-3.034" clip-path="url(#clipPath410)" fill="#ffffff icc-color(Adobe-RGB-1998, 1, 1, 1)"/>
  </g>
  <g fill="#000">
   <path transform="matrix(1.3333 0 0 -1.3333 183.94 319.99)" d="m0 0s0.107 8e-3 0.316 0.011c0.219 1e-3 0.527 3e-3 0.93 5e-3 0.825-1e-3 2.026-3e-3 3.571-5e-3 3.111-0.015 7.597-0.036 13.137-0.064 11.099-0.078 26.419-0.185 43.339-0.305 2.116-0.017 4.207-0.034 6.268-0.05 0.515-4e-3 1.028-9e-3 1.54-0.013 0.25-6e-3 0.517 0.011 0.787-0.048 0.264-0.053 0.518-0.157 0.745-0.302 0.454-0.288 0.795-0.748 0.932-1.264 0.115-0.508 0.2-0.989 0.301-1.482 0.777-3.915 1.526-7.69 2.24-11.287 1.422-7.193 2.702-13.672 3.778-19.115 1.065-5.436 1.928-9.839 2.525-12.891 0.292-1.516 0.519-2.697 0.674-3.507 0.073-0.396 0.129-0.699 0.169-0.913 0.037-0.207 0.049-0.313 0.049-0.313s-0.029 0.104-0.074 0.308c-0.046 0.213-0.11 0.515-0.194 0.908-0.166 0.808-0.409 1.985-0.72 3.498-0.617 3.049-1.507 7.445-2.605 12.875-1.091 5.44-2.39 11.915-3.832 19.104-0.718 3.596-1.472 7.371-2.254 11.285-0.1 0.484-0.191 0.99-0.298 1.463-0.122 0.458-0.424 0.865-0.826 1.12-0.201 0.128-0.426 0.219-0.66 0.267-0.231 0.052-0.479 0.037-0.739 0.042-0.512 4e-3 -1.025 8e-3 -1.54 0.012-2.061 0.016-4.152 0.032-6.268 0.049-16.92 0.148-32.239 0.283-43.338 0.38-5.54 0.061-10.026 0.11-13.137 0.144-1.544 0.023-2.745 0.04-3.571 0.053-0.402 8e-3 -0.711 0.014-0.929 0.019-0.209 6e-3 -0.316 0.016-0.316 0.016" clip-path="url(#clipPath412)"/>
   <path transform="matrix(1.3333 0 0 -1.3333 347.85 202.29)" d="m0 0c0.311-10.814-4.28-21.675-12.254-28.987-1.825 5.289-3.651 10.577-5.476 15.866" clip-path="url(#clipPath414)"/>
   <path transform="matrix(1.3333 0 0 -1.3333 292.8 160.21)" d="m0 0c4.702 2.569 10.381 2.938 15.635 1.887 5.253-1.053 10.149-3.43 14.786-6.114 2.602-1.505 5.197-3.16 7.067-5.513 3.414-4.295 6.788-11.349 7.117-16.825 0.267-4.429-1.429-15.516-3.301-19.538-1.718-3.691-9.756-6.501-13.724-7.412l-36.409 42.343c1.287 4.704 4.55 8.833 8.829 11.172" clip-path="url(#clipPath416)"/>
   <path transform="matrix(1.3333 0 0 -1.3333 284.43 167.83)" d="m0 0 8.728 1.561c-4.771-11.362-6.064-37.346-8.794-49.364-3.217 4.668-10.688 18.887-10.289 24.542 0.4 5.656-0.015 24.225 10.355 23.261" clip-path="url(#clipPath418)"/>
  </g>
  <path transform="matrix(1.3333 0 0 -1.3333 277.78 192.53)" d="m0 0c0.568 8.718 6.37 19.404 15.056 18.466l20.1-5.128c6.448-1.645 10.745-7.089 11.215-13.728 0.024-0.331 0.057 0.073 0.051-0.176l-4.486-52.049-15.782-14.059 0.81 0.115-13.427 11.58c-7e-3 4.246-0.013 11.448-0.015 11.426 0 0-11.136 1.874-13.412 16.414-1.131 7.232-0.742 17.452-0.11 27.139" clip-path="url(#clipPath420)" fill="#cd7259 icc-color(Adobe-RGB-1998, 0.71699524, 0.44299316, 0.35699463)"/>
  <g fill="#000">
   <path transform="matrix(1.3333 0 0 -1.3333 282.46 209.31)" d="m0 0c-0.037-0.984 0.766-1.827 1.793-1.885 1.025-0.057 1.889 0.692 1.925 1.676 0.037 0.984-0.765 1.828-1.79 1.886-1.028 0.057-1.891-0.693-1.928-1.677" clip-path="url(#clipPath422)"/>
   <path transform="matrix(1.3333 0 0 -1.3333 280.69 200.12)" d="M 0,0 C 0.23,-0.244 1.645,0.798 3.651,0.789 5.655,0.808 7.125,-0.228 7.343,0.018 7.45,0.126 7.215,0.565 6.575,1.033 5.946,1.499 4.87,1.954 3.621,1.951 2.371,1.947 1.319,1.489 0.714,1.02 0.096,0.548 -0.114,0.109 0,0" clip-path="url(#clipPath424)"/>
   <path transform="matrix(1.3333 0 0 -1.3333 305.66 209.31)" d="M 0,0 C -0.037,-0.984 0.766,-1.827 1.793,-1.884 2.818,-1.941 3.682,-1.192 3.719,-0.208 3.755,0.776 2.952,1.62 1.927,1.678 0.9,1.735 0.037,0.984 0,0" clip-path="url(#clipPath426)"/>
   <path transform="matrix(1.3333 0 0 -1.3333 306.09 200.12)" d="m0 0c0.231-0.244 1.647 0.798 3.652 0.788 2.003 0.02 3.473-1.016 3.692-0.77 0.106 0.108-0.126 0.546-0.768 1.015-0.63 0.466-1.705 0.921-2.954 0.918-1.25-4e-3 -2.302-0.462-2.908-0.93-0.615-0.473-0.827-0.912-0.714-1.021" clip-path="url(#clipPath428)"/>
   <path transform="matrix(1.3333 0 0 -1.3333 297.72 221.13)" d="m0 0c9e-3 0.113-1.236 0.332-3.257 0.595-0.512 0.054-0.996 0.157-1.081 0.507-0.12 0.37 0.095 0.921 0.345 1.517 0.484 1.238 0.991 2.536 1.523 3.897 2.116 5.548 3.649 10.111 3.425 10.194-0.225 0.083-2.122-4.347-4.238-9.896-0.509-1.367-0.996-2.671-1.459-3.919-0.195-0.582-0.53-1.242-0.27-2.01 0.137-0.383 0.512-0.661 0.84-0.751 0.328-0.101 0.617-0.107 0.87-0.122 2.033-0.115 3.295-0.126 3.302-0.012" clip-path="url(#clipPath430)"/>
  </g>
  <path transform="matrix(1.3333 0 0 -1.3333 321.51 243.7)" d="m0 0s-4.73-9.983-19.274-8.591l-4e-3 3.419s9.577-0.629 19.278 5.172" clip-path="url(#clipPath432)" fill="#844031 icc-color(Adobe-RGB-1998, 0.45899963, 0.25898743, 0.20599365)"/>
  <g fill="#000">
   <path transform="matrix(1.3333 0 0 -1.3333 306.93 190.46)" d="m0 0c0.196-0.546 2.2-0.292 4.552-0.58 2.359-0.242 4.255-0.936 4.568-0.446 0.14 0.233-0.189 0.747-0.955 1.276-0.76 0.529-1.973 1.033-3.385 1.194-1.412 0.157-2.707-0.064-3.564-0.411-0.865-0.346-1.301-0.774-1.216-1.033" clip-path="url(#clipPath434)"/>
   <path transform="matrix(1.3333 0 0 -1.3333 281.56 191.94)" d="M 0,0 C 0.352,-0.456 1.734,0.014 3.396,0.032 5.057,0.108 6.464,-0.281 6.79,0.194 6.932,0.426 6.711,0.883 6.097,1.315 5.492,1.746 4.479,2.1 3.338,2.068 2.196,2.034 1.206,1.624 0.627,1.158 0.039,0.691 -0.155,0.223 0,0" clip-path="url(#clipPath436)"/>
   <path transform="matrix(1.3333 0 0 -1.3333 283.04 174.83)" d="m0 0c0.889 2.187 3.289 3.5 5.647 3.62 2.358 0.119 4.661-0.773 6.705-1.954 8.656-5.004 13.105-17.089 21.658-22.266 2.104-1.274 4.842-0.108 6.631-1.794 1.789-1.687 2.95-4.382 1.96-6.632 1.149 1.576 2.314 3.181 2.968 5.019 0.653 1.839 0.735 3.976-0.24 5.666-0.741 1.282-2.047 2.26-2.406 3.697-0.316 1.264 0.182 2.585 0.128 3.887-0.056 1.325-0.679 2.553-1.331 3.707-3.351 5.925-7.96 11.285-13.895 14.618-3.877 2.177-8.312 3.45-12.756 3.299-4.445-0.152-8.884-1.785-12.137-4.818-1.913-1.783-3.924-3.629-2.932-6.049" clip-path="url(#clipPath438)"/>
  </g>
  <!--cabelo e headset-->
  <g fill="#000">
   <path transform="matrix(1.3333 0 0 -1.3333 336.95 207.09)" d="M 0,0 C 0.153,0.418 7.735,3.153 7.835,-4.905 7.933,-12.734 0.033,-11.193 0.017,-10.969 0.002,-10.744 0,0 0,0" clip-path="url(#clipPath440)" fill="#cd7259 icc-color(Adobe-RGB-1998, 0.71699524, 0.44299316, 0.35699463)"/>
   <path transform="matrix(1.3333 0 0 -1.3333 340.16 217.73)" d="m0 0c0.035 0.024 0.138-0.095 0.369-0.198 0.226-0.101 0.613-0.168 1.02-0.012 0.824 0.312 1.508 1.631 1.533 3.043 0.013 0.713-0.142 1.39-0.4 1.949-0.245 0.571-0.619 0.967-1.036 1.037-0.415 0.092-0.708-0.16-0.801-0.382-0.103-0.219-0.052-0.375-0.093-0.389-0.022-0.02-0.17 0.13-0.11 0.454 0.031 0.156 0.122 0.341 0.304 0.493 0.186 0.155 0.462 0.235 0.752 0.206 0.605-0.035 1.153-0.586 1.437-1.2 0.316-0.616 0.507-1.377 0.493-2.178-0.036-1.578-0.83-3.061-1.958-3.399-0.55-0.15-1.01 0.013-1.249 0.195-0.245 0.192-0.288 0.366-0.261 0.381" clip-path="url(#clipPath442)" fill="#844031 icc-color(Adobe-RGB-1998, 0.45899963, 0.25898743, 0.20599365)"/>
   <path transform="matrix(1.3333 0 0 -1.3333 341.1 201.72)" d="m0 0c-6e-3 -0.011-0.169 0.08-0.473 0.263-0.299 0.191-0.761 0.444-1.313 0.835-1.094 0.791-2.611 2.044-4.226 3.847-1.625 1.793-3.325 4.118-5.169 6.715-1.847 2.589-3.875 5.456-6.461 8.045-1.317 1.264-2.701 2.4-4.169 3.294-1.464 0.902-2.999 1.566-4.504 2.044-3.015 0.97-5.91 1.182-8.293 1.018-2.395-0.149-4.288-0.658-5.556-1.089-0.644-0.195-1.119-0.411-1.45-0.537-0.33-0.13-0.506-0.192-0.511-0.181-6e-3 0.011 0.16 0.096 0.481 0.247 0.324 0.147 0.793 0.385 1.434 0.603 1.261 0.474 3.164 1.025 5.584 1.209 2.408 0.199 5.345 0.011 8.411-0.956 1.53-0.477 3.093-1.145 4.585-2.058 1.498-0.907 2.905-2.059 4.238-3.34 2.618-2.62 4.647-5.509 6.479-8.108 1.83-2.608 3.5-4.936 5.09-6.739 1.579-1.81 3.057-3.081 4.119-3.902 0.536-0.405 0.983-0.676 1.269-0.886 0.291-0.202 0.441-0.314 0.435-0.324" clip-path="url(#clipPath444)" fill="#848484"/>
   <path transform="matrix(1.3333 0 0 -1.3333 338.48 204.68)" d="m0 0c0.123-2.138 0.222-4.396-0.767-6.296-0.988-1.9-3.479-3.193-5.338-2.13-1.518 0.866-1.971 2.809-2.228 4.537-0.743 4.987-1.083 10.028-1.868 15.007z" clip-path="url(#clipPath446)" fill="#000"/>
   <path transform="matrix(1.3333 0 0 -1.3333 304.3 226.2)" d="m0 0c0.754-0.988 0.99-2.351 0.612-3.535-0.379-1.184-1.361-2.156-2.549-2.524-0.474-0.146-0.996-0.198-1.46-0.023-0.819 0.31-1.227 1.207-1.552 2.02-0.27 0.676-0.54 1.351-0.81 2.028-0.091 0.226-0.181 0.486-0.076 0.707 0.113 0.237 0.402 0.324 0.657 0.387 1.676 0.403 3.351 0.806 5.026 1.211" clip-path="url(#clipPath448)" fill="#844031 icc-color(Adobe-RGB-1998, 0.45899963, 0.25898743, 0.20599365)"/>
   <path transform="matrix(1.3333 0 0 -1.3333 299.92 233.99)" d="m0 0c4e-3 -0.05 0.89-0.152 2.284 0.287 0.678 0.235 1.506 0.722 2 1.625 0.252 0.434 0.362 1.037 0.307 1.556-0.035 0.532-0.157 1.086-0.399 1.607-0.232 0.504-0.562 0.95-0.945 1.307l-0.132 0.123-0.167-0.059c-3.327-1.174-5.93-1.768-5.903-1.911 0.022-0.145 2.705 0.214 6.097 1.352l-0.3 0.063c0.325-0.311 0.602-0.693 0.803-1.127 0.381-0.899 0.532-1.938 0.147-2.654-0.381-0.754-1.059-1.222-1.666-1.485-1.248-0.508-2.149-0.573-2.126-0.684" clip-path="url(#clipPath450)" fill="#cd7259"/>
   <path transform="matrix(1.3333 0 0 -1.3333 285.61 169.86)" d="m0 0c8e-3 -0.045 0.692 0.131 1.946 0.17 1.248 0.034 3.091-0.13 5.181-0.946 1.042-0.406 2.15-0.945 3.247-1.671 1.098-0.726 2.217-1.595 3.348-2.557 2.246-1.941 4.572-4.275 6.556-7.068 0.994-1.397 1.875-2.832 2.829-4.161 0.946-1.334 1.998-2.539 3.139-3.53 2.276-1.977 4.621-3.363 6.616-4.425 2.003-1.06 3.678-1.801 4.833-2.314 0.545-0.232 0.989-0.422 1.339-0.57 0.308-0.126 0.473-0.185 0.48-0.171 6e-3 0.014-0.147 0.099-0.443 0.251-0.341 0.169-0.773 0.383-1.304 0.645-1.132 0.56-2.784 1.343-4.757 2.432-1.966 1.091-4.27 2.493-6.496 4.456-1.108 0.978-2.127 2.155-3.056 3.477-0.937 1.314-1.816 2.753-2.822 4.165-2.013 2.833-4.37 5.179-6.652 7.121-1.151 0.965-2.285 1.829-3.413 2.555-1.127 0.728-2.266 1.262-3.335 1.656-2.147 0.794-4.034 0.914-5.298 0.827-0.635-0.042-1.123-0.127-1.448-0.202-0.325-0.078-0.493-0.125-0.49-0.14" clip-path="url(#clipPath452)" fill="#4D4D4D"/>
   <path transform="matrix(1.3333 0 0 -1.3333 355.79 209.45)" d="m0 0c2.738-10.004 0.415-23.373 3.122-31.405 2.708-8.033 4.679-16.946 1.617-24.849-1.406 3.112-2.811 6.226-4.217 9.339 1.703-3.666 1.345-8.21-0.91-11.564s-6.328-5.4-10.365-5.207c-8.008 16.332-10.432 35.354-3.375 52.119l5.629-3.957 4.908 2.112z" clip-path="url(#clipPath454)" fill="#1a2e35 icc-color(Adobe-RGB-1998, 0.14898682, 0.19599915, 0.21998596)"/>
   <path transform="matrix(1.3333 0 0 -1.3333 328.1 212.02)" d="m0 0c0-6.267 4.582-11.347 10.234-11.347s10.234 5.08 10.234 11.347-4.582 11.347-10.234 11.347-10.234-5.08-10.234-11.347" clip-path="url(#clipPath456)" fill="#4D4D4D"/>
   <path transform="matrix(1.3333 0 0 -1.3333 333.67 212.02)" d="m0 0c-0.01 0-0.013 0.17-7e-3 0.493-3e-3 0.324 0.042 0.804 0.159 1.408 0.108 0.609 0.346 1.333 0.726 2.125 0.388 0.787 0.964 1.632 1.795 2.374 0.826 0.739 1.91 1.378 3.193 1.671 1.28 0.271 2.748 0.212 4.111-0.38 1.368-0.562 2.593-1.625 3.453-2.977 0.422-0.683 0.764-1.431 0.997-2.227 0.219-0.799 0.334-1.635 0.347-2.486-0.013-0.851-0.128-1.688-0.347-2.487-0.232-0.796-0.575-1.544-0.996-2.227-0.86-1.353-2.086-2.415-3.454-2.978-1.363-0.592-2.831-0.65-4.111-0.38-1.283 0.293-2.368 0.933-3.194 1.671-0.83 0.742-1.406 1.588-1.794 2.374-0.38 0.793-0.618 1.517-0.726 2.125-0.117 0.605-0.162 1.084-0.159 1.408-6e-3 0.324-3e-3 0.493 7e-3 0.493 0.042 3e-3 2e-3 -0.686 0.263-1.877 0.123-0.597 0.374-1.305 0.76-2.075 0.394-0.765 0.97-1.582 1.786-2.294 0.813-0.708 1.869-1.316 3.108-1.589 1.237-0.25 2.648-0.185 3.955 0.391 1.313 0.548 2.489 1.575 3.317 2.883 0.405 0.661 0.735 1.384 0.959 2.155 0.21 0.773 0.322 1.584 0.334 2.407-0.012 0.824-0.124 1.634-0.334 2.407-0.224 0.77-0.554 1.493-0.96 2.154-0.827 1.308-2.003 2.334-3.316 2.882-1.307 0.576-2.718 0.641-3.954 0.391-1.24-0.273-2.295-0.88-3.108-1.588-0.817-0.713-1.393-1.529-1.787-2.295-0.386-0.769-0.636-1.477-0.76-2.074-0.261-1.192-0.221-1.881-0.263-1.878" clip-path="url(#clipPath458)" fill="#848484"/>
   <path transform="matrix(1.3333 0 0 -1.3333 344.37 197.72)" d="m0 0s1.728 29.818-28.019 30.764c0 0-10.001 0-14.171-5.22 0 0 6.839 3.967 14.581 1.791 6.302-1.772 20.544-8.099 21.362-27.746l2.761-0.958z" clip-path="url(#clipPath460)" fill="#4D4D4D"/>
  </g>
  <g transform="translate(128.76 -148.24)" clip-path="url(#clipPath463)" opacity=".3" fill="#000">
   <path transform="matrix(1.3333 0 0 -1.3333 223.3 365.44)" d="m0 0c-0.65-3.061-3.719-5.346-6.848-5.313-3.129 0.031-6.06 2.222-7.2 5.137-1.139 2.914-0.644 5.738 1.204 8.263-0.34-0.978-1.812-3.684-0.096-7.932 0.94-2.327 3.693-4.151 6.193-4.372 2.5-0.22 5.398 1.498 6.747 4.217" clip-path="url(#clipPath461)" fill="#000000 icc-color(Adobe-RGB-1998, 0, 0, 0)"/>
  </g>
  <g fill="#fff" stroke="none" stroke-miterlimit="10">
   <path transform="matrix(1.3333 0 0 -1.3333 335.34 198.69)" d="M 0,0 C -0.017,0.027 0.402,0.325 1.161,0.653 1.917,0.982 3.03,1.309 4.294,1.396 5.559,1.479 6.705,1.305 7.498,1.08 8.294,0.856 8.749,0.617 8.736,0.588 8.715,0.491 6.795,1.289 4.313,1.104 1.831,0.955 0.035,-0.094 0,0" clip-path="url(#clipPath465)" fill="#1a2e35 icc-color(Adobe-RGB-1998, 0.14898682, 0.19599915, 0.21998596)"/>
   <path transform="matrix(1.3333 0 0 -1.3333 286.16 165.26)" d="m0 0c-5e-3 1e-3 0.013 0.058 0.051 0.167 0.04 0.109 0.095 0.272 0.182 0.481 0.188 0.41 0.486 1.015 1.014 1.698 0.524 0.683 1.278 1.435 2.267 2.156 0.995 0.712 2.222 1.39 3.653 1.956 0.714 0.284 1.486 0.519 2.284 0.774 0.814 0.206 1.654 0.446 2.549 0.586 1.776 0.325 3.711 0.511 5.745 0.434 4.055-0.122 8.532-1.14 12.666-3.391 2.063-1.122 3.935-2.485 5.53-4.023 1.6-1.533 2.939-3.214 4.038-4.924s1.973-3.446 2.603-5.141c0.644-1.688 1.104-3.315 1.376-4.826 0.582-3.022 0.552-5.533 0.403-7.237-0.049-0.857-0.174-1.513-0.244-1.958-0.036-0.21-0.064-0.376-0.087-0.506-0.021-0.114-0.034-0.172-0.039-0.171s-1e-3 0.061 0.01 0.176c0.015 0.131 0.034 0.299 0.058 0.51 0.051 0.447 0.157 1.102 0.189 1.957 0.113 1.7 0.111 4.195-0.492 7.189-0.283 1.498-0.752 3.109-1.4 4.779-0.634 1.676-1.508 3.393-2.602 5.083-1.095 1.689-2.425 3.348-4.01 4.862-1.58 1.518-3.431 2.864-5.472 3.974-4.089 2.227-8.519 3.243-12.536 3.378-2.013 0.084-3.931-0.091-5.694-0.403-0.887-0.133-1.721-0.367-2.529-0.564-0.793-0.248-1.561-0.475-2.271-0.75-1.422-0.548-2.641-1.206-3.634-1.897-0.985-0.7-1.74-1.43-2.272-2.094-0.534-0.663-0.845-1.252-1.05-1.651-0.085-0.193-0.154-0.347-0.207-0.467-0.048-0.105-0.075-0.158-0.079-0.157" clip-path="url(#clipPath467)" fill="#375a64 icc-color(Adobe-RGB-1998, 0.27099609, 0.35299683, 0.39199829)"/>
   <path transform="matrix(1.3333 0 0 -1.3333 282.87 168.51)" d="m0 0c-4e-3 3e-3 0.019 0.053 0.069 0.149 0.06 0.11 0.136 0.249 0.23 0.423 0.21 0.366 0.529 0.904 0.993 1.562 0.467 0.654 1.089 1.43 1.953 2.188 0.86 0.762 1.982 1.46 3.289 2.066 1.307 0.604 2.803 1.151 4.484 1.439 1.685 0.233 3.489 0.337 5.397 0.278 1.905-0.065 3.89-0.355 5.919-0.738 2.038-0.383 4.112-1.001 6.113-1.925 1.999-0.923 3.823-2.117 5.345-3.536 1.525-1.417 2.757-3.021 3.753-4.645 1.99-3.265 3.051-6.574 3.742-9.355 0.686-2.793 1.025-5.095 1.263-6.682 0.106-0.778 0.188-1.391 0.248-1.831 0.022-0.196 0.04-0.353 0.055-0.477 0.01-0.108 0.013-0.164 8e-3 -0.165s-0.017 0.054-0.038 0.161c-0.021 0.123-0.049 0.278-0.083 0.472-0.073 0.438-0.174 1.048-0.302 1.823-0.272 1.58-0.643 3.874-1.352 6.648-0.712 2.764-1.788 6.042-3.77 9.265-0.992 1.603-2.212 3.183-3.718 4.576-1.502 1.394-3.3 2.57-5.274 3.481-1.975 0.913-4.026 1.526-6.043 1.909-2.023 0.387-3.989 0.679-5.877 0.751-1.883 0.065-3.692-0.03-5.348-0.249-1.65-0.272-3.138-0.801-4.436-1.387-1.3-0.589-2.412-1.264-3.269-2.002-0.861-0.736-1.489-1.492-1.967-2.132-0.475-0.643-0.809-1.169-1.034-1.525-0.105-0.168-0.189-0.302-0.255-0.408-0.058-0.091-0.091-0.136-0.095-0.134" clip-path="url(#clipPath469)" fill="#1a2e35 icc-color(Adobe-RGB-1998, 0.14898682, 0.19599915, 0.21998596)"/>
   <path transform="matrix(1.3333 0 0 -1.3333 233.56 222.08)" d="m0 0h-30.766c-4.633 0-8.389-3.756-8.389-8.389v-16.573c0-4.633 3.756-8.389 8.389-8.389h10.367c1.843-3.133 4.568-7.8 4.568-7.8l4.672 7.8h11.159c4.633 0 8.389 3.756 8.389 8.389v16.573c0 4.633-3.756 8.389-8.389 8.389" clip-path="url(#clipPath471)" fill="#ffffff icc-color(Adobe-RGB-1998, 1, 1, 1)"/>
   <path transform="matrix(1.3333 0 0 -1.3333 233.56 222.08)" d="m0 0s0.354 0.028 1.034-0.026c0.676-0.065 1.688-0.263 2.871-0.849 1.163-0.592 2.509-1.628 3.47-3.282 0.477-0.822 0.853-1.789 1.032-2.864 0.184-1.083 0.114-2.227 0.136-3.42 9e-3 -2.399 0.02-5.039 0.031-7.899 4e-3 -1.431 9e-3 -2.916 0.013-4.453-1e-3 -0.769-2e-3 -1.552-2e-3 -2.348-5e-3 -0.814-0.159-1.632-0.394-2.437-0.513-1.596-1.511-3.097-2.92-4.184-1.391-1.101-3.191-1.764-5.056-1.81-3.634-8e-3 -7.435-0.017-11.374-0.027l0.213 0.12c-1.482-2.477-3.056-5.112-4.665-7.804l-0.222-0.37-0.218 0.373c-1.456 2.483-3.001 5.119-4.572 7.798l0.224-0.128c-1.881 0-3.89-1e-3 -5.917-1e-3h-4.021c-1.343-0.022-2.746 0.181-3.97 0.764-1.231 0.563-2.326 1.399-3.167 2.434-0.835 1.039-1.424 2.259-1.716 3.536-0.149 0.639-0.205 1.292-0.219 1.94 1e-3 0.629 1e-3 1.256 2e-3 1.88 1e-3 1.249 2e-3 2.486 3e-3 3.708 3e-3 2.448 6e-3 4.843 9e-3 7.18 2e-3 1.169 3e-3 2.322 5e-3 3.461-9e-3 1.152 0.162 2.325 0.577 3.383 0.809 2.132 2.46 3.826 4.393 4.719 0.965 0.452 1.998 0.71 3.022 0.784 1.031 0.06 1.995 0.011 2.966 0.023 1.929-6e-3 3.78-0.011 5.548-0.016 7.049-0.036 12.762-0.064 16.744-0.083 1.955-0.021 3.483-0.038 4.553-0.049 0.5-0.011 0.892-0.02 1.183-0.026 0.267-8e-3 0.404-0.017 0.404-0.027 0-9e-3 -0.137-0.018-0.404-0.026-0.291-6e-3 -0.683-0.015-1.183-0.026-1.07-0.011-2.598-0.028-4.553-0.049-3.982-0.02-9.695-0.047-16.744-0.083-1.768-5e-3 -3.619-0.01-5.548-0.016-0.958-0.017-1.965 0.025-2.936-0.039-0.974-0.075-1.953-0.325-2.868-0.758-1.831-0.856-3.391-2.471-4.15-4.491-0.388-1.01-0.546-2.095-0.534-3.22 2e-3 -1.139 3e-3 -2.292 5e-3 -3.461 3e-3 -2.337 6e-3 -4.732 9e-3 -7.18 1e-3 -1.222 2e-3 -2.459 3e-3 -3.708 0.025-1.255-0.091-2.515 0.211-3.708 0.276-1.201 0.832-2.346 1.617-3.324 0.792-0.973 1.824-1.757 2.981-2.285 1.161-0.548 2.443-0.735 3.757-0.717h10.087l0.075-0.129c1.568-2.68 3.111-5.317 4.565-7.802l-0.44 1e-3c1.614 2.69 3.194 5.322 4.679 7.797l0.072 0.12h0.14c3.935-1e-3 7.732-2e-3 11.363-4e-3 1.765 0.038 3.47 0.657 4.794 1.697 1.342 1.025 2.295 2.447 2.792 3.961 0.512 1.52 0.376 3.116 0.4 4.657 5e-3 1.537 0.01 3.022 0.014 4.453 0.011 2.86 0.022 5.5 0.03 7.899-0.01 1.198 0.068 2.341-0.099 3.377-0.162 1.041-0.515 1.983-0.968 2.788-0.914 1.618-2.209 2.652-3.338 3.255-1.148 0.596-2.14 0.82-2.806 0.91-0.669 0.082-1.024 0.09-1.023 0.111" clip-path="url(#clipPath473)" fill="#1a2e35 icc-color(Adobe-RGB-1998, 0.14898682, 0.19599915, 0.21998596)"/>
  </g>
  <g fill="#F37979" stroke="none" stroke-miterlimit="10">
   <path transform="matrix(1.3333 0 0 -1.3333 219.44 250.59)" d="m0 0c-0.011 0.012 0.114 0.151 0.349 0.396 0.273 0.274 0.61 0.614 1.009 1.014 0.86 0.85 2.059 2.011 3.393 3.283l0.03 0.03 1e-3 -0.172c-1.344 1.249-2.551 2.386-3.415 3.22-0.402 0.392-0.741 0.724-1.016 0.994-0.236 0.238-0.362 0.376-0.351 0.387 0.011 0.012 0.157-0.103 0.413-0.321 0.289-0.254 0.645-0.568 1.066-0.939 0.894-0.801 2.118-1.92 3.462-3.168l0.092-0.085-0.09-0.087-0.03-0.03c-1.335-1.272-2.552-2.414-3.44-3.233-0.42-0.379-0.774-0.7-1.062-0.96-0.254-0.224-0.4-0.341-0.411-0.329" clip-path="url(#clipPath475)"/>
   <path transform="matrix(1.3333 0 0 -1.3333 219.41 251.27)" d="m0 0c-0.113 0-0.223 0.049-0.335 0.166-5e-3 5e-3 -9e-3 0.011-0.014 0.015-0.322 0.364-0.034 0.663 0.363 1.075l1.016 1.018c0.767 0.759 1.8 1.762 2.957 2.87-1.153 1.075-2.179 2.045-2.941 2.779l-1.019 0.996c-0.398 0.401-0.708 0.714-0.37 1.083 0.086 0.093 0.205 0.151 0.33 0.162 0.234 0.025 0.363-0.088 0.776-0.439l1.072-0.946c0.899-0.804 2.125-1.925 3.473-3.177l0.091-0.083c0.101-0.095 0.159-0.227 0.16-0.366 1e-3 -0.138-0.056-0.271-0.156-0.366l-0.091-0.086c-1.365-1.303-2.584-2.447-3.476-3.267l-1.063-0.963c-0.29-0.255-0.536-0.471-0.773-0.471" clip-path="url(#clipPath477)"/>
   <path transform="matrix(1.3333 0 0 -1.3333 205.61 238.38)" d="m0 0c0.011-0.012-0.114-0.152-0.349-0.396-0.273-0.275-0.61-0.614-1.009-1.014-0.86-0.85-2.059-2.011-3.393-3.283l-0.03-0.03-2e-3 0.172c1.345-1.249 2.552-2.387 3.416-3.22 0.401-0.392 0.741-0.724 1.016-0.994 0.236-0.238 0.362-0.376 0.351-0.387-0.011-0.012-0.157 0.102-0.413 0.32-0.289 0.255-0.645 0.569-1.066 0.939-0.894 0.802-2.118 1.921-3.462 3.169l-0.092 0.085 0.12 0.116c1.334 1.272 2.552 2.415 3.44 3.233 0.42 0.38 0.774 0.7 1.062 0.961 0.254 0.223 0.4 0.341 0.411 0.329" clip-path="url(#clipPath479)"/>
   <path transform="matrix(1.3333 0 0 -1.3333 205.65 251.27)" d="m0 0c-0.234 0-0.479 0.208-0.763 0.45l-1.072 0.946c-0.899 0.804-2.126 1.925-3.473 3.176l-0.093 0.087c-0.1 0.095-0.158 0.226-0.158 0.363-1e-3 0.138 0.056 0.27 0.155 0.365l0.091 0.086c1.366 1.303 2.585 2.448 3.476 3.268l1.064 0.963c0.415 0.363 0.767 0.671 1.111 0.3 0.344-0.362 0.036-0.681-0.353-1.083l-1.015-1.022c-0.768-0.757-1.801-1.76-2.958-2.868 1.153-1.073 2.179-2.044 2.942-2.777l1.019-0.998c0.394-0.4 0.7-0.71 0.375-1.077-0.116-0.127-0.23-0.179-0.348-0.179" clip-path="url(#clipPath481)"/>
   <path transform="matrix(1.3333 0 0 -1.3333 209.16 253.46)" d="m0 0c-0.061 0.023 1.029 3.084 2.432 6.837 1.404 3.754 2.591 6.776 2.652 6.754 0.061-0.023-1.028-3.083-2.432-6.837-1.404-3.752-2.591-6.776-2.652-6.754" clip-path="url(#clipPath483)"/>
   <path transform="matrix(1.3333 0 0 -1.3333 209.18 254.18)" d="m0 0-0.385 0.145-0.088 0.19c-0.103 0.225-0.154 0.337 2.42 7.218 2.717 7.263 2.717 7.262 3.294 7.048 0.578-0.223 0.578-0.223-2.138-7.481-2.573-6.883-2.687-6.933-2.913-7.035z" clip-path="url(#clipPath485)"/>
  </g>
 </g>
</svg>
